M48
;Layer_Color=9474304
;FILE_FORMAT=4:4
METRIC,LZ
;TYPE=PLATED
T01F00S00C0.5080
T02F00S00C1.1000
T03F00S00C3.4000
%
T01
X-004762Y-00315
X-004508
X-004254Y-00315
X-004Y-00315
X-00375Y-001725
X-003875Y-001575
X-004Y-00145
X-004125Y-001325
X-00425Y-0012
X-004375Y-001075
X-0045Y-00095
X-004625Y-0008
X-00475Y-000675
X-001225Y-00071875
X-001225Y-00057291
X-001225Y-00040833
X-001225Y-0002625
X-001225Y-0001
X-001225Y-00090833
X-001225Y-00105416
X-001225Y-00124375
X-001225Y-00138958
X-001225Y-00157916
X-001225Y-001725
X-001225Y-001925
Y-002075
X-00155Y-00285
X-001475Y-003
X-00155Y-00315
X-0017Y-003225
X-00185Y-00315
X-001925Y-003
X-00185Y-00285
X-0017Y-002775
X-005016Y-00315
X-00527Y-00315
X-005524Y-00315
X-005778Y-00315
X-006032Y-00315
X-006286Y-00315
X-00654
X-006794
X-007048
X-004875Y-00055
X-005Y-000425
X-005125Y-0003
X-00525Y-000175
X-009502Y-0018
X-009756
X-01001
X-010264
X-010518Y-0018
X-010772Y-0018
X-011026Y-0018
X-01128Y-0018
X-011534Y-0018
X-011788Y-0018
X-012042
X-012296Y-0018
X-01255Y-0018
X-01254588Y-00315
X-01229188
X-01203788
X-01178388
X-01152988Y-00315
X-01127588Y-00315
X-01102188Y-00315
X-01076788Y-00315
X-01051388Y-00315
X-01025988Y-00315
X-01000588
X-00975188Y-00315
X-00949788Y-00315
X-01335Y-00165
X-0135Y-001725
X-01365Y-00165
X-013725Y-0015
X-01365Y-00135
X-0135Y-001275
X-01335Y-00135
X-013275Y-0015
X-01335Y00135
X-0135Y001275
X-01365Y00135
X-013725Y0015
X-01365Y00165
X-0135Y001725
X-01335Y00165
X-013275Y0015
X-012548Y00315
X-012294Y00315
X-01204Y00315
X-011786
X-011532Y00315
X-011278Y00315
X-011024Y00315
X-01077Y00315
X-010516Y00315
X-010262Y00315
X-010008
X-009754
X-0095
X-007048Y00315
X-006794Y00315
X-00654Y00315
X-006286
X-006032Y00315
X-005778Y00315
X-005524Y00315
X-00527Y00315
X-005016Y00315
X-005016Y001825
X-00527Y001825
X-005524Y001825
X-005778Y001825
X-006032Y001825
X-006286Y001825
X-00654
X-006794
X-007048
X-004825Y0006
X-004925Y000475
X-00505Y000325
X-005175Y0002
X-0053Y00005
X-0047Y00075
X-004575Y000875
X-00445Y001
X-004325Y001125
X-0042Y00125
X-004075Y001375
X-003956Y001527
X-00382938Y001675
X-004Y001825
X-004254Y001825
X-004508Y001825
X-004762
X-004762Y00315
X-004508
X-004254
X-004
X-00185Y00315
X-0017Y003225
X-00155Y00315
X-001475Y003
X-00155Y00285
X-0017Y002775
X-00185Y00285
X-001925Y003
X-001225Y002025
Y001875
X-001225Y00170416
X-001225Y00155
X-001225Y00139375
X-001225Y00123958
X-001225Y00105833
X-001225Y00090417
X-001225Y00072291
X-001225Y00056875
X-001225Y0003875
X-001225Y00023333
Y00004792
T02
X-004762Y-0025
X-004508
X-004254
X-004
X-002129Y-001775
X-001875
Y-001521
X-002129
Y-001267
X-001875
Y-001013
X-002129
Y-000759
X-001875
Y-000505
X-002129
Y-000251
X-001875
X-005016Y-0025
X-00527
X-005524
X-005778
X-006032
X-006286
X-00654
X-006794
X-007048
X-007302
X-007556
X-0095
X-009754
X-010008
X-010262
X-010516
X-01077
X-011024
X-011278
X-011532
X-011786
X-01204
X-012294
X-012548
X-012802
X-013056
Y0025
X-012802
X-012548
X-012294
X-01204
X-011786
X-011532
X-011278
X-011024
X-01077
X-010516
X-010262
X-010008
X-009754
X-0095
X-007556
X-007302
X-007048
X-006794
X-00654
X-006286
X-006032
X-005778
X-005524
X-00527
X-005016
X-004762
X-004508
X-004254
X-004
X-002129Y001781
Y001527
Y001273
Y001019
Y000765
Y000511
Y000257
Y000003
X-001875
Y000257
Y000511
Y000765
Y001019
Y001273
Y001527
Y001781
T03
X-0017Y-003
X-0135Y-0015
Y0015
X-0017Y003
M30
