M48
;Layer_Color=9474304
;FILE_FORMAT=4:2
METRIC,LZ
;TYPE=PLATED
T01F00S00C0.38
T02F00S00C1.35
T03F00S00C2.40
%
T01
X001875Y-0007
Y-000225
X-001875
Y-0007
Y000225
Y0007
X001875
Y000225
T02
X0025Y-001397
Y-001143
Y-000889
Y-000635
Y-000381
Y-000127
X-0025
Y-000381
Y-000635
Y-000889
Y-001143
Y-001397
Y000127
Y000381
Y000635
Y000889
X0025
Y000635
Y000381
Y000127
T03
X0009Y-0011
X-0009
Y0011
X0009
M30
