G04*
G04 #@! TF.GenerationSoftware,Altium Limited,Altium Designer,24.8.2 (39)*
G04*
G04 Layer_Physical_Order=2*
G04 Layer_Color=16711680*
%FSLAX44Y44*%
%MOMM*%
G71*
G04*
G04 #@! TF.SameCoordinates,F0AC7A7C-0DB9-42F3-8D31-F0307BBAAA5C*
G04*
G04*
G04 #@! TF.FilePolarity,Positive*
G04*
G01*
G75*
%ADD24C,2.0250*%
%ADD25R,2.0250X2.0250*%
%ADD26C,4.0000*%
%ADD27C,0.6350*%
G36*
X215000Y-85000D02*
X232000Y-102000D01*
X262750D01*
Y-155000D01*
X-262500D01*
Y-102000D01*
X-232000D01*
X-215000Y-85000D01*
Y85000D01*
X215000D01*
X215000Y-85000D01*
D02*
G37*
%LPC*%
G36*
X92220Y-87460D02*
X87780D01*
X83425Y-88326D01*
X79323Y-90025D01*
X75632Y-92492D01*
X72492Y-95632D01*
X70025Y-99323D01*
X68326Y-103425D01*
X67460Y-107780D01*
Y-112220D01*
X68326Y-116575D01*
X70025Y-120677D01*
X72492Y-124368D01*
X75632Y-127508D01*
X79323Y-129975D01*
X83425Y-131674D01*
X87780Y-132540D01*
X92220D01*
X96575Y-131674D01*
X100677Y-129975D01*
X104368Y-127508D01*
X107508Y-124368D01*
X109975Y-120677D01*
X111674Y-116575D01*
X112540Y-112220D01*
Y-107780D01*
X111674Y-103425D01*
X109975Y-99323D01*
X107508Y-95632D01*
X104368Y-92492D01*
X100677Y-90025D01*
X96575Y-88326D01*
X92220Y-87460D01*
D02*
G37*
G36*
X-87780D02*
X-92220D01*
X-96575Y-88326D01*
X-100677Y-90025D01*
X-104368Y-92492D01*
X-107508Y-95632D01*
X-109975Y-99323D01*
X-111674Y-103425D01*
X-112540Y-107780D01*
Y-112220D01*
X-111674Y-116575D01*
X-109975Y-120677D01*
X-107508Y-124368D01*
X-104368Y-127508D01*
X-100677Y-129975D01*
X-96575Y-131674D01*
X-92220Y-132540D01*
X-87780D01*
X-83425Y-131674D01*
X-79323Y-129975D01*
X-75632Y-127508D01*
X-72492Y-124368D01*
X-70025Y-120677D01*
X-68326Y-116575D01*
X-67460Y-112220D01*
Y-107780D01*
X-68326Y-103425D01*
X-70025Y-99323D01*
X-72492Y-95632D01*
X-75632Y-92492D01*
X-79323Y-90025D01*
X-83425Y-88326D01*
X-87780Y-87460D01*
D02*
G37*
%LPD*%
D24*
X-250000Y-38100D02*
D03*
Y-63500D02*
D03*
Y12700D02*
D03*
Y38100D02*
D03*
Y-12700D02*
D03*
Y-114300D02*
D03*
Y-88900D02*
D03*
Y-139700D02*
D03*
Y63500D02*
D03*
X250000Y-38100D02*
D03*
Y-63500D02*
D03*
Y12700D02*
D03*
Y38100D02*
D03*
Y-12700D02*
D03*
Y-114300D02*
D03*
Y-88900D02*
D03*
Y-139700D02*
D03*
Y63500D02*
D03*
D25*
X-250000Y88900D02*
D03*
X250000D02*
D03*
D26*
X-90000Y-110000D02*
D03*
Y110000D02*
D03*
X90000D02*
D03*
Y-110000D02*
D03*
D27*
X187500Y22500D02*
D03*
X-187500Y70000D02*
D03*
Y22500D02*
D03*
X187500Y70000D02*
D03*
Y-22500D02*
D03*
Y-70000D02*
D03*
X-187500D02*
D03*
Y-22500D02*
D03*
M02*
