G04*
G04 #@! TF.GenerationSoftware,Altium Limited,Altium Designer,24.8.2 (39)*
G04*
G04 Layer_Color=8388736*
%FSLAX44Y44*%
%MOMM*%
G71*
G04*
G04 #@! TF.SameCoordinates,F0AC7A7C-0DB9-42F3-8D31-F0307BBAAA5C*
G04*
G04*
G04 #@! TF.FilePolarity,Negative*
G04*
G01*
G75*
G04:AMPARAMS|DCode=17|XSize=1.5mm|YSize=0.5mm|CornerRadius=0.2mm|HoleSize=0mm|Usage=FLASHONLY|Rotation=0.000|XOffset=0mm|YOffset=0mm|HoleType=Round|Shape=RoundedRectangle|*
%AMROUNDEDRECTD17*
21,1,1.5000,0.1000,0,0,0.0*
21,1,1.1000,0.5000,0,0,0.0*
1,1,0.4000,0.5500,-0.0500*
1,1,0.4000,-0.5500,-0.0500*
1,1,0.4000,-0.5500,0.0500*
1,1,0.4000,0.5500,0.0500*
%
%ADD17ROUNDEDRECTD17*%
%ADD18R,1.2032X1.1532*%
%ADD19C,2.2282*%
%ADD20R,2.2282X2.2282*%
%ADD21C,4.2032*%
D17*
X90000Y25000D02*
D03*
Y-35000D02*
D03*
Y35000D02*
D03*
Y-5000D02*
D03*
Y-15000D02*
D03*
Y15000D02*
D03*
Y5000D02*
D03*
Y-25000D02*
D03*
X-90000D02*
D03*
Y5000D02*
D03*
Y15000D02*
D03*
Y-15000D02*
D03*
Y-5000D02*
D03*
Y35000D02*
D03*
Y-35000D02*
D03*
Y25000D02*
D03*
D18*
X-155000Y66629D02*
D03*
Y50629D02*
D03*
X155000Y-72000D02*
D03*
Y-88000D02*
D03*
X-155000Y-72000D02*
D03*
Y-88000D02*
D03*
X-175000Y39290D02*
D03*
Y23290D02*
D03*
X175000Y39290D02*
D03*
Y23290D02*
D03*
X-155000Y20419D02*
D03*
Y4419D02*
D03*
X155000Y-25790D02*
D03*
Y-41790D02*
D03*
X175000Y-6920D02*
D03*
Y-22919D02*
D03*
X155000Y20419D02*
D03*
Y4419D02*
D03*
X-175000Y-6919D02*
D03*
Y-22919D02*
D03*
X-155000Y-25790D02*
D03*
Y-41790D02*
D03*
X175000Y-53129D02*
D03*
Y-69129D02*
D03*
X-175000Y-53129D02*
D03*
Y-69129D02*
D03*
Y85500D02*
D03*
Y69500D02*
D03*
X175000Y85500D02*
D03*
Y69500D02*
D03*
X155000Y66629D02*
D03*
Y50629D02*
D03*
D19*
X-250000Y-38100D02*
D03*
Y-63500D02*
D03*
Y12700D02*
D03*
Y38100D02*
D03*
Y-12700D02*
D03*
Y-114300D02*
D03*
Y-88900D02*
D03*
Y-139700D02*
D03*
Y63500D02*
D03*
X250000Y-38100D02*
D03*
Y-63500D02*
D03*
Y12700D02*
D03*
Y38100D02*
D03*
Y-12700D02*
D03*
Y-114300D02*
D03*
Y-88900D02*
D03*
Y-139700D02*
D03*
Y63500D02*
D03*
D20*
X-250000Y88900D02*
D03*
X250000D02*
D03*
D21*
X-90000Y-110000D02*
D03*
Y110000D02*
D03*
X90000D02*
D03*
Y-110000D02*
D03*
M02*
