G04*
G04 #@! TF.GenerationSoftware,Altium Limited,Altium Designer,24.8.2 (39)*
G04*
G04 Layer_Color=32896*
%FSLAX44Y44*%
%MOMM*%
G71*
G04*
G04 #@! TF.SameCoordinates,F0AC7A7C-0DB9-42F3-8D31-F0307BBAAA5C*
G04*
G04*
G04 #@! TF.FilePolarity,Positive*
G04*
G01*
G75*
%ADD10C,0.2000*%
G36*
X72067Y73898D02*
X72324Y73641D01*
X72632Y73128D01*
X72734Y70360D01*
X72632Y69026D01*
X72529Y68308D01*
X72375Y67744D01*
X72273Y67232D01*
X72067Y66001D01*
X71965Y64976D01*
X71862Y64155D01*
X71760Y61284D01*
X71657Y60771D01*
X71503Y59591D01*
X71401Y58874D01*
X71298Y58566D01*
X71196Y56617D01*
X71093Y56310D01*
X70991Y53746D01*
X70734Y51438D01*
X70632Y50413D01*
X70529Y49900D01*
X70375Y48208D01*
X70273Y47798D01*
X70068Y46362D01*
X69863Y45542D01*
X69658Y44824D01*
X69350Y44106D01*
X69247Y43901D01*
X68888Y43542D01*
X66632Y43439D01*
X65914Y43542D01*
X65504Y43644D01*
X64940Y43901D01*
X64427Y44106D01*
X63607Y44414D01*
X63197Y44516D01*
X62325Y44670D01*
X61915Y44773D01*
X61607Y44875D01*
X59556Y44978D01*
X58838Y45080D01*
X58428Y45183D01*
X58069Y45644D01*
X57966Y46260D01*
X58069Y47285D01*
X58838Y48977D01*
X58992Y49541D01*
X59095Y49952D01*
X59248Y50515D01*
X59453Y51336D01*
X59556Y51951D01*
X59710Y53028D01*
X59915Y54771D01*
X60017Y55182D01*
X60223Y56412D01*
X60325Y57130D01*
X60428Y57540D01*
X60530Y58566D01*
X60735Y60002D01*
X60940Y62053D01*
X61146Y62873D01*
Y62976D01*
X61197Y63027D01*
X61299Y63437D01*
X61453Y64309D01*
X61556Y64616D01*
X61658Y67078D01*
X61761Y67385D01*
X61863Y71385D01*
X61966Y71795D01*
X62222Y72257D01*
X62428Y72359D01*
X62633Y72564D01*
X62991Y72718D01*
X63914Y72821D01*
X64530Y72923D01*
X66427Y73180D01*
X66837Y73282D01*
X67401Y73436D01*
X68222Y73744D01*
X68786Y73898D01*
X69093Y74000D01*
X71350Y74103D01*
X72067Y73898D01*
D02*
G37*
G36*
X86835Y73180D02*
X87553Y72975D01*
X87912Y72616D01*
X88014Y71898D01*
X88117Y71590D01*
X88014Y70770D01*
X87809Y70257D01*
X87707Y69334D01*
Y69231D01*
X87604Y68514D01*
X87502Y68206D01*
X87399Y59181D01*
X87297Y57540D01*
X87194Y57233D01*
X87092Y55900D01*
X86989Y53643D01*
X86886Y53336D01*
X86784Y45849D01*
X86681Y45542D01*
X86579Y44106D01*
X86476Y43696D01*
X86271Y43183D01*
X85707Y42619D01*
X82733Y42516D01*
X82425Y42619D01*
X75554Y42722D01*
X75144Y42824D01*
X74683Y43491D01*
X74580Y44516D01*
X74785Y45952D01*
X74888Y46362D01*
X75093Y47080D01*
X75195Y47388D01*
X75298Y49541D01*
X75401Y49849D01*
X75503Y54054D01*
X75606Y54361D01*
X75759Y58309D01*
X75862Y58822D01*
X75964Y59438D01*
X76067Y60361D01*
X76221Y61540D01*
X76323Y61848D01*
X76426Y67385D01*
X76529Y68411D01*
X76631Y68821D01*
X76939Y69847D01*
X77041Y70257D01*
X77144Y70565D01*
X77246Y71693D01*
X77452Y72410D01*
X77810Y72769D01*
X78733Y73282D01*
X85399Y73385D01*
X86835Y73180D01*
D02*
G37*
G36*
X83143Y37901D02*
X84066Y37491D01*
X84271Y37389D01*
X84630Y37030D01*
X85040Y36312D01*
X84938Y32415D01*
X84835Y31389D01*
X84528Y30672D01*
X83810Y29954D01*
X83297Y29749D01*
X82887Y29646D01*
X82220Y29492D01*
X82118D01*
X77759Y29441D01*
X75964Y29492D01*
X75657Y29390D01*
X74631Y29492D01*
X73811Y29697D01*
X73555Y29954D01*
X73042Y30672D01*
X72939Y34158D01*
X73042Y35491D01*
X73555Y36620D01*
X73760Y36825D01*
X74580Y37338D01*
X75093Y37543D01*
X75759Y37696D01*
X76272Y37901D01*
X82733Y38004D01*
X83143Y37901D01*
D02*
G37*
G36*
X66119Y38107D02*
X66530Y38004D01*
X66888Y37338D01*
X66991Y33543D01*
X66735Y31441D01*
X66581Y30261D01*
X66376Y29749D01*
X66273Y29543D01*
X65966Y29236D01*
X65402Y28774D01*
X62120Y28672D01*
X61710Y28774D01*
X60992Y29082D01*
X60069Y29595D01*
X59966D01*
X59659Y29697D01*
X58172Y30159D01*
X57761Y30261D01*
X56890Y30415D01*
X56479Y30518D01*
X55813Y31389D01*
X55710Y32210D01*
X55813Y33235D01*
X56121Y33953D01*
X56223Y34671D01*
X56326Y34979D01*
X56428Y36414D01*
X56531Y37132D01*
X56684Y37594D01*
X57402Y38107D01*
X65094Y38209D01*
X66119Y38107D01*
D02*
G37*
G36*
X-39100Y71129D02*
X-37151Y70206D01*
X-36228Y69488D01*
X-36023Y69385D01*
X-35510Y68872D01*
X-35305Y68770D01*
X-34844Y68308D01*
X-34741Y68103D01*
X-34331Y67693D01*
X-34229Y67488D01*
X-33716Y66975D01*
X-33613Y66770D01*
X-33306Y66462D01*
X-32588Y65539D01*
X-32485Y65334D01*
X-32280Y65129D01*
X-31767Y64206D01*
X-31357Y63591D01*
X-31255Y63386D01*
X-31049Y63181D01*
X-30639Y62463D01*
X-30537Y62258D01*
X-30332Y62053D01*
X-29921Y61335D01*
X-29511Y60719D01*
X-28998Y59797D01*
X-28896Y59591D01*
X-28383Y58771D01*
X-28281Y58566D01*
X-28075Y58053D01*
X-27563Y57335D01*
X-27460Y57130D01*
X-27153Y56412D01*
X-26947Y56207D01*
X-26024Y54464D01*
X-25871Y54105D01*
X-25409Y52823D01*
X-25050Y52156D01*
X-24691Y51182D01*
X-24486Y50669D01*
X-24230Y50208D01*
X-23922Y49387D01*
X-23768Y48721D01*
X-23614Y48157D01*
X-23409Y47644D01*
X-23153Y46977D01*
X-22691Y45490D01*
X-22384Y44670D01*
X-22127Y44003D01*
X-21871Y43132D01*
X-21204Y41234D01*
X-20999Y40414D01*
X-20640Y39542D01*
X-20538Y39132D01*
X-20384Y38055D01*
X-20230Y37491D01*
X-20128Y37081D01*
X-19820Y36261D01*
X-19717Y35850D01*
X-19615Y35338D01*
X-19461Y34671D01*
X-19256Y33953D01*
X-19000Y33082D01*
X-18846Y32415D01*
X-18743Y32005D01*
X-18538Y31287D01*
X-18179Y31030D01*
X-17872Y31133D01*
X-17000Y32005D01*
X-16897Y32210D01*
X-16436Y32671D01*
X-15974Y33235D01*
X-15872Y33440D01*
X-15154Y34158D01*
X-15051Y34363D01*
X-14487Y34927D01*
X-14077Y35543D01*
X-13615Y36107D01*
X-13513Y36312D01*
X-13308Y36517D01*
X-13205Y36722D01*
X-13000Y36927D01*
X-12898Y37132D01*
X-12693Y37338D01*
X-12590Y37543D01*
X-12385Y37748D01*
X-12282Y37953D01*
X-11975Y38260D01*
X-11667Y38773D01*
X-11154Y39491D01*
X-10847Y40004D01*
X-10334Y40722D01*
X-9718Y41850D01*
X-9206Y42568D01*
X-8180Y44516D01*
X-8078Y44926D01*
X-7616Y45696D01*
X-7257Y46670D01*
X-6950Y47388D01*
X-6847Y47593D01*
X-6539Y48311D01*
X-5206Y51080D01*
X-4591Y52208D01*
X-4283Y52720D01*
X-3463Y54259D01*
X-2950Y54977D01*
X-2847Y55182D01*
X-1822Y56823D01*
X-1719Y57028D01*
X-1514Y57233D01*
X-1001Y58156D01*
X-899Y58361D01*
X-694Y58566D01*
X-78Y59694D01*
X844Y61437D01*
X1050Y61642D01*
X1665Y62771D01*
X1870Y62976D01*
X2383Y63899D01*
X3101Y64924D01*
X3203Y65129D01*
X3408Y65334D01*
X3511Y65539D01*
X3819Y65847D01*
X3921Y66052D01*
X4126Y66257D01*
X4229Y66462D01*
X4639Y66873D01*
X4742Y67078D01*
X4947Y67283D01*
X5049Y67488D01*
X5562Y68001D01*
X5664Y68206D01*
X6023Y68565D01*
X6229Y68667D01*
X6946Y69385D01*
X7151Y69488D01*
X7715Y70052D01*
X8536Y70565D01*
X9202Y70821D01*
X9613Y70924D01*
X10331Y71026D01*
X10638Y70924D01*
X10843Y71026D01*
X11971Y70924D01*
X12382Y70821D01*
X13099Y70513D01*
X13561Y70052D01*
X13664Y69847D01*
X13869Y69642D01*
X13971Y69436D01*
X14176Y69231D01*
X14997Y67693D01*
X15099Y67488D01*
X16022Y65539D01*
X16791Y63847D01*
X17356Y62258D01*
X17612Y61694D01*
X17868Y61027D01*
X18073Y60309D01*
X18484Y59386D01*
X18894Y58258D01*
X19355Y57181D01*
X19560Y56669D01*
X19663Y56259D01*
X19817Y55694D01*
X20022Y54977D01*
X20329Y54259D01*
X20483Y53695D01*
X20688Y52669D01*
X20894Y51849D01*
X21201Y51028D01*
X21304Y50618D01*
X21458Y49644D01*
X21714Y48772D01*
X22124Y47644D01*
X22278Y46875D01*
X22381Y46465D01*
X22483Y45747D01*
X22842Y44567D01*
X23047Y44055D01*
X23303Y42875D01*
X23406Y42465D01*
X23560Y41901D01*
X23868Y41081D01*
X24021Y40414D01*
X24124Y40004D01*
X24483Y38825D01*
X24688Y38312D01*
X24893Y37491D01*
X25098Y36466D01*
X25201Y36056D01*
X25355Y35491D01*
X25560Y34979D01*
X25714Y34415D01*
X26021Y33184D01*
X26278Y32005D01*
X26431Y31441D01*
X26534Y31030D01*
X26790Y29441D01*
X26995Y28621D01*
Y28518D01*
X27149Y28056D01*
X27406Y26569D01*
X27611Y26057D01*
X28072Y25595D01*
X28739Y25339D01*
X29252Y25236D01*
X30072Y25031D01*
X31098Y24826D01*
X31508Y24723D01*
X33713Y24262D01*
X34123Y24159D01*
X35918Y23595D01*
X36994Y23339D01*
X37661Y23083D01*
X38943Y22621D01*
X39763Y22416D01*
X40635Y22057D01*
X41917Y21596D01*
X43199Y21031D01*
X43865Y20775D01*
X44378Y20570D01*
X45455Y20006D01*
X46122Y19852D01*
X46839Y19545D01*
X47609Y19186D01*
X48173Y19032D01*
X49249Y18570D01*
X49762Y18365D01*
X50429Y18109D01*
X51147Y17904D01*
X52275Y17391D01*
X55044Y16058D01*
X55967Y15545D01*
X56377Y15442D01*
X57197Y14930D01*
X59966Y13494D01*
X60582Y13084D01*
X60787Y12981D01*
X61299Y12776D01*
X62120Y12263D01*
X62325Y12161D01*
X64120Y10879D01*
X64684Y10417D01*
X64889Y10315D01*
X65145Y10058D01*
X65709Y9597D01*
X65914Y9494D01*
X66119Y9289D01*
X66325Y9187D01*
X66632Y8879D01*
X67145Y8571D01*
X67350Y8366D01*
X67555Y8264D01*
X67709Y8110D01*
X68273Y7648D01*
X68478Y7546D01*
X68786Y7238D01*
X68991Y7136D01*
X69196Y6931D01*
X69401Y6828D01*
X69606Y6623D01*
X69811Y6520D01*
X70222Y6110D01*
X70427Y6008D01*
X70632Y5803D01*
X70837Y5700D01*
X71042Y5495D01*
X71247Y5392D01*
X71452Y5187D01*
X71657Y5084D01*
X73144Y3598D01*
X74580Y1752D01*
X74683Y1547D01*
X74990Y1239D01*
X75503Y316D01*
X76118Y-710D01*
X76221Y-915D01*
X76426Y-1427D01*
X76939Y-2761D01*
X77400Y-4248D01*
X77810Y-5273D01*
X77913Y-5684D01*
X78118Y-6709D01*
X78272Y-7683D01*
X78477Y-8401D01*
X78682Y-9222D01*
X78785Y-9940D01*
X78887Y-16195D01*
X78733Y-19220D01*
X78631Y-20041D01*
X78426Y-20861D01*
X78323Y-21477D01*
X78169Y-22143D01*
X77862Y-23374D01*
X77605Y-24246D01*
X76939Y-26143D01*
X76426Y-27271D01*
X76323Y-27681D01*
X75811Y-28399D01*
X75298Y-29322D01*
X75195Y-29527D01*
X74785Y-29937D01*
X74683Y-30142D01*
X74477Y-30347D01*
X74375Y-30553D01*
X73708Y-31219D01*
X73503Y-31322D01*
X72580Y-32245D01*
X72375Y-32347D01*
X71965Y-32757D01*
X71760Y-32860D01*
X71555Y-33065D01*
X71042Y-33373D01*
X70734Y-33681D01*
X69606Y-34296D01*
X69401Y-34501D01*
X68273Y-35116D01*
X67658Y-35526D01*
X66325Y-36244D01*
X65607Y-36655D01*
X64120Y-37321D01*
X63145Y-37680D01*
X62222Y-38090D01*
X62017Y-38193D01*
X61505Y-38398D01*
X60787Y-38603D01*
X59710Y-39065D01*
X58736Y-39423D01*
X57659Y-39885D01*
X56684Y-40244D01*
X55659Y-40552D01*
X54787Y-40910D01*
X53710Y-41167D01*
X52224Y-41628D01*
X51659Y-41782D01*
X50019Y-42192D01*
X48378Y-42705D01*
X47660Y-42910D01*
X46480Y-43269D01*
X45968Y-43474D01*
X45404Y-43628D01*
X44583Y-43833D01*
X44019Y-43987D01*
X43609Y-44090D01*
X43096Y-44295D01*
X42019Y-44551D01*
X41199Y-44756D01*
X39866Y-45269D01*
X38635Y-45577D01*
X37456Y-45936D01*
X36943Y-46141D01*
X36123Y-46346D01*
X35097Y-46551D01*
X34277Y-46756D01*
X33764Y-46859D01*
X33354Y-46961D01*
X32841Y-47064D01*
X32226Y-47166D01*
X31354Y-47320D01*
X30944Y-47422D01*
X30072Y-47679D01*
X29662Y-47782D01*
X28534Y-47987D01*
X27713Y-48089D01*
X27201Y-48192D01*
X26790Y-48294D01*
X26278Y-48397D01*
X24688Y-48551D01*
X24380Y-48653D01*
X9613Y-48756D01*
X9305Y-48858D01*
X3767Y-48961D01*
X3255Y-49166D01*
X3101Y-49320D01*
X2998Y-49730D01*
X3101Y-50448D01*
X3306Y-51268D01*
X3460Y-51832D01*
X3921Y-53114D01*
X4126Y-53935D01*
X4588Y-55422D01*
X4690Y-55832D01*
X4844Y-56806D01*
X4947Y-57216D01*
X5152Y-57729D01*
X5716Y-58191D01*
X7767Y-58293D01*
X8485Y-58396D01*
X9202Y-58601D01*
X10741Y-59319D01*
X11818Y-60088D01*
X12433Y-60498D01*
X12536Y-60703D01*
X13356Y-61523D01*
X13458Y-61729D01*
X14023Y-62293D01*
X14484Y-62857D01*
X14586Y-63062D01*
X14792Y-63267D01*
X14894Y-63472D01*
X15151Y-63728D01*
X15407Y-64395D01*
X15766Y-65267D01*
X15971Y-66087D01*
X16125Y-67472D01*
X16022Y-69420D01*
X15817Y-69933D01*
X15356Y-70394D01*
X14997Y-70651D01*
X14484Y-70856D01*
X13356Y-71369D01*
X12792Y-71522D01*
X11971Y-71728D01*
X11407Y-71881D01*
X10997Y-71984D01*
X10382Y-72087D01*
X9869Y-72189D01*
X9049Y-72394D01*
X8074Y-72548D01*
X7562Y-72753D01*
X7305Y-73317D01*
X6895Y-74240D01*
X6793Y-74445D01*
X6639Y-74599D01*
X5921Y-75112D01*
X5306Y-75214D01*
X4793Y-75420D01*
X2126Y-75522D01*
X1408Y-75727D01*
X1050Y-76086D01*
X947Y-82547D01*
X793Y-83111D01*
X691Y-83521D01*
X537Y-84188D01*
X434Y-84598D01*
X75Y-85470D01*
X-335Y-86085D01*
X-591Y-86752D01*
X-1309Y-87470D01*
X-1412Y-87675D01*
X-2283Y-88239D01*
X-2489Y-88341D01*
X-3206Y-88649D01*
X-7821Y-88751D01*
X-8539Y-88649D01*
X-9462Y-88239D01*
X-10180Y-87931D01*
X-10488Y-87623D01*
X-10693Y-87521D01*
X-11411Y-87008D01*
X-11616Y-86905D01*
X-11923Y-86598D01*
X-12436Y-86290D01*
X-12846Y-85880D01*
X-13052Y-85777D01*
X-13257Y-85572D01*
X-13462Y-85470D01*
X-13667Y-85265D01*
X-13872Y-85162D01*
X-14539Y-84495D01*
X-15769Y-82855D01*
X-16487Y-81521D01*
X-16846Y-80752D01*
X-16948Y-80239D01*
X-17154Y-79419D01*
X-17307Y-78752D01*
X-17615Y-77522D01*
X-17820Y-76086D01*
X-18282Y-75625D01*
X-21051Y-75522D01*
X-21769Y-75625D01*
X-21922Y-75778D01*
X-22025Y-75984D01*
X-22230Y-76189D01*
X-22332Y-76906D01*
X-22435Y-77317D01*
X-22896Y-78804D01*
X-22999Y-79214D01*
X-23153Y-79778D01*
X-23358Y-80291D01*
X-23614Y-80855D01*
X-23819Y-81368D01*
X-23973Y-81932D01*
X-24383Y-82547D01*
X-24896Y-83470D01*
X-25973Y-84547D01*
X-27511Y-85367D01*
X-27922Y-85470D01*
X-28229Y-85572D01*
X-33459Y-85675D01*
X-33870Y-85572D01*
X-34588Y-85265D01*
X-34793Y-85162D01*
X-35510Y-84649D01*
X-35716Y-84547D01*
X-36331Y-83931D01*
X-36536Y-83829D01*
X-37151Y-83008D01*
X-37613Y-82444D01*
X-37715Y-82239D01*
X-37920Y-82034D01*
X-38023Y-81829D01*
X-38228Y-81624D01*
X-38741Y-80701D01*
X-38844Y-80291D01*
X-39254Y-79368D01*
X-39356Y-76599D01*
X-39254Y-75881D01*
X-39151Y-75471D01*
X-39356Y-74753D01*
X-39613Y-74599D01*
X-39818Y-74496D01*
X-40125Y-74394D01*
X-42023Y-74240D01*
X-44330Y-73984D01*
X-45048Y-73881D01*
X-45868Y-73676D01*
X-46586Y-73368D01*
X-46791Y-73266D01*
X-47150Y-72907D01*
X-47253Y-71369D01*
X-47458Y-70548D01*
X-48022Y-70087D01*
X-48432Y-69984D01*
X-49868Y-69574D01*
X-50483Y-69164D01*
X-50688Y-69061D01*
X-50894Y-68856D01*
X-51099Y-68753D01*
X-51252Y-68600D01*
X-51355Y-68395D01*
X-51560Y-68190D01*
X-52380Y-66651D01*
X-52483Y-63164D01*
X-52175Y-61934D01*
X-51970Y-61421D01*
X-51458Y-60293D01*
X-51355Y-60088D01*
X-51150Y-59883D01*
X-51047Y-59678D01*
X-50740Y-59370D01*
X-50637Y-59165D01*
X-50381Y-58909D01*
X-50176Y-58806D01*
X-49970Y-58601D01*
X-49765Y-58498D01*
X-49150Y-58088D01*
X-48227Y-57575D01*
X-47458Y-57114D01*
X-46791Y-56857D01*
X-46484Y-56755D01*
X-44638Y-56652D01*
X-44330Y-56550D01*
X-44227Y-56652D01*
X-44125Y-56550D01*
X-43766Y-56601D01*
X-41869Y-56550D01*
X-41356Y-56345D01*
X-41151Y-56037D01*
X-40638Y-55217D01*
X-40382Y-54140D01*
X-39920Y-53063D01*
X-39715Y-52550D01*
X-39561Y-51679D01*
X-38997Y-50397D01*
X-38741Y-49730D01*
X-38536Y-49217D01*
X-38126Y-48602D01*
X-38023Y-48397D01*
X-37408Y-47782D01*
X-37151Y-47422D01*
X-36485Y-46448D01*
X-36126Y-45884D01*
X-35459Y-44910D01*
X-35357Y-44705D01*
X-35152Y-44500D01*
X-35203Y-44038D01*
X-35767Y-43679D01*
X-42023Y-43577D01*
X-43099Y-43423D01*
X-43510Y-43320D01*
X-44074Y-43167D01*
X-44484Y-43064D01*
X-45510Y-42859D01*
X-46125Y-42756D01*
X-46638Y-42654D01*
X-47253Y-42551D01*
X-47663Y-42449D01*
X-48740Y-42295D01*
X-49048Y-42192D01*
X-50483Y-42090D01*
X-52944Y-41782D01*
X-53970Y-41474D01*
X-54483Y-41269D01*
X-55714Y-40962D01*
X-56739Y-40654D01*
X-57457Y-40449D01*
X-57765Y-40346D01*
X-58175Y-40244D01*
X-58841Y-39987D01*
X-60123Y-39526D01*
X-61354Y-39218D01*
X-62687Y-38603D01*
X-63097Y-38500D01*
X-63610Y-38295D01*
X-64687Y-37731D01*
X-65251Y-37577D01*
X-65764Y-37372D01*
X-66687Y-36962D01*
X-67404Y-36757D01*
X-67815Y-36655D01*
X-68533Y-36449D01*
X-69968Y-35834D01*
X-71917Y-34911D01*
X-72737Y-34398D01*
X-73250Y-34193D01*
X-74686Y-33168D01*
X-74891Y-33065D01*
X-75506Y-32655D01*
X-76224Y-32245D01*
X-76429Y-32142D01*
X-76583Y-31988D01*
X-77557Y-31322D01*
X-77762Y-31219D01*
X-78070Y-30912D01*
X-78788Y-30501D01*
X-78993Y-30399D01*
X-79301Y-30091D01*
X-79506Y-29989D01*
X-79711Y-29783D01*
X-79916Y-29681D01*
X-80326Y-29271D01*
X-80531Y-29168D01*
X-80736Y-28963D01*
X-80941Y-28860D01*
X-81147Y-28655D01*
X-81352Y-28553D01*
X-81659Y-28245D01*
X-82377Y-27835D01*
X-82685Y-27527D01*
X-82890Y-27425D01*
X-83300Y-27015D01*
X-83505Y-26912D01*
X-83762Y-26655D01*
X-83864Y-26451D01*
X-84428Y-25886D01*
X-84633Y-25784D01*
X-84685Y-25630D01*
X-85300Y-25015D01*
X-85402Y-24810D01*
X-85608Y-24604D01*
X-85710Y-24399D01*
X-86223Y-23887D01*
X-86633Y-23169D01*
X-86838Y-22964D01*
X-86941Y-22759D01*
X-87146Y-22553D01*
X-87864Y-21630D01*
X-89094Y-19272D01*
X-89300Y-18759D01*
X-89761Y-17887D01*
X-90069Y-17067D01*
X-90223Y-16400D01*
X-90530Y-15375D01*
X-90735Y-14862D01*
X-90838Y-10247D01*
X-90684Y-8863D01*
X-90582Y-8247D01*
X-90479Y-7017D01*
X-90376Y-6401D01*
X-90069Y-4453D01*
X-89966Y-3838D01*
X-89812Y-2556D01*
X-89710Y-2145D01*
X-89453Y-1274D01*
X-89146Y-43D01*
X-88992Y624D01*
X-88736Y1188D01*
X-88479Y1854D01*
X-88377Y2264D01*
X-88172Y2982D01*
X-87812Y3649D01*
X-87556Y4315D01*
X-86326Y6879D01*
X-86120Y7084D01*
X-86018Y7289D01*
X-85505Y8007D01*
X-85402Y8212D01*
X-85197Y8418D01*
X-84890Y8930D01*
X-83864Y10366D01*
X-83762Y10571D01*
X-83403Y10930D01*
X-83198Y11033D01*
X-82890Y11443D01*
X-82685Y11545D01*
X-81454Y12776D01*
X-81249Y12879D01*
X-79608Y14519D01*
X-79403Y14622D01*
X-78583Y15442D01*
X-78378Y15545D01*
X-78019Y15904D01*
X-77455Y16365D01*
X-77250Y16468D01*
X-77045Y16673D01*
X-76839Y16776D01*
X-76634Y16981D01*
X-76429Y17083D01*
X-74993Y18109D01*
X-74788Y18211D01*
X-74070Y18724D01*
X-73353Y19134D01*
X-73148Y19237D01*
X-72532Y19647D01*
X-72019Y19852D01*
X-71301Y20057D01*
X-70584Y20468D01*
X-70379Y20570D01*
X-69866Y20775D01*
X-66687Y22313D01*
X-64687Y23288D01*
X-64123Y23442D01*
X-62944Y24006D01*
X-62277Y24262D01*
X-61559Y24467D01*
X-60687Y24723D01*
X-60277Y24826D01*
X-59303Y24980D01*
X-58893Y25082D01*
X-57149Y25390D01*
X-56637Y25595D01*
X-56329Y25903D01*
X-56124Y26416D01*
X-55970Y27082D01*
X-55867Y27492D01*
X-55611Y28159D01*
X-55252Y29133D01*
X-55098Y29697D01*
X-54893Y30723D01*
X-54585Y31953D01*
X-54483Y32569D01*
X-54329Y33440D01*
X-54124Y34261D01*
X-53868Y35133D01*
X-53662Y35645D01*
X-53560Y36158D01*
X-53457Y36773D01*
X-53355Y37286D01*
X-53252Y37696D01*
X-52996Y38363D01*
X-52791Y38876D01*
X-52688Y39594D01*
X-52586Y40004D01*
X-52483Y40722D01*
X-52227Y41593D01*
X-52022Y42106D01*
X-51663Y43798D01*
X-51560Y44208D01*
X-51304Y45080D01*
X-50996Y45901D01*
X-50791Y46926D01*
X-50688Y47541D01*
X-50535Y48208D01*
X-50278Y48875D01*
X-50176Y49285D01*
X-50022Y49952D01*
X-49817Y51182D01*
X-49612Y51695D01*
X-49355Y52566D01*
X-49201Y53131D01*
X-49099Y53541D01*
X-48484Y55489D01*
X-48330Y56053D01*
X-48227Y56464D01*
X-48124Y56976D01*
X-47971Y57643D01*
X-47612Y58822D01*
X-47509Y59233D01*
X-47407Y59848D01*
X-47304Y60361D01*
X-47202Y60771D01*
X-47099Y61284D01*
X-46996Y61694D01*
X-46740Y62360D01*
X-46432Y63591D01*
X-45971Y64668D01*
X-45715Y65334D01*
X-45510Y66155D01*
X-44381Y68514D01*
X-43971Y69231D01*
X-43510Y70001D01*
X-43048Y70565D01*
X-42946Y70770D01*
X-42279Y71129D01*
X-40433Y71231D01*
X-39100Y71129D01*
D02*
G37*
%LPC*%
G36*
X-16641Y-33783D02*
X-17564Y-34706D01*
X-18487Y-35424D01*
X-19000Y-35731D01*
X-19922Y-36142D01*
X-20179Y-36501D01*
X-20281Y-37116D01*
X-20179Y-37526D01*
X-19974Y-37731D01*
X-19461Y-38654D01*
X-19359Y-38859D01*
X-19153Y-39065D01*
X-19051Y-39270D01*
X-18794Y-39526D01*
X-18743Y-39577D01*
X-18538Y-39885D01*
X-18435Y-40090D01*
X-17923Y-40603D01*
X-17820Y-40808D01*
X-17564Y-41064D01*
X-17359Y-41167D01*
X-16897Y-41628D01*
X-16333Y-42090D01*
X-16128Y-42192D01*
X-15923Y-42397D01*
X-15000Y-42500D01*
X-13872Y-41987D01*
X-13462Y-41885D01*
X-12436Y-41167D01*
X-12231Y-41064D01*
X-11769Y-40603D01*
X-11667Y-40398D01*
X-11359Y-40090D01*
X-11257Y-39885D01*
X-11052Y-39680D01*
X-10949Y-39475D01*
X-10436Y-38654D01*
X-9718Y-37321D01*
X-9821Y-36603D01*
X-10180Y-36244D01*
X-10693Y-36039D01*
X-11923Y-35731D01*
X-12641Y-35526D01*
X-13564Y-35116D01*
X-14282Y-34808D01*
X-15615Y-33886D01*
X-16641Y-33783D01*
D02*
G37*
G36*
X-40125Y67232D02*
X-40638Y67027D01*
X-40997Y66668D01*
X-41459Y65796D01*
X-42074Y64770D01*
X-42741Y62873D01*
X-42946Y62360D01*
X-43048Y61950D01*
X-43253Y61232D01*
X-43510Y60771D01*
X-43715Y60258D01*
X-43817Y59848D01*
X-43971Y58874D01*
X-44176Y58053D01*
X-44535Y56874D01*
X-44894Y55182D01*
X-45099Y54361D01*
X-45561Y52874D01*
X-45715Y52208D01*
X-45817Y51797D01*
X-46073Y50926D01*
X-46432Y49952D01*
X-46535Y49541D01*
X-46638Y48823D01*
X-46843Y48003D01*
X-47048Y47490D01*
X-47202Y46926D01*
X-47355Y46260D01*
X-47458Y45849D01*
X-47561Y45132D01*
X-47663Y44721D01*
X-47971Y43696D01*
X-48381Y42260D01*
X-48586Y41440D01*
X-48945Y40260D01*
X-49253Y38722D01*
X-49355Y38312D01*
X-49509Y37748D01*
X-49714Y37235D01*
X-49919Y36312D01*
X-50022Y35902D01*
X-50124Y35184D01*
X-50381Y34312D01*
X-50740Y33338D01*
X-50842Y32620D01*
X-50945Y32210D01*
X-51150Y31492D01*
X-51304Y30928D01*
X-51509Y30108D01*
X-51611Y29492D01*
X-51765Y28621D01*
X-51868Y28210D01*
X-51970Y27492D01*
X-52124Y26928D01*
X-52329Y26416D01*
X-52688Y25441D01*
X-52893Y24621D01*
X-53098Y23903D01*
X-53509Y22878D01*
X-54175Y22519D01*
X-54585Y22416D01*
X-55303Y22313D01*
X-56021Y22006D01*
X-57047Y21903D01*
X-57765Y21801D01*
X-58175Y21698D01*
X-59508Y21288D01*
X-60533Y20878D01*
X-61559Y20570D01*
X-62174Y20160D01*
X-62995Y19852D01*
X-66584Y18109D01*
X-66994Y18006D01*
X-67763Y17545D01*
X-68430Y17288D01*
X-70173Y16468D01*
X-70686Y16263D01*
X-70891Y16160D01*
X-71507Y15750D01*
X-71712Y15647D01*
X-71917Y15442D01*
X-72122Y15340D01*
X-72430Y15032D01*
X-73148Y14622D01*
X-73353Y14519D01*
X-74070Y14007D01*
X-74276Y13904D01*
X-74481Y13699D01*
X-74686Y13597D01*
X-75198Y13084D01*
X-75404Y12981D01*
X-76122Y12263D01*
X-76327Y12161D01*
X-77250Y11238D01*
X-77455Y11135D01*
X-77608Y10981D01*
X-77711Y10776D01*
X-78173Y10315D01*
X-78378Y10212D01*
X-79096Y9494D01*
X-79454Y9238D01*
X-79557Y9033D01*
X-79711Y8879D01*
X-79916Y8777D01*
X-80583Y8110D01*
X-80685Y7905D01*
X-80941Y7648D01*
X-81403Y7084D01*
X-81506Y6879D01*
X-82018Y6161D01*
X-82429Y5444D01*
X-82582Y5290D01*
X-83300Y4162D01*
X-83710Y3546D01*
X-84736Y1495D01*
X-84890Y931D01*
X-85351Y-146D01*
X-85608Y-812D01*
X-85813Y-1633D01*
X-86069Y-2504D01*
X-86428Y-3479D01*
X-86531Y-3786D01*
X-86633Y-4812D01*
X-86736Y-5222D01*
X-86838Y-5940D01*
X-86941Y-6350D01*
X-87146Y-7581D01*
X-87248Y-7888D01*
X-87351Y-9222D01*
X-87454Y-9529D01*
X-87556Y-12811D01*
X-87454Y-13221D01*
X-87146Y-14247D01*
X-86941Y-14759D01*
X-86069Y-16657D01*
X-85813Y-17323D01*
X-85608Y-17836D01*
X-85197Y-18451D01*
X-84685Y-19374D01*
X-83967Y-20297D01*
X-83864Y-20502D01*
X-83710Y-20656D01*
X-83249Y-21220D01*
X-82941Y-21733D01*
X-82787Y-21887D01*
X-82582Y-21989D01*
X-82429Y-22246D01*
X-82326Y-22451D01*
X-80788Y-23989D01*
X-79506Y-24964D01*
X-78788Y-25476D01*
X-78583Y-25579D01*
X-77968Y-26194D01*
X-77762Y-26297D01*
X-77455Y-26604D01*
X-77250Y-26707D01*
X-77045Y-26912D01*
X-76327Y-27322D01*
X-75916Y-27732D01*
X-75711Y-27835D01*
X-75096Y-28245D01*
X-74891Y-28348D01*
X-74686Y-28553D01*
X-74481Y-28655D01*
X-73148Y-29578D01*
X-72276Y-30040D01*
X-71712Y-30501D01*
X-70994Y-30912D01*
X-70789Y-31014D01*
X-70584Y-31219D01*
X-69456Y-31834D01*
X-68738Y-32245D01*
X-67251Y-32911D01*
X-66635Y-33219D01*
X-66225Y-33321D01*
X-65661Y-33475D01*
X-64328Y-33988D01*
X-63507Y-34193D01*
X-62021Y-34860D01*
X-61046Y-35219D01*
X-60482Y-35475D01*
X-59969Y-35680D01*
X-59303Y-35937D01*
X-58431Y-36296D01*
X-57765Y-36552D01*
X-56534Y-36860D01*
X-55201Y-37475D01*
X-54380Y-37577D01*
X-53970Y-37680D01*
X-53252Y-37783D01*
X-52534Y-38090D01*
X-51560Y-38449D01*
X-51150Y-38552D01*
X-50124Y-38757D01*
X-49509Y-38859D01*
X-48484Y-38962D01*
X-48073Y-39065D01*
X-47561Y-39167D01*
X-46125Y-39270D01*
X-44792Y-39475D01*
X-43612Y-39629D01*
X-42587Y-39936D01*
X-42023Y-40090D01*
X-41048Y-40244D01*
X-40741Y-40346D01*
X-33767Y-40449D01*
X-33357Y-40552D01*
X-32639Y-40654D01*
X-32229Y-40757D01*
X-31357Y-41013D01*
X-30178Y-41269D01*
X-29357Y-41474D01*
X-29050Y-41577D01*
X-28229Y-41680D01*
X-27922Y-41782D01*
X-26076Y-41885D01*
X-25768Y-41782D01*
X-23512Y-41680D01*
X-23102Y-41577D01*
X-22845Y-41321D01*
X-22743Y-40910D01*
X-23358Y-39577D01*
X-23768Y-38859D01*
X-23871Y-37526D01*
X-24076Y-36808D01*
X-24537Y-36552D01*
X-25358Y-36347D01*
X-26076Y-36142D01*
X-27153Y-35578D01*
X-27255Y-35373D01*
X-27768Y-34860D01*
X-28178Y-34142D01*
X-28742Y-32860D01*
X-29152Y-31834D01*
X-29409Y-31168D01*
X-29614Y-30655D01*
X-29716Y-29732D01*
X-29614Y-29014D01*
X-29409Y-28502D01*
X-28947Y-28143D01*
X-27614Y-28040D01*
X-26896Y-28245D01*
X-26640Y-28502D01*
X-26024Y-29630D01*
X-25922Y-29835D01*
X-25717Y-30347D01*
X-24896Y-32091D01*
X-24230Y-32757D01*
X-24025Y-32860D01*
X-23819Y-33065D01*
X-22486Y-33168D01*
X-21974Y-32963D01*
X-21769Y-32860D01*
X-20948Y-32347D01*
X-20743Y-32245D01*
X-19666Y-31168D01*
X-19564Y-30963D01*
X-19256Y-30655D01*
X-19153Y-30450D01*
X-18846Y-30142D01*
X-18743Y-29937D01*
X-18025Y-29219D01*
X-17923Y-29014D01*
X-17769Y-28963D01*
X-17256Y-28450D01*
X-17051Y-28348D01*
X-16846Y-28143D01*
X-15205Y-28040D01*
X-14641Y-28296D01*
X-13923Y-29630D01*
X-13410Y-30553D01*
X-13052Y-30912D01*
X-12846Y-31014D01*
X-12641Y-31219D01*
X-11308Y-31937D01*
X-11154Y-32091D01*
X-10180Y-32450D01*
X-9462Y-32655D01*
X-8949Y-32860D01*
X-7001Y-32963D01*
X-6180Y-33168D01*
X-5873Y-33270D01*
X-4847Y-33373D01*
X-3719Y-32655D01*
X-3514Y-32552D01*
X-3309Y-32347D01*
X-3104Y-32245D01*
X-2642Y-31783D01*
X-1925Y-30860D01*
X-1822Y-30655D01*
X-1617Y-30450D01*
X-1001Y-29322D01*
X-899Y-29117D01*
X-489Y-28194D01*
X-386Y-27989D01*
X75Y-27630D01*
X1203Y-27527D01*
X1921Y-27732D01*
X2280Y-28194D01*
X2383Y-30655D01*
X2280Y-31373D01*
X2075Y-31886D01*
X1972Y-32091D01*
X1819Y-32245D01*
X1203Y-33270D01*
X229Y-34552D01*
X-335Y-35014D01*
X-1258Y-35731D01*
X-1463Y-35834D01*
X-2745Y-36501D01*
X-3411Y-36655D01*
X-3719Y-36757D01*
X-4847Y-36860D01*
X-5257Y-36962D01*
X-5411Y-37116D01*
X-6180Y-38500D01*
X-6437Y-39167D01*
X-7565Y-41526D01*
X-7667Y-41731D01*
X-7975Y-42038D01*
X-8385Y-42756D01*
X-8488Y-43372D01*
X-8334Y-43526D01*
X-6385Y-43628D01*
X-5668Y-43731D01*
X-4642Y-43833D01*
X-4540D01*
X-3617Y-43936D01*
X-2386Y-44141D01*
X-1873Y-44346D01*
X-130Y-44448D01*
X588Y-44654D01*
X998Y-45064D01*
X2126Y-45679D01*
X6946Y-45782D01*
X7254Y-45679D01*
X22022Y-45577D01*
X22740Y-45474D01*
X24124Y-45320D01*
X24534Y-45218D01*
X25047Y-45115D01*
X25457Y-45012D01*
X26124Y-44859D01*
X26534Y-44756D01*
X27252Y-44654D01*
X28482Y-44448D01*
X29303Y-44243D01*
X29867Y-44090D01*
X30277Y-43987D01*
X31508Y-43782D01*
X32482Y-43628D01*
X33302Y-43423D01*
X34328Y-43115D01*
X35046Y-42910D01*
X35866Y-42705D01*
X37046Y-42346D01*
X37558Y-42141D01*
X39199Y-41731D01*
X40225Y-41321D01*
X40789Y-41167D01*
X41609Y-40962D01*
X42173Y-40808D01*
X43148Y-40449D01*
X44378Y-40141D01*
X45250Y-39885D01*
X45916Y-39629D01*
X46327Y-39526D01*
X47762Y-39116D01*
X48327Y-38962D01*
X48839Y-38757D01*
X50019Y-38500D01*
X50839Y-38295D01*
X51403Y-38039D01*
X51916Y-37834D01*
X52582Y-37680D01*
X52993Y-37577D01*
X53864Y-37321D01*
X54377Y-37116D01*
X55351Y-36757D01*
X56633Y-36193D01*
X58531Y-35526D01*
X59095Y-35270D01*
X59761Y-35014D01*
X61043Y-34450D01*
X62017Y-34091D01*
X63145Y-33578D01*
X65402Y-32347D01*
X65914Y-32142D01*
X66119Y-31937D01*
X67248Y-31322D01*
X67453Y-31219D01*
X67658Y-31014D01*
X68376Y-30604D01*
X68786Y-30194D01*
X68991Y-30091D01*
X69299Y-29783D01*
X69504Y-29681D01*
X70222Y-28963D01*
X70427Y-28860D01*
X71811Y-27476D01*
X71914Y-27271D01*
X72426Y-26553D01*
X73042Y-25425D01*
X73452Y-24810D01*
X73965Y-23374D01*
X74477Y-22246D01*
X74785Y-21015D01*
X75144Y-19836D01*
X75298Y-19169D01*
X75401Y-18862D01*
X75503Y-16913D01*
X75606Y-16605D01*
X75708Y-13119D01*
X75503Y-11683D01*
X75298Y-9940D01*
X75195Y-9529D01*
X75041Y-8965D01*
X74939Y-8555D01*
X74785Y-7991D01*
X74683Y-7581D01*
X74477Y-6863D01*
X74118Y-5991D01*
X73913Y-5478D01*
X73760Y-4812D01*
X73555Y-4299D01*
X73452Y-3889D01*
X72939Y-3068D01*
X72837Y-2658D01*
X72426Y-2043D01*
X71914Y-1120D01*
X71708Y-915D01*
X71606Y-710D01*
X71452Y-556D01*
X70991Y8D01*
X70888Y213D01*
X70273Y829D01*
X70170Y1034D01*
X69709Y1495D01*
X69504Y1598D01*
X68888Y2213D01*
X68683Y2316D01*
X68478Y2521D01*
X68273Y2623D01*
X68119Y2777D01*
X67555Y3239D01*
X67350Y3341D01*
X67145Y3546D01*
X66940Y3649D01*
X66581Y4008D01*
X65966Y4418D01*
X64684Y5392D01*
X63761Y6110D01*
X63556Y6213D01*
X63402Y6367D01*
X62838Y6828D01*
X62633Y6931D01*
X62120Y7443D01*
X61915Y7546D01*
X61710Y7751D01*
X61505Y7854D01*
X61094Y8264D01*
X60889Y8366D01*
X60171Y8879D01*
X59966Y8982D01*
X59761Y9187D01*
X57197Y10520D01*
X55864Y11238D01*
X55249Y11648D01*
X52890Y12879D01*
X51967Y13289D01*
X51044Y13801D01*
X50326Y14109D01*
X50121Y14212D01*
X49967Y14366D01*
X49147Y14673D01*
X48583Y14827D01*
X48070Y15032D01*
X47147Y15442D01*
X46429Y15647D01*
X44942Y16314D01*
X44378Y16468D01*
X43096Y17032D01*
X42122Y17391D01*
X40943Y17955D01*
X39968Y18314D01*
X39097Y18673D01*
X38584Y18878D01*
X37302Y19339D01*
X36430Y19698D01*
X36020Y19801D01*
X35354Y19955D01*
X34943Y20057D01*
X34072Y20416D01*
X33559Y20621D01*
X32380Y20878D01*
X31969Y20980D01*
X31405Y21134D01*
X30893Y21339D01*
X30123Y21493D01*
X29713Y21596D01*
X27457Y22006D01*
X26893Y22160D01*
X25919Y22519D01*
X25201Y22724D01*
X24944Y22980D01*
X24842Y23185D01*
X24688Y23339D01*
X24380Y24159D01*
X24227Y24826D01*
X23919Y26569D01*
X23714Y27390D01*
X23457Y28261D01*
X23355Y28774D01*
X23098Y30364D01*
X22996Y30774D01*
X22740Y31646D01*
X22534Y32159D01*
X22381Y32825D01*
X22278Y33235D01*
X22175Y33953D01*
X21919Y34825D01*
X21611Y35645D01*
X21458Y36312D01*
X21355Y36722D01*
X21099Y37594D01*
X20791Y38414D01*
X20535Y39594D01*
X20432Y40004D01*
X20176Y40876D01*
X19971Y41388D01*
X19868Y41799D01*
X19612Y42978D01*
X19201Y44619D01*
X18996Y45337D01*
X18791Y46157D01*
X18484Y47182D01*
X18227Y47849D01*
X18125Y48259D01*
X18022Y48772D01*
X17817Y50003D01*
X17714Y50413D01*
X17304Y51438D01*
X17202Y51849D01*
X17048Y52515D01*
X16843Y53336D01*
X16535Y54054D01*
X16330Y54566D01*
X16227Y54977D01*
X15663Y56259D01*
X15407Y56925D01*
X15202Y57643D01*
X14638Y58822D01*
X14382Y59899D01*
X13817Y61079D01*
X13664Y61642D01*
X12023Y65027D01*
X11510Y66155D01*
X11305Y66360D01*
X11202Y66565D01*
X10946Y66821D01*
X10433Y66924D01*
X9920Y66719D01*
X9613Y66411D01*
X9408Y66309D01*
X8331Y65232D01*
X8228Y65027D01*
X7818Y64616D01*
X7715Y64411D01*
X7510Y64206D01*
X7408Y64001D01*
X6998Y63591D01*
X6895Y63386D01*
X6587Y63078D01*
X6485Y62873D01*
X6280Y62668D01*
X6177Y62463D01*
X5972Y62258D01*
X5459Y61335D01*
X5357Y61130D01*
X5152Y60925D01*
X4536Y59797D01*
X4331Y59591D01*
X3921Y58874D01*
X3203Y57540D01*
X2793Y56925D01*
X2075Y55592D01*
X1870Y55387D01*
X1460Y54669D01*
X947Y53951D01*
X434Y53028D01*
X-78Y52310D01*
X-591Y51387D01*
X-1514Y49644D01*
X-2027Y48721D01*
X-2489Y47952D01*
X-3617Y45696D01*
X-3873Y45029D01*
X-4335Y43952D01*
X-4642Y43132D01*
X-4796Y42568D01*
X-5206Y41952D01*
X-5924Y40619D01*
X-6539Y39491D01*
X-6950Y38876D01*
X-7360Y38158D01*
X-7462Y37953D01*
X-7975Y37235D01*
X-8078Y37030D01*
X-8488Y36414D01*
X-8795Y35902D01*
X-9001Y35697D01*
X-9103Y35491D01*
X-9308Y35286D01*
X-9411Y35081D01*
X-9565Y34927D01*
X-10026Y34363D01*
X-10129Y34158D01*
X-10436Y33851D01*
X-10744Y33338D01*
X-10949Y33133D01*
X-11052Y32928D01*
X-11206Y32774D01*
X-11667Y32210D01*
X-11769Y32005D01*
X-12487Y31287D01*
X-12590Y31082D01*
X-12898Y30774D01*
X-13000Y30569D01*
X-13513Y30056D01*
X-13615Y29851D01*
X-14128Y29338D01*
X-14231Y29133D01*
X-15051Y28313D01*
X-15154Y28108D01*
X-15872Y27390D01*
X-16128Y27031D01*
X-16333Y26928D01*
X-17154Y26108D01*
X-17359Y26005D01*
X-17615Y25749D01*
X-17718Y25544D01*
X-18025Y25236D01*
X-18589Y24775D01*
X-20025Y24672D01*
X-20845Y24877D01*
X-21256Y25595D01*
X-21358Y26210D01*
X-21461Y27441D01*
X-21666Y28261D01*
X-21769Y29082D01*
X-21871Y29595D01*
X-21974Y30210D01*
X-22076Y30620D01*
X-22281Y31646D01*
X-22384Y32056D01*
X-22538Y32620D01*
X-22743Y33133D01*
X-23153Y34774D01*
X-23358Y35491D01*
X-23512Y36056D01*
X-23768Y37132D01*
X-24076Y38363D01*
X-24486Y39286D01*
X-24691Y40004D01*
X-24896Y40824D01*
X-25204Y41542D01*
X-25512Y42363D01*
X-25614Y42773D01*
X-25819Y43491D01*
X-26076Y44157D01*
X-26435Y45132D01*
X-26537Y45542D01*
X-26742Y46260D01*
X-26999Y46824D01*
X-27358Y47798D01*
X-27665Y48823D01*
X-27819Y48977D01*
X-28281Y50259D01*
X-29614Y53028D01*
X-31049Y55694D01*
X-31152Y55900D01*
X-31357Y56105D01*
X-32075Y57438D01*
X-32690Y58566D01*
X-33101Y59181D01*
X-33511Y59899D01*
X-34024Y60617D01*
X-34536Y61540D01*
X-34741Y61745D01*
X-34844Y61950D01*
X-35357Y62668D01*
X-35459Y62873D01*
X-35767Y63181D01*
X-35870Y63386D01*
X-36075Y63591D01*
X-36177Y63796D01*
X-36690Y64309D01*
X-36793Y64514D01*
X-36998Y64719D01*
X-37100Y64924D01*
X-37254Y65078D01*
X-37613Y65334D01*
X-37715Y65539D01*
X-38280Y66104D01*
X-38485Y66206D01*
X-38638Y66360D01*
X-39202Y66821D01*
X-39408Y66924D01*
X-39613Y67129D01*
X-40125Y67232D01*
D02*
G37*
G36*
X-43099Y-59729D02*
X-43612D01*
X-44945Y-60242D01*
X-45663Y-60549D01*
X-46996Y-61267D01*
X-47304Y-61575D01*
X-47509Y-61677D01*
X-47817Y-61985D01*
X-48278Y-62549D01*
X-48894Y-63677D01*
X-48996Y-64600D01*
X-48689Y-65318D01*
X-48586Y-65523D01*
X-48022Y-66087D01*
X-47304Y-66497D01*
X-46791Y-66702D01*
X-45817Y-66651D01*
X-45253Y-66497D01*
X-44997Y-66241D01*
X-44740Y-65882D01*
X-44330Y-64857D01*
X-43920Y-63728D01*
X-43766Y-63164D01*
X-43151Y-61831D01*
X-43048Y-61421D01*
X-42843Y-60908D01*
X-42741Y-60088D01*
X-43048Y-59780D01*
X-43099Y-59729D01*
D02*
G37*
G36*
X6639Y-61780D02*
X6229Y-61883D01*
X5972Y-62344D01*
X6126Y-63113D01*
X6331Y-64344D01*
X6434Y-64857D01*
X6587Y-65933D01*
X6690Y-66959D01*
X6895Y-68190D01*
X7100Y-68702D01*
X7613Y-69010D01*
X7664Y-69061D01*
X7972D01*
X8690Y-68959D01*
X9408Y-68753D01*
X10741Y-68343D01*
X11151Y-68241D01*
X11869Y-67933D01*
X12074Y-67831D01*
X12279Y-67625D01*
X12433Y-67061D01*
X11920Y-65933D01*
X11715Y-65728D01*
X11612Y-65523D01*
X11100Y-65010D01*
X10997Y-64805D01*
X10177Y-63985D01*
X10074Y-63780D01*
X9869Y-63575D01*
X9305Y-63113D01*
X8792Y-62806D01*
X8074Y-62293D01*
X7357Y-61883D01*
X6639Y-61780D01*
D02*
G37*
G36*
X-33459Y-75009D02*
X-34177Y-75112D01*
X-34588Y-75522D01*
X-35613Y-77265D01*
X-35716Y-77676D01*
X-35664Y-78137D01*
X-35152Y-79265D01*
X-34844Y-79573D01*
X-34741Y-79778D01*
X-34434Y-80086D01*
X-34331Y-80291D01*
X-34126Y-80496D01*
X-34024Y-80701D01*
X-33972Y-80752D01*
X-33357Y-81368D01*
X-33152Y-81470D01*
X-32947Y-81675D01*
X-31614Y-82393D01*
X-30896Y-82496D01*
X-29562Y-82085D01*
X-29050Y-81880D01*
X-28845Y-81675D01*
X-28640Y-81573D01*
X-27973Y-80906D01*
X-27870Y-80701D01*
X-27665Y-80496D01*
X-26742Y-78752D01*
X-26537Y-78240D01*
X-26127Y-76906D01*
X-26024Y-76599D01*
X-26230Y-76086D01*
X-26794Y-75625D01*
X-28229Y-75522D01*
X-28537Y-75420D01*
X-29562Y-75317D01*
X-29870Y-75214D01*
X-30075Y-75317D01*
X-30229Y-75266D01*
X-31870Y-75163D01*
X-33459Y-75009D01*
D02*
G37*
G36*
X-12744Y-75522D02*
X-13462Y-75625D01*
X-13923Y-75778D01*
X-14231Y-76291D01*
X-14128Y-77009D01*
X-13872Y-77881D01*
X-13615Y-78547D01*
X-13513Y-78958D01*
X-13308Y-79470D01*
X-12795Y-80188D01*
X-12385Y-80906D01*
X-12282Y-81111D01*
X-11308Y-82085D01*
X-11103Y-82188D01*
X-10898Y-82393D01*
X-9975Y-83111D01*
X-9616Y-83367D01*
X-9052Y-83829D01*
X-8847Y-83931D01*
X-8539Y-84239D01*
X-8334Y-84342D01*
X-8129Y-84547D01*
X-7411Y-84957D01*
X-6796Y-85367D01*
X-6385Y-85470D01*
X-6078Y-85572D01*
X-5257Y-85470D01*
X-4950Y-85367D01*
X-4745Y-85265D01*
X-4437Y-84957D01*
X-4232Y-84854D01*
X-3873Y-84495D01*
X-3770Y-84290D01*
X-3258Y-83572D01*
X-2796Y-82598D01*
X-2591Y-82085D01*
X-2335Y-81419D01*
X-2232Y-81111D01*
Y-81009D01*
X-2130Y-79573D01*
X-2232Y-77932D01*
X-2335Y-77522D01*
X-2642Y-76496D01*
X-2796Y-76342D01*
X-3514Y-75932D01*
X-4232Y-75625D01*
X-12744Y-75522D01*
D02*
G37*
%LPD*%
G36*
X-61354Y-9888D02*
X-60431Y-10298D01*
X-59713Y-10709D01*
X-58944Y-11478D01*
X-58841Y-11683D01*
X-58329Y-12401D01*
X-57970Y-12965D01*
X-57713Y-13631D01*
X-57252Y-14401D01*
X-57047Y-14913D01*
X-56893Y-15580D01*
X-56688Y-16298D01*
X-56329Y-17169D01*
X-56072Y-18246D01*
X-55970Y-18657D01*
X-55867Y-19682D01*
X-55765Y-19990D01*
X-55662Y-23989D01*
X-55765Y-24707D01*
Y-24810D01*
X-55867Y-25528D01*
X-56072Y-26040D01*
X-56175Y-26451D01*
X-56893Y-27476D01*
X-56995Y-27681D01*
X-57559Y-28245D01*
X-59200Y-29476D01*
X-60533Y-30194D01*
X-61046Y-30399D01*
X-62379Y-30501D01*
X-62687Y-30604D01*
X-64943Y-30706D01*
X-66276Y-30604D01*
X-67097Y-30399D01*
X-68430Y-29783D01*
X-69661Y-28963D01*
X-69866Y-28860D01*
X-70276Y-28450D01*
X-70481Y-28348D01*
X-71558Y-27271D01*
X-71660Y-27066D01*
X-72071Y-26655D01*
X-72173Y-26451D01*
X-72327Y-26399D01*
X-72686Y-25938D01*
X-72789Y-25733D01*
X-73404Y-25117D01*
X-73506Y-24912D01*
X-74019Y-24194D01*
X-74378Y-23425D01*
X-74481Y-23015D01*
X-74634Y-22246D01*
X-74737Y-21836D01*
X-74840Y-21528D01*
X-74942Y-17734D01*
X-74737Y-17016D01*
X-74224Y-15888D01*
X-74122Y-15682D01*
X-73917Y-15477D01*
X-73814Y-15272D01*
X-72686Y-14144D01*
X-72430Y-13785D01*
X-72224Y-13683D01*
X-71199Y-12657D01*
X-70686Y-12349D01*
X-70071Y-11939D01*
X-68943Y-11324D01*
X-68122Y-10811D01*
X-67917Y-10709D01*
X-67199Y-10401D01*
X-66071Y-9888D01*
X-62379Y-9786D01*
X-61354Y-9888D01*
D02*
G37*
G36*
X49813Y-8760D02*
X50224Y-8863D01*
X50942Y-8965D01*
X52685Y-9786D01*
X52890Y-9888D01*
X53505Y-10503D01*
X53710Y-10606D01*
X54787Y-11683D01*
X55505Y-12606D01*
X56018Y-13529D01*
X56121Y-13734D01*
X56992Y-15323D01*
X57095Y-15734D01*
X57351Y-16913D01*
X57454Y-17323D01*
X57556Y-17631D01*
X57659Y-24707D01*
X57454Y-25528D01*
X57146Y-26655D01*
X56018Y-29014D01*
X55915Y-29219D01*
X55710Y-29425D01*
X55608Y-29630D01*
X55403Y-29835D01*
X55300Y-30040D01*
X54172Y-31168D01*
X53352Y-31681D01*
X52736Y-32091D01*
X52070Y-32347D01*
X51352Y-32552D01*
X50531Y-32757D01*
X49198Y-33168D01*
X48891Y-33270D01*
X47455Y-33373D01*
X46737Y-33475D01*
X46429Y-33578D01*
X44891Y-33681D01*
X44378D01*
X43353Y-33578D01*
X42942Y-33475D01*
X41814Y-32963D01*
X41609Y-32860D01*
X40891Y-32347D01*
X40686Y-32245D01*
X40276Y-31834D01*
X40071Y-31732D01*
X38379Y-30040D01*
X37661Y-29117D01*
X37046Y-27989D01*
X36841Y-27476D01*
X36635Y-27271D01*
X35507Y-25117D01*
X35097Y-24194D01*
X34790Y-23476D01*
X34584Y-22964D01*
X34482Y-16708D01*
X34584Y-15990D01*
X34790Y-15272D01*
X35097Y-14554D01*
X35302Y-14042D01*
X35712Y-13426D01*
X35815Y-13221D01*
X36020Y-13016D01*
X36123Y-12811D01*
X37046Y-11888D01*
X38328Y-10914D01*
X40276Y-9888D01*
X40789Y-9683D01*
X41199Y-9581D01*
X41763Y-9427D01*
X42583Y-9119D01*
X42994Y-9016D01*
X44071Y-8863D01*
X44378Y-8760D01*
X48788Y-8658D01*
X49813Y-8760D01*
D02*
G37*
D10*
X-264550Y104100D02*
X-250000D01*
X-264550Y-158400D02*
Y104100D01*
Y-158400D02*
X-237300D01*
Y88900D01*
X235450Y104100D02*
X250000D01*
X235450Y-158400D02*
Y104100D01*
Y-158400D02*
X262700D01*
Y88900D01*
M02*
