G04*
G04 #@! TF.GenerationSoftware,Altium Limited,Altium Designer,24.8.2 (39)*
G04*
G04 Layer_Color=8421504*
%FSLAX44Y44*%
%MOMM*%
G71*
G04*
G04 #@! TF.SameCoordinates,D705C54D-982C-4BB1-A353-505B4E6A0F35*
G04*
G04*
G04 #@! TF.FilePolarity,Positive*
G04*
G01*
G75*
%ADD13R,1.0000X0.9000*%
D13*
X-704800Y300000D02*
D03*
Y285000D02*
D03*
X-950000Y-212500D02*
D03*
Y-197500D02*
D03*
X-975188Y-212500D02*
D03*
Y-197500D02*
D03*
X-1000588Y-212500D02*
D03*
Y-197500D02*
D03*
X-1025988Y-212500D02*
D03*
Y-197500D02*
D03*
X-1051388Y-212500D02*
D03*
Y-197500D02*
D03*
X-1076788Y-212500D02*
D03*
Y-197500D02*
D03*
X-1102188Y-212500D02*
D03*
Y-197500D02*
D03*
X-1127588Y-212500D02*
D03*
Y-197500D02*
D03*
X-1152988Y-212500D02*
D03*
Y-197500D02*
D03*
X-1178388Y-212500D02*
D03*
Y-197500D02*
D03*
X-1203788Y-212500D02*
D03*
Y-197500D02*
D03*
X-1229668Y-212500D02*
D03*
Y-197500D02*
D03*
X-1254588Y-212500D02*
D03*
Y-197500D02*
D03*
X-950000Y212500D02*
D03*
Y197500D02*
D03*
X-975400Y212500D02*
D03*
Y197500D02*
D03*
X-1000800Y212500D02*
D03*
Y197500D02*
D03*
X-1026200Y212500D02*
D03*
Y197500D02*
D03*
X-1051600Y212500D02*
D03*
Y197500D02*
D03*
X-1077000Y212500D02*
D03*
Y197500D02*
D03*
X-1102400Y212500D02*
D03*
Y197500D02*
D03*
X-1127800Y212500D02*
D03*
Y197500D02*
D03*
X-1153200Y212500D02*
D03*
Y197500D02*
D03*
X-1178600Y212500D02*
D03*
Y197500D02*
D03*
X-1204000Y212500D02*
D03*
Y197500D02*
D03*
X-1229400Y212500D02*
D03*
Y197500D02*
D03*
X-1254800Y212500D02*
D03*
Y197500D02*
D03*
X-400000Y-212500D02*
D03*
Y-197500D02*
D03*
X-425400Y-212500D02*
D03*
Y-197500D02*
D03*
X-450800Y-212500D02*
D03*
Y-197500D02*
D03*
X-476200Y-212500D02*
D03*
Y-197500D02*
D03*
X-501600Y-212500D02*
D03*
Y-197500D02*
D03*
X-527000Y-212500D02*
D03*
Y-197500D02*
D03*
X-552400Y-212500D02*
D03*
Y-197500D02*
D03*
X-577800Y-212500D02*
D03*
Y-197500D02*
D03*
X-603200Y-212500D02*
D03*
Y-197500D02*
D03*
X-628600Y-212500D02*
D03*
Y-197500D02*
D03*
X-654000Y-212500D02*
D03*
Y-197500D02*
D03*
X-679400Y-212500D02*
D03*
Y-197500D02*
D03*
X-704800Y-212500D02*
D03*
Y-197500D02*
D03*
X-400000Y212500D02*
D03*
Y197500D02*
D03*
X-425400Y212500D02*
D03*
Y197500D02*
D03*
X-450800Y212500D02*
D03*
Y197500D02*
D03*
X-476200Y212500D02*
D03*
Y197500D02*
D03*
X-501600Y212500D02*
D03*
Y197500D02*
D03*
X-527000Y212500D02*
D03*
Y197500D02*
D03*
X-552400Y212500D02*
D03*
Y197500D02*
D03*
X-577800Y212500D02*
D03*
Y197500D02*
D03*
X-603200Y212500D02*
D03*
Y197500D02*
D03*
X-628600Y212500D02*
D03*
Y197500D02*
D03*
X-654000Y212500D02*
D03*
Y197500D02*
D03*
X-679400Y212500D02*
D03*
Y197500D02*
D03*
X-704800Y212500D02*
D03*
Y197500D02*
D03*
X-950000Y-300000D02*
D03*
Y-285000D02*
D03*
X-975188Y-300000D02*
D03*
Y-285000D02*
D03*
X-1000588Y-300000D02*
D03*
Y-285000D02*
D03*
X-1025988Y-300000D02*
D03*
Y-285000D02*
D03*
X-1051388Y-300000D02*
D03*
Y-285000D02*
D03*
X-1076788Y-300000D02*
D03*
Y-285000D02*
D03*
X-1102188Y-300000D02*
D03*
Y-285000D02*
D03*
X-1127588Y-300000D02*
D03*
Y-285000D02*
D03*
X-1152988Y-300000D02*
D03*
Y-285000D02*
D03*
X-1178388Y-300000D02*
D03*
Y-285000D02*
D03*
X-1203788Y-300000D02*
D03*
Y-285000D02*
D03*
X-1229668Y-300000D02*
D03*
Y-285000D02*
D03*
X-1254588Y-300000D02*
D03*
Y-285000D02*
D03*
X-950000Y300000D02*
D03*
Y285000D02*
D03*
X-975400Y300000D02*
D03*
Y285000D02*
D03*
X-1000800Y300000D02*
D03*
Y285000D02*
D03*
X-1026200Y300000D02*
D03*
Y285000D02*
D03*
X-1051600Y300000D02*
D03*
Y285000D02*
D03*
X-1077000Y300000D02*
D03*
Y285000D02*
D03*
X-1102400Y300000D02*
D03*
Y285000D02*
D03*
X-1127800Y300000D02*
D03*
Y285000D02*
D03*
X-1153200Y300000D02*
D03*
Y285000D02*
D03*
X-1178600Y300000D02*
D03*
Y285000D02*
D03*
X-1204000Y300000D02*
D03*
Y285000D02*
D03*
X-1229400Y300000D02*
D03*
Y285000D02*
D03*
X-1254800Y300000D02*
D03*
Y285000D02*
D03*
X-400000Y-300000D02*
D03*
Y-285000D02*
D03*
X-425400Y-300000D02*
D03*
Y-285000D02*
D03*
X-450800Y-300000D02*
D03*
Y-285000D02*
D03*
X-476200Y-300000D02*
D03*
Y-285000D02*
D03*
X-501600Y-300000D02*
D03*
Y-285000D02*
D03*
X-527000Y-300000D02*
D03*
Y-285000D02*
D03*
X-552400Y-300000D02*
D03*
Y-285000D02*
D03*
X-577800Y-300000D02*
D03*
Y-285000D02*
D03*
X-603200Y-300000D02*
D03*
Y-285000D02*
D03*
X-628600Y-300000D02*
D03*
Y-285000D02*
D03*
X-654000Y-300000D02*
D03*
Y-285000D02*
D03*
X-679400Y-300000D02*
D03*
Y-285000D02*
D03*
X-704800Y-300000D02*
D03*
Y-285000D02*
D03*
X-400000Y300000D02*
D03*
Y285000D02*
D03*
X-425400Y300000D02*
D03*
Y285000D02*
D03*
X-450800Y300000D02*
D03*
Y285000D02*
D03*
X-476200Y300000D02*
D03*
Y285000D02*
D03*
X-501600Y300000D02*
D03*
Y285000D02*
D03*
X-527000Y300000D02*
D03*
Y285000D02*
D03*
X-552400Y300000D02*
D03*
Y285000D02*
D03*
X-577800Y300000D02*
D03*
Y285000D02*
D03*
X-603200Y300000D02*
D03*
Y285000D02*
D03*
X-628600Y300000D02*
D03*
Y285000D02*
D03*
X-654000Y300000D02*
D03*
Y285000D02*
D03*
X-679400Y300000D02*
D03*
Y285000D02*
D03*
M02*
