G04*
G04 #@! TF.GenerationSoftware,Altium Limited,Altium Designer,24.8.2 (39)*
G04*
G04 Layer_Physical_Order=3*
G04 Layer_Color=16440176*
%FSLAX44Y44*%
%MOMM*%
G71*
G04*
G04 #@! TF.SameCoordinates,D705C54D-982C-4BB1-A353-505B4E6A0F35*
G04*
G04*
G04 #@! TF.FilePolarity,Positive*
G04*
G01*
G75*
%ADD20R,1.6500X1.6500*%
%ADD21C,1.6500*%
%ADD22R,1.6500X1.6500*%
%ADD23C,5.5000*%
%ADD24C,1.0160*%
G36*
X-130000Y342500D02*
X-102500Y315000D01*
Y-310000D01*
X-139939Y-347439D01*
X-1349920Y-340080D01*
X-1392500Y-297500D01*
Y315000D01*
X-1359978Y347523D01*
X-130000Y342500D01*
D02*
G37*
%LPC*%
G36*
X-168997Y330120D02*
X-171003D01*
X-171302Y330040D01*
X-172364D01*
X-177034Y329300D01*
X-181531Y327839D01*
X-185744Y325692D01*
X-189570Y322913D01*
X-192913Y319570D01*
X-195693Y315744D01*
X-197839Y311531D01*
X-199300Y307034D01*
X-200040Y302364D01*
Y301302D01*
X-200120Y301003D01*
Y298997D01*
X-200040Y298698D01*
Y297636D01*
X-199300Y292966D01*
X-197839Y288469D01*
X-195693Y284256D01*
X-192913Y280430D01*
X-189570Y277087D01*
X-185744Y274307D01*
X-181531Y272161D01*
X-177034Y270700D01*
X-172364Y269960D01*
X-171302D01*
X-171003Y269880D01*
X-168997D01*
X-168698Y269960D01*
X-167636D01*
X-162966Y270700D01*
X-158469Y272161D01*
X-154256Y274307D01*
X-150430Y277087D01*
X-147087Y280430D01*
X-144307Y284256D01*
X-142161Y288469D01*
X-140700Y292966D01*
X-139960Y297636D01*
Y298698D01*
X-139880Y298997D01*
Y301003D01*
X-139960Y301302D01*
Y302364D01*
X-140700Y307034D01*
X-142161Y311531D01*
X-144307Y315744D01*
X-147087Y319570D01*
X-150430Y322913D01*
X-154256Y325692D01*
X-158469Y327839D01*
X-162966Y329300D01*
X-167636Y330040D01*
X-168698D01*
X-168997Y330120D01*
D02*
G37*
G36*
X-389210Y260790D02*
X-410790D01*
Y239210D01*
X-389210D01*
Y260790D01*
D02*
G37*
G36*
X-423980D02*
X-426821D01*
X-429565Y260055D01*
X-432025Y258634D01*
X-434034Y256625D01*
X-435455Y254165D01*
X-436190Y251421D01*
Y248580D01*
X-435455Y245835D01*
X-434034Y243375D01*
X-432025Y241366D01*
X-429565Y239945D01*
X-426821Y239210D01*
X-423980D01*
X-421235Y239945D01*
X-418775Y241366D01*
X-416766Y243375D01*
X-415345Y245835D01*
X-414610Y248580D01*
Y251421D01*
X-415345Y254165D01*
X-416766Y256625D01*
X-418775Y258634D01*
X-421235Y260055D01*
X-423980Y260790D01*
D02*
G37*
G36*
X-449380D02*
X-452221D01*
X-454965Y260055D01*
X-457425Y258634D01*
X-459434Y256625D01*
X-460855Y254165D01*
X-461590Y251421D01*
Y248580D01*
X-460855Y245835D01*
X-459434Y243375D01*
X-457425Y241366D01*
X-454965Y239945D01*
X-452221Y239210D01*
X-449380D01*
X-446635Y239945D01*
X-444175Y241366D01*
X-442166Y243375D01*
X-440745Y245835D01*
X-440010Y248580D01*
Y251421D01*
X-440745Y254165D01*
X-442166Y256625D01*
X-444175Y258634D01*
X-446635Y260055D01*
X-449380Y260790D01*
D02*
G37*
G36*
X-474780D02*
X-477621D01*
X-480365Y260055D01*
X-482825Y258634D01*
X-484834Y256625D01*
X-486255Y254165D01*
X-486990Y251421D01*
Y248580D01*
X-486255Y245835D01*
X-484834Y243375D01*
X-482825Y241366D01*
X-480365Y239945D01*
X-477621Y239210D01*
X-474780D01*
X-472035Y239945D01*
X-469575Y241366D01*
X-467566Y243375D01*
X-466145Y245835D01*
X-465410Y248580D01*
Y251421D01*
X-466145Y254165D01*
X-467566Y256625D01*
X-469575Y258634D01*
X-472035Y260055D01*
X-474780Y260790D01*
D02*
G37*
G36*
X-500180D02*
X-503021D01*
X-505765Y260055D01*
X-508225Y258634D01*
X-510234Y256625D01*
X-511655Y254165D01*
X-512390Y251421D01*
Y248580D01*
X-511655Y245835D01*
X-510234Y243375D01*
X-508225Y241366D01*
X-505765Y239945D01*
X-503021Y239210D01*
X-500180D01*
X-497435Y239945D01*
X-494975Y241366D01*
X-492966Y243375D01*
X-491545Y245835D01*
X-490810Y248580D01*
Y251421D01*
X-491545Y254165D01*
X-492966Y256625D01*
X-494975Y258634D01*
X-497435Y260055D01*
X-500180Y260790D01*
D02*
G37*
G36*
X-525580D02*
X-528421D01*
X-531165Y260055D01*
X-533625Y258634D01*
X-535634Y256625D01*
X-537055Y254165D01*
X-537790Y251421D01*
Y248580D01*
X-537055Y245835D01*
X-535634Y243375D01*
X-533625Y241366D01*
X-531165Y239945D01*
X-528421Y239210D01*
X-525580D01*
X-522835Y239945D01*
X-520375Y241366D01*
X-518366Y243375D01*
X-516945Y245835D01*
X-516210Y248580D01*
Y251421D01*
X-516945Y254165D01*
X-518366Y256625D01*
X-520375Y258634D01*
X-522835Y260055D01*
X-525580Y260790D01*
D02*
G37*
G36*
X-550980D02*
X-553821D01*
X-556565Y260055D01*
X-559025Y258634D01*
X-561034Y256625D01*
X-562455Y254165D01*
X-563190Y251421D01*
Y248580D01*
X-562455Y245835D01*
X-561034Y243375D01*
X-559025Y241366D01*
X-556565Y239945D01*
X-553821Y239210D01*
X-550980D01*
X-548235Y239945D01*
X-545775Y241366D01*
X-543766Y243375D01*
X-542345Y245835D01*
X-541610Y248580D01*
Y251421D01*
X-542345Y254165D01*
X-543766Y256625D01*
X-545775Y258634D01*
X-548235Y260055D01*
X-550980Y260790D01*
D02*
G37*
G36*
X-576380D02*
X-579221D01*
X-581965Y260055D01*
X-584425Y258634D01*
X-586434Y256625D01*
X-587855Y254165D01*
X-588590Y251421D01*
Y248580D01*
X-587855Y245835D01*
X-586434Y243375D01*
X-584425Y241366D01*
X-581965Y239945D01*
X-579221Y239210D01*
X-576380D01*
X-573635Y239945D01*
X-571175Y241366D01*
X-569166Y243375D01*
X-567745Y245835D01*
X-567010Y248580D01*
Y251421D01*
X-567745Y254165D01*
X-569166Y256625D01*
X-571175Y258634D01*
X-573635Y260055D01*
X-576380Y260790D01*
D02*
G37*
G36*
X-601780D02*
X-604621D01*
X-607365Y260055D01*
X-609825Y258634D01*
X-611834Y256625D01*
X-613255Y254165D01*
X-613990Y251421D01*
Y248580D01*
X-613255Y245835D01*
X-611834Y243375D01*
X-609825Y241366D01*
X-607365Y239945D01*
X-604621Y239210D01*
X-601780D01*
X-599035Y239945D01*
X-596575Y241366D01*
X-594566Y243375D01*
X-593145Y245835D01*
X-592410Y248580D01*
Y251421D01*
X-593145Y254165D01*
X-594566Y256625D01*
X-596575Y258634D01*
X-599035Y260055D01*
X-601780Y260790D01*
D02*
G37*
G36*
X-627180D02*
X-630021D01*
X-632765Y260055D01*
X-635225Y258634D01*
X-637234Y256625D01*
X-638655Y254165D01*
X-639390Y251421D01*
Y248580D01*
X-638655Y245835D01*
X-637234Y243375D01*
X-635225Y241366D01*
X-632765Y239945D01*
X-630021Y239210D01*
X-627180D01*
X-624435Y239945D01*
X-621975Y241366D01*
X-619966Y243375D01*
X-618545Y245835D01*
X-617810Y248580D01*
Y251421D01*
X-618545Y254165D01*
X-619966Y256625D01*
X-621975Y258634D01*
X-624435Y260055D01*
X-627180Y260790D01*
D02*
G37*
G36*
X-652580D02*
X-655421D01*
X-658165Y260055D01*
X-660625Y258634D01*
X-662634Y256625D01*
X-664055Y254165D01*
X-664790Y251421D01*
Y248580D01*
X-664055Y245835D01*
X-662634Y243375D01*
X-660625Y241366D01*
X-658165Y239945D01*
X-655421Y239210D01*
X-652580D01*
X-649835Y239945D01*
X-647375Y241366D01*
X-645366Y243375D01*
X-643945Y245835D01*
X-643210Y248580D01*
Y251421D01*
X-643945Y254165D01*
X-645366Y256625D01*
X-647375Y258634D01*
X-649835Y260055D01*
X-652580Y260790D01*
D02*
G37*
G36*
X-677980D02*
X-680821D01*
X-683565Y260055D01*
X-686025Y258634D01*
X-688034Y256625D01*
X-689455Y254165D01*
X-690190Y251421D01*
Y248580D01*
X-689455Y245835D01*
X-688034Y243375D01*
X-686025Y241366D01*
X-683565Y239945D01*
X-680821Y239210D01*
X-677980D01*
X-675235Y239945D01*
X-672775Y241366D01*
X-670766Y243375D01*
X-669345Y245835D01*
X-668610Y248580D01*
Y251421D01*
X-669345Y254165D01*
X-670766Y256625D01*
X-672775Y258634D01*
X-675235Y260055D01*
X-677980Y260790D01*
D02*
G37*
G36*
X-703380D02*
X-706221D01*
X-708965Y260055D01*
X-711425Y258634D01*
X-713434Y256625D01*
X-714855Y254165D01*
X-715590Y251421D01*
Y248580D01*
X-714855Y245835D01*
X-713434Y243375D01*
X-711425Y241366D01*
X-708965Y239945D01*
X-706221Y239210D01*
X-703380D01*
X-700635Y239945D01*
X-698175Y241366D01*
X-696166Y243375D01*
X-694745Y245835D01*
X-694010Y248580D01*
Y251421D01*
X-694745Y254165D01*
X-696166Y256625D01*
X-698175Y258634D01*
X-700635Y260055D01*
X-703380Y260790D01*
D02*
G37*
G36*
X-939210D02*
X-960790D01*
Y239210D01*
X-939210D01*
Y260790D01*
D02*
G37*
G36*
X-973979D02*
X-976821D01*
X-979565Y260055D01*
X-982025Y258634D01*
X-984034Y256625D01*
X-985455Y254165D01*
X-986190Y251421D01*
Y248580D01*
X-985455Y245835D01*
X-984034Y243375D01*
X-982025Y241366D01*
X-979565Y239945D01*
X-976821Y239210D01*
X-973979D01*
X-971235Y239945D01*
X-968775Y241366D01*
X-966766Y243375D01*
X-965345Y245835D01*
X-964610Y248580D01*
Y251421D01*
X-965345Y254165D01*
X-966766Y256625D01*
X-968775Y258634D01*
X-971235Y260055D01*
X-973979Y260790D01*
D02*
G37*
G36*
X-999380D02*
X-1002221D01*
X-1004965Y260055D01*
X-1007425Y258634D01*
X-1009434Y256625D01*
X-1010855Y254165D01*
X-1011590Y251421D01*
Y248580D01*
X-1010855Y245835D01*
X-1009434Y243375D01*
X-1007425Y241366D01*
X-1004965Y239945D01*
X-1002221Y239210D01*
X-999380D01*
X-996635Y239945D01*
X-994175Y241366D01*
X-992166Y243375D01*
X-990745Y245835D01*
X-990010Y248580D01*
Y251421D01*
X-990745Y254165D01*
X-992166Y256625D01*
X-994175Y258634D01*
X-996635Y260055D01*
X-999380Y260790D01*
D02*
G37*
G36*
X-1024780D02*
X-1027621D01*
X-1030365Y260055D01*
X-1032825Y258634D01*
X-1034834Y256625D01*
X-1036255Y254165D01*
X-1036990Y251421D01*
Y248580D01*
X-1036255Y245835D01*
X-1034834Y243375D01*
X-1032825Y241366D01*
X-1030365Y239945D01*
X-1027621Y239210D01*
X-1024780D01*
X-1022035Y239945D01*
X-1019575Y241366D01*
X-1017566Y243375D01*
X-1016145Y245835D01*
X-1015410Y248580D01*
Y251421D01*
X-1016145Y254165D01*
X-1017566Y256625D01*
X-1019575Y258634D01*
X-1022035Y260055D01*
X-1024780Y260790D01*
D02*
G37*
G36*
X-1050180D02*
X-1053021D01*
X-1055765Y260055D01*
X-1058225Y258634D01*
X-1060234Y256625D01*
X-1061655Y254165D01*
X-1062390Y251421D01*
Y248580D01*
X-1061655Y245835D01*
X-1060234Y243375D01*
X-1058225Y241366D01*
X-1055765Y239945D01*
X-1053021Y239210D01*
X-1050180D01*
X-1047435Y239945D01*
X-1044975Y241366D01*
X-1042966Y243375D01*
X-1041545Y245835D01*
X-1040810Y248580D01*
Y251421D01*
X-1041545Y254165D01*
X-1042966Y256625D01*
X-1044975Y258634D01*
X-1047435Y260055D01*
X-1050180Y260790D01*
D02*
G37*
G36*
X-1075580D02*
X-1078421D01*
X-1081165Y260055D01*
X-1083625Y258634D01*
X-1085634Y256625D01*
X-1087055Y254165D01*
X-1087790Y251421D01*
Y248580D01*
X-1087055Y245835D01*
X-1085634Y243375D01*
X-1083625Y241366D01*
X-1081165Y239945D01*
X-1078421Y239210D01*
X-1075580D01*
X-1072835Y239945D01*
X-1070375Y241366D01*
X-1068366Y243375D01*
X-1066945Y245835D01*
X-1066210Y248580D01*
Y251421D01*
X-1066945Y254165D01*
X-1068366Y256625D01*
X-1070375Y258634D01*
X-1072835Y260055D01*
X-1075580Y260790D01*
D02*
G37*
G36*
X-1100980D02*
X-1103821D01*
X-1106565Y260055D01*
X-1109025Y258634D01*
X-1111034Y256625D01*
X-1112455Y254165D01*
X-1113190Y251421D01*
Y248580D01*
X-1112455Y245835D01*
X-1111034Y243375D01*
X-1109025Y241366D01*
X-1106565Y239945D01*
X-1103821Y239210D01*
X-1100980D01*
X-1098235Y239945D01*
X-1095775Y241366D01*
X-1093766Y243375D01*
X-1092345Y245835D01*
X-1091610Y248580D01*
Y251421D01*
X-1092345Y254165D01*
X-1093766Y256625D01*
X-1095775Y258634D01*
X-1098235Y260055D01*
X-1100980Y260790D01*
D02*
G37*
G36*
X-1126379D02*
X-1129221D01*
X-1131965Y260055D01*
X-1134425Y258634D01*
X-1136434Y256625D01*
X-1137855Y254165D01*
X-1138590Y251421D01*
Y248580D01*
X-1137855Y245835D01*
X-1136434Y243375D01*
X-1134425Y241366D01*
X-1131965Y239945D01*
X-1129221Y239210D01*
X-1126379D01*
X-1123635Y239945D01*
X-1121175Y241366D01*
X-1119166Y243375D01*
X-1117745Y245835D01*
X-1117010Y248580D01*
Y251421D01*
X-1117745Y254165D01*
X-1119166Y256625D01*
X-1121175Y258634D01*
X-1123635Y260055D01*
X-1126379Y260790D01*
D02*
G37*
G36*
X-1151779D02*
X-1154621D01*
X-1157365Y260055D01*
X-1159825Y258634D01*
X-1161834Y256625D01*
X-1163255Y254165D01*
X-1163990Y251421D01*
Y248580D01*
X-1163255Y245835D01*
X-1161834Y243375D01*
X-1159825Y241366D01*
X-1157365Y239945D01*
X-1154621Y239210D01*
X-1151779D01*
X-1149035Y239945D01*
X-1146575Y241366D01*
X-1144566Y243375D01*
X-1143145Y245835D01*
X-1142410Y248580D01*
Y251421D01*
X-1143145Y254165D01*
X-1144566Y256625D01*
X-1146575Y258634D01*
X-1149035Y260055D01*
X-1151779Y260790D01*
D02*
G37*
G36*
X-1177179D02*
X-1180021D01*
X-1182765Y260055D01*
X-1185225Y258634D01*
X-1187234Y256625D01*
X-1188655Y254165D01*
X-1189390Y251421D01*
Y248580D01*
X-1188655Y245835D01*
X-1187234Y243375D01*
X-1185225Y241366D01*
X-1182765Y239945D01*
X-1180021Y239210D01*
X-1177179D01*
X-1174435Y239945D01*
X-1171975Y241366D01*
X-1169966Y243375D01*
X-1168545Y245835D01*
X-1167810Y248580D01*
Y251421D01*
X-1168545Y254165D01*
X-1169966Y256625D01*
X-1171975Y258634D01*
X-1174435Y260055D01*
X-1177179Y260790D01*
D02*
G37*
G36*
X-1202579D02*
X-1205421D01*
X-1208165Y260055D01*
X-1210625Y258634D01*
X-1212634Y256625D01*
X-1214055Y254165D01*
X-1214790Y251421D01*
Y248580D01*
X-1214055Y245835D01*
X-1212634Y243375D01*
X-1210625Y241366D01*
X-1208165Y239945D01*
X-1205421Y239210D01*
X-1202579D01*
X-1199835Y239945D01*
X-1197375Y241366D01*
X-1195366Y243375D01*
X-1193945Y245835D01*
X-1193210Y248580D01*
Y251421D01*
X-1193945Y254165D01*
X-1195366Y256625D01*
X-1197375Y258634D01*
X-1199835Y260055D01*
X-1202579Y260790D01*
D02*
G37*
G36*
X-1227980D02*
X-1230821D01*
X-1233565Y260055D01*
X-1236025Y258634D01*
X-1238034Y256625D01*
X-1239455Y254165D01*
X-1240190Y251421D01*
Y248580D01*
X-1239455Y245835D01*
X-1238034Y243375D01*
X-1236025Y241366D01*
X-1233565Y239945D01*
X-1230821Y239210D01*
X-1227980D01*
X-1225235Y239945D01*
X-1222775Y241366D01*
X-1220766Y243375D01*
X-1219345Y245835D01*
X-1218610Y248580D01*
Y251421D01*
X-1219345Y254165D01*
X-1220766Y256625D01*
X-1222775Y258634D01*
X-1225235Y260055D01*
X-1227980Y260790D01*
D02*
G37*
G36*
X-1253380D02*
X-1256221D01*
X-1258965Y260055D01*
X-1261425Y258634D01*
X-1263434Y256625D01*
X-1264855Y254165D01*
X-1265590Y251421D01*
Y248580D01*
X-1264855Y245835D01*
X-1263434Y243375D01*
X-1261425Y241366D01*
X-1258965Y239945D01*
X-1256221Y239210D01*
X-1253380D01*
X-1250635Y239945D01*
X-1248175Y241366D01*
X-1246166Y243375D01*
X-1244745Y245835D01*
X-1244010Y248580D01*
Y251421D01*
X-1244745Y254165D01*
X-1246166Y256625D01*
X-1248175Y258634D01*
X-1250635Y260055D01*
X-1253380Y260790D01*
D02*
G37*
G36*
X-500597Y190120D02*
X-502603D01*
X-504542Y189601D01*
X-506279Y188598D01*
X-507698Y187179D01*
X-508701Y185442D01*
X-509220Y183503D01*
Y181497D01*
X-508701Y179559D01*
X-507698Y177822D01*
X-506279Y176403D01*
X-504542Y175400D01*
X-502603Y174880D01*
X-500597D01*
X-498659Y175400D01*
X-496922Y176403D01*
X-495503Y177822D01*
X-494500Y179559D01*
X-493980Y181497D01*
Y183503D01*
X-494500Y185442D01*
X-495503Y187179D01*
X-496922Y188598D01*
X-498659Y189601D01*
X-500597Y190120D01*
D02*
G37*
G36*
X-449797Y190120D02*
X-451803D01*
X-453741Y189601D01*
X-455479Y188598D01*
X-456898Y187179D01*
X-457901Y185441D01*
X-458420Y183503D01*
Y181497D01*
X-457901Y179559D01*
X-456898Y177821D01*
X-455479Y176403D01*
X-453741Y175399D01*
X-451803Y174880D01*
X-449797D01*
X-447859Y175399D01*
X-446121Y176403D01*
X-444703Y177821D01*
X-443699Y179559D01*
X-443180Y181497D01*
Y183503D01*
X-443699Y185441D01*
X-444703Y187179D01*
X-446121Y188598D01*
X-447859Y189601D01*
X-449797Y190120D01*
D02*
G37*
G36*
X-475197D02*
X-477203D01*
X-479142Y189601D01*
X-480879Y188598D01*
X-482298Y187179D01*
X-483301Y185441D01*
X-483820Y183503D01*
Y181497D01*
X-483301Y179559D01*
X-482298Y177821D01*
X-480879Y176403D01*
X-479142Y175399D01*
X-477203Y174880D01*
X-475197D01*
X-473259Y175399D01*
X-471521Y176403D01*
X-470103Y177821D01*
X-469100Y179559D01*
X-468580Y181497D01*
Y183503D01*
X-469100Y185441D01*
X-470103Y187179D01*
X-471521Y188598D01*
X-473259Y189601D01*
X-475197Y190120D01*
D02*
G37*
G36*
X-551397D02*
X-553403D01*
X-555341Y189601D01*
X-557079Y188598D01*
X-558498Y187179D01*
X-559501Y185441D01*
X-560020Y183503D01*
Y181497D01*
X-559501Y179559D01*
X-558498Y177821D01*
X-557079Y176403D01*
X-555341Y175399D01*
X-553403Y174880D01*
X-551397D01*
X-549459Y175399D01*
X-547721Y176403D01*
X-546303Y177821D01*
X-545299Y179559D01*
X-544780Y181497D01*
Y183503D01*
X-545299Y185441D01*
X-546303Y187179D01*
X-547721Y188598D01*
X-549459Y189601D01*
X-551397Y190120D01*
D02*
G37*
G36*
X-627597D02*
X-629603D01*
X-631541Y189601D01*
X-633279Y188598D01*
X-634698Y187179D01*
X-635701Y185441D01*
X-636220Y183503D01*
Y181497D01*
X-635701Y179559D01*
X-634698Y177821D01*
X-633279Y176403D01*
X-631541Y175399D01*
X-629603Y174880D01*
X-627597D01*
X-625659Y175399D01*
X-623921Y176403D01*
X-622503Y177821D01*
X-621499Y179559D01*
X-620980Y181497D01*
Y183503D01*
X-621499Y185441D01*
X-622503Y187179D01*
X-623921Y188598D01*
X-625659Y189601D01*
X-627597Y190120D01*
D02*
G37*
G36*
X-652997D02*
X-655003D01*
X-656942Y189601D01*
X-658679Y188598D01*
X-660098Y187179D01*
X-661101Y185441D01*
X-661620Y183503D01*
Y181497D01*
X-661101Y179559D01*
X-660098Y177821D01*
X-658679Y176403D01*
X-656942Y175399D01*
X-655003Y174880D01*
X-652997D01*
X-651059Y175399D01*
X-649321Y176403D01*
X-647903Y177821D01*
X-646899Y179559D01*
X-646380Y181497D01*
Y183503D01*
X-646899Y185441D01*
X-647903Y187179D01*
X-649321Y188598D01*
X-651059Y189601D01*
X-652997Y190120D01*
D02*
G37*
G36*
X-678397D02*
X-680403D01*
X-682342Y189601D01*
X-684079Y188598D01*
X-685498Y187179D01*
X-686501Y185441D01*
X-687020Y183503D01*
Y181497D01*
X-686501Y179559D01*
X-685498Y177821D01*
X-684079Y176403D01*
X-682342Y175399D01*
X-680403Y174880D01*
X-678397D01*
X-676459Y175399D01*
X-674721Y176403D01*
X-673303Y177821D01*
X-672299Y179559D01*
X-671780Y181497D01*
Y183503D01*
X-672299Y185441D01*
X-673303Y187179D01*
X-674721Y188598D01*
X-676459Y189601D01*
X-678397Y190120D01*
D02*
G37*
G36*
X-703797D02*
X-705803D01*
X-707741Y189601D01*
X-709479Y188598D01*
X-710898Y187179D01*
X-711901Y185441D01*
X-712420Y183503D01*
Y181497D01*
X-711901Y179559D01*
X-710898Y177821D01*
X-709479Y176403D01*
X-707741Y175399D01*
X-705803Y174880D01*
X-703797D01*
X-701859Y175399D01*
X-700121Y176403D01*
X-698703Y177821D01*
X-697700Y179559D01*
X-697180Y181497D01*
Y183503D01*
X-697700Y185441D01*
X-698703Y187179D01*
X-700121Y188598D01*
X-701859Y189601D01*
X-703797Y190120D01*
D02*
G37*
G36*
X-424397Y190120D02*
X-426403D01*
X-428341Y189601D01*
X-430079Y188598D01*
X-431498Y187179D01*
X-432501Y185441D01*
X-433020Y183503D01*
Y181497D01*
X-432501Y179559D01*
X-431498Y177821D01*
X-430079Y176403D01*
X-428341Y175399D01*
X-426403Y174880D01*
X-424397D01*
X-422459Y175399D01*
X-420721Y176403D01*
X-419303Y177821D01*
X-418299Y179559D01*
X-417780Y181497D01*
Y183503D01*
X-418299Y185441D01*
X-419303Y187179D01*
X-420721Y188598D01*
X-422459Y189601D01*
X-424397Y190120D01*
D02*
G37*
G36*
X-525997D02*
X-528003D01*
X-529941Y189601D01*
X-531679Y188598D01*
X-533098Y187179D01*
X-534101Y185441D01*
X-534620Y183503D01*
Y181497D01*
X-534101Y179559D01*
X-533098Y177821D01*
X-531679Y176403D01*
X-529941Y175399D01*
X-528003Y174880D01*
X-525997D01*
X-524059Y175399D01*
X-522321Y176403D01*
X-520903Y177821D01*
X-519899Y179559D01*
X-519380Y181497D01*
Y183503D01*
X-519899Y185441D01*
X-520903Y187179D01*
X-522321Y188598D01*
X-524059Y189601D01*
X-525997Y190120D01*
D02*
G37*
G36*
X-576797D02*
X-578803D01*
X-580741Y189601D01*
X-582479Y188598D01*
X-583898Y187179D01*
X-584901Y185441D01*
X-585420Y183503D01*
Y181497D01*
X-584901Y179559D01*
X-583898Y177821D01*
X-582479Y176403D01*
X-580741Y175399D01*
X-578803Y174880D01*
X-576797D01*
X-574859Y175399D01*
X-573121Y176403D01*
X-571703Y177821D01*
X-570700Y179559D01*
X-570180Y181497D01*
Y183503D01*
X-570700Y185441D01*
X-571703Y187179D01*
X-573121Y188598D01*
X-574859Y189601D01*
X-576797Y190120D01*
D02*
G37*
G36*
X-398997Y190120D02*
X-401003D01*
X-402941Y189601D01*
X-404679Y188598D01*
X-406097Y187179D01*
X-407101Y185441D01*
X-407620Y183503D01*
Y181497D01*
X-407101Y179559D01*
X-406097Y177821D01*
X-404679Y176402D01*
X-402941Y175399D01*
X-401003Y174880D01*
X-398997D01*
X-397059Y175399D01*
X-395321Y176402D01*
X-393903Y177821D01*
X-392899Y179559D01*
X-392380Y181497D01*
Y183503D01*
X-392899Y185441D01*
X-393903Y187179D01*
X-395321Y188598D01*
X-397059Y189601D01*
X-398997Y190120D01*
D02*
G37*
G36*
X-602197Y190120D02*
X-604203D01*
X-606141Y189601D01*
X-607879Y188598D01*
X-609297Y187179D01*
X-610301Y185441D01*
X-610820Y183503D01*
Y181497D01*
X-610301Y179559D01*
X-609297Y177821D01*
X-607879Y176402D01*
X-606141Y175399D01*
X-604203Y174880D01*
X-602197D01*
X-600259Y175399D01*
X-598521Y176402D01*
X-597102Y177821D01*
X-596099Y179559D01*
X-595580Y181497D01*
Y183503D01*
X-596099Y185441D01*
X-597102Y187179D01*
X-598521Y188598D01*
X-600259Y189601D01*
X-602197Y190120D01*
D02*
G37*
G36*
X-211480Y188890D02*
X-214321D01*
X-217065Y188155D01*
X-219525Y186734D01*
X-221534Y184725D01*
X-222955Y182265D01*
X-223690Y179521D01*
Y176680D01*
X-222955Y173936D01*
X-221534Y171475D01*
X-219525Y169466D01*
X-217065Y168046D01*
X-214321Y167310D01*
X-211480D01*
X-208735Y168046D01*
X-206275Y169466D01*
X-204266Y171475D01*
X-202845Y173936D01*
X-202110Y176680D01*
Y179521D01*
X-202845Y182265D01*
X-204266Y184725D01*
X-206275Y186734D01*
X-208735Y188155D01*
X-211480Y188890D01*
D02*
G37*
G36*
X-381935Y175120D02*
X-383941D01*
X-385879Y174601D01*
X-387617Y173598D01*
X-389036Y172179D01*
X-390039Y170441D01*
X-390558Y168503D01*
Y166497D01*
X-390039Y164559D01*
X-389036Y162821D01*
X-387617Y161402D01*
X-385879Y160399D01*
X-383941Y159880D01*
X-381935D01*
X-379997Y160399D01*
X-378259Y161402D01*
X-376841Y162821D01*
X-375837Y164559D01*
X-375318Y166497D01*
Y168503D01*
X-375837Y170441D01*
X-376841Y172179D01*
X-378259Y173598D01*
X-379997Y174601D01*
X-381935Y175120D01*
D02*
G37*
G36*
X-394597Y160320D02*
X-396603D01*
X-398541Y159801D01*
X-400279Y158798D01*
X-401698Y157379D01*
X-402701Y155641D01*
X-403220Y153703D01*
Y151697D01*
X-402701Y149759D01*
X-401698Y148021D01*
X-400279Y146603D01*
X-398541Y145599D01*
X-396603Y145080D01*
X-394597D01*
X-392659Y145599D01*
X-390921Y146603D01*
X-389503Y148021D01*
X-388499Y149759D01*
X-387980Y151697D01*
Y153703D01*
X-388499Y155641D01*
X-389503Y157379D01*
X-390921Y158798D01*
X-392659Y159801D01*
X-394597Y160320D01*
D02*
G37*
G36*
X-211480Y163490D02*
X-214321D01*
X-217065Y162755D01*
X-219525Y161334D01*
X-221534Y159326D01*
X-222955Y156865D01*
X-223690Y154121D01*
Y151280D01*
X-222955Y148535D01*
X-221534Y146075D01*
X-219525Y144066D01*
X-217065Y142646D01*
X-214321Y141910D01*
X-211480D01*
X-208735Y142646D01*
X-206275Y144066D01*
X-204266Y146075D01*
X-202845Y148535D01*
X-202110Y151280D01*
Y154121D01*
X-202845Y156865D01*
X-204266Y159326D01*
X-206275Y161334D01*
X-208735Y162755D01*
X-211480Y163490D01*
D02*
G37*
G36*
X-406497Y145120D02*
X-408503D01*
X-410441Y144601D01*
X-412179Y143597D01*
X-413597Y142179D01*
X-414601Y140441D01*
X-415120Y138503D01*
Y136497D01*
X-414601Y134559D01*
X-413597Y132821D01*
X-412179Y131403D01*
X-410441Y130399D01*
X-408503Y129880D01*
X-406497D01*
X-404559Y130399D01*
X-402821Y131403D01*
X-401403Y132821D01*
X-400399Y134559D01*
X-399880Y136497D01*
Y138503D01*
X-400399Y140441D01*
X-401403Y142179D01*
X-402821Y143597D01*
X-404559Y144601D01*
X-406497Y145120D01*
D02*
G37*
G36*
X-1348997Y180120D02*
X-1351003D01*
X-1351302Y180040D01*
X-1352364D01*
X-1357034Y179300D01*
X-1361531Y177839D01*
X-1365744Y175693D01*
X-1369570Y172913D01*
X-1372913Y169570D01*
X-1375692Y165744D01*
X-1377839Y161531D01*
X-1379300Y157034D01*
X-1380040Y152364D01*
Y151302D01*
X-1380120Y151003D01*
Y148997D01*
X-1380040Y148698D01*
Y147636D01*
X-1379300Y142966D01*
X-1377839Y138469D01*
X-1375692Y134256D01*
X-1372913Y130430D01*
X-1369570Y127087D01*
X-1365744Y124307D01*
X-1361531Y122161D01*
X-1357034Y120700D01*
X-1352364Y119960D01*
X-1351302D01*
X-1351003Y119880D01*
X-1348997D01*
X-1348698Y119960D01*
X-1347636D01*
X-1342966Y120700D01*
X-1338469Y122161D01*
X-1334256Y124307D01*
X-1330430Y127087D01*
X-1327087Y130430D01*
X-1324308Y134256D01*
X-1322161Y138469D01*
X-1320700Y142966D01*
X-1319960Y147636D01*
Y148698D01*
X-1319880Y148997D01*
Y151003D01*
X-1319960Y151302D01*
Y152364D01*
X-1320700Y157034D01*
X-1322161Y161531D01*
X-1324308Y165744D01*
X-1327087Y169570D01*
X-1330430Y172913D01*
X-1334256Y175693D01*
X-1338469Y177839D01*
X-1342966Y179300D01*
X-1347636Y180040D01*
X-1348698D01*
X-1348997Y180120D01*
D02*
G37*
G36*
X-418997Y132620D02*
X-421003D01*
X-422941Y132101D01*
X-424679Y131097D01*
X-426097Y129679D01*
X-427101Y127941D01*
X-427620Y126003D01*
Y123997D01*
X-427101Y122059D01*
X-426097Y120321D01*
X-424679Y118903D01*
X-422941Y117899D01*
X-421003Y117380D01*
X-418997D01*
X-417059Y117899D01*
X-415321Y118903D01*
X-413903Y120321D01*
X-412899Y122059D01*
X-412380Y123997D01*
Y126003D01*
X-412899Y127941D01*
X-413903Y129679D01*
X-415321Y131097D01*
X-417059Y132101D01*
X-418997Y132620D01*
D02*
G37*
G36*
X-186080Y138090D02*
X-188921D01*
X-191665Y137355D01*
X-194125Y135934D01*
X-196134Y133926D01*
X-197555Y131465D01*
X-198290Y128721D01*
Y125880D01*
X-197555Y123135D01*
X-196134Y120675D01*
X-194125Y118666D01*
X-191665Y117246D01*
X-188921Y116510D01*
X-186080D01*
X-183335Y117246D01*
X-180875Y118666D01*
X-178866Y120675D01*
X-177446Y123135D01*
X-176710Y125880D01*
Y128721D01*
X-177446Y131465D01*
X-178866Y133926D01*
X-180875Y135934D01*
X-183335Y137355D01*
X-186080Y138090D01*
D02*
G37*
G36*
X-211480D02*
X-214321D01*
X-217065Y137355D01*
X-219525Y135934D01*
X-221534Y133926D01*
X-222955Y131465D01*
X-223690Y128721D01*
Y125880D01*
X-222955Y123135D01*
X-221534Y120675D01*
X-219525Y118666D01*
X-217065Y117246D01*
X-214321Y116510D01*
X-211480D01*
X-208735Y117246D01*
X-206275Y118666D01*
X-204266Y120675D01*
X-202845Y123135D01*
X-202110Y125880D01*
Y128721D01*
X-202845Y131465D01*
X-204266Y133926D01*
X-206275Y135934D01*
X-208735Y137355D01*
X-211480Y138090D01*
D02*
G37*
G36*
X-431497Y120120D02*
X-433503D01*
X-435441Y119601D01*
X-437179Y118597D01*
X-438597Y117179D01*
X-439601Y115441D01*
X-440120Y113503D01*
Y111497D01*
X-439601Y109559D01*
X-438597Y107821D01*
X-437179Y106403D01*
X-435441Y105399D01*
X-433503Y104880D01*
X-431497D01*
X-429559Y105399D01*
X-427821Y106403D01*
X-426403Y107821D01*
X-425399Y109559D01*
X-424880Y111497D01*
Y113503D01*
X-425399Y115441D01*
X-426403Y117179D01*
X-427821Y118597D01*
X-429559Y119601D01*
X-431497Y120120D01*
D02*
G37*
G36*
X-443997Y107620D02*
X-446003D01*
X-447941Y107101D01*
X-449679Y106097D01*
X-451097Y104679D01*
X-452101Y102941D01*
X-452620Y101003D01*
Y98997D01*
X-452101Y97059D01*
X-451097Y95321D01*
X-449679Y93903D01*
X-447941Y92899D01*
X-446003Y92380D01*
X-443997D01*
X-442059Y92899D01*
X-440321Y93903D01*
X-438903Y95321D01*
X-437899Y97059D01*
X-437380Y98997D01*
Y101003D01*
X-437899Y102941D01*
X-438903Y104679D01*
X-440321Y106097D01*
X-442059Y107101D01*
X-443997Y107620D01*
D02*
G37*
G36*
X-186080Y112690D02*
X-188921D01*
X-191665Y111955D01*
X-194125Y110534D01*
X-196134Y108525D01*
X-197555Y106065D01*
X-198290Y103321D01*
Y100480D01*
X-197555Y97736D01*
X-196134Y95275D01*
X-194125Y93266D01*
X-191665Y91846D01*
X-188921Y91110D01*
X-186080D01*
X-183335Y91846D01*
X-180875Y93266D01*
X-178866Y95275D01*
X-177446Y97736D01*
X-176710Y100480D01*
Y103321D01*
X-177446Y106065D01*
X-178866Y108525D01*
X-180875Y110534D01*
X-183335Y111955D01*
X-186080Y112690D01*
D02*
G37*
G36*
X-211480D02*
X-214321D01*
X-217065Y111955D01*
X-219525Y110534D01*
X-221534Y108525D01*
X-222955Y106065D01*
X-223690Y103321D01*
Y100480D01*
X-222955Y97736D01*
X-221534Y95275D01*
X-219525Y93266D01*
X-217065Y91846D01*
X-214321Y91110D01*
X-211480D01*
X-208735Y91846D01*
X-206275Y93266D01*
X-204266Y95275D01*
X-202845Y97736D01*
X-202110Y100480D01*
Y103321D01*
X-202845Y106065D01*
X-204266Y108525D01*
X-206275Y110534D01*
X-208735Y111955D01*
X-211480Y112690D01*
D02*
G37*
G36*
X-456497Y95120D02*
X-458503D01*
X-460441Y94601D01*
X-462179Y93597D01*
X-463597Y92179D01*
X-464601Y90441D01*
X-465120Y88503D01*
Y86497D01*
X-464601Y84559D01*
X-463597Y82821D01*
X-462179Y81403D01*
X-460441Y80399D01*
X-458503Y79880D01*
X-456497D01*
X-454559Y80399D01*
X-452821Y81403D01*
X-451403Y82821D01*
X-450399Y84559D01*
X-449880Y86497D01*
Y88503D01*
X-450399Y90441D01*
X-451403Y92179D01*
X-452821Y93597D01*
X-454559Y94601D01*
X-456497Y95120D01*
D02*
G37*
G36*
X-468997Y82620D02*
X-471003D01*
X-472941Y82101D01*
X-474679Y81097D01*
X-476097Y79679D01*
X-477101Y77941D01*
X-477620Y76003D01*
Y73997D01*
X-477101Y72059D01*
X-476097Y70321D01*
X-474679Y68903D01*
X-472941Y67899D01*
X-471003Y67380D01*
X-468997D01*
X-467059Y67899D01*
X-465321Y68903D01*
X-463903Y70321D01*
X-462899Y72059D01*
X-462380Y73997D01*
Y76003D01*
X-462899Y77941D01*
X-463903Y79679D01*
X-465321Y81097D01*
X-467059Y82101D01*
X-468997Y82620D01*
D02*
G37*
G36*
X-186080Y87290D02*
X-188921D01*
X-191665Y86555D01*
X-194125Y85134D01*
X-196134Y83125D01*
X-197555Y80665D01*
X-198290Y77921D01*
Y75080D01*
X-197555Y72336D01*
X-196134Y69875D01*
X-194125Y67866D01*
X-191665Y66446D01*
X-188921Y65710D01*
X-186080D01*
X-183335Y66446D01*
X-180875Y67866D01*
X-178866Y69875D01*
X-177446Y72336D01*
X-176710Y75080D01*
Y77921D01*
X-177446Y80665D01*
X-178866Y83125D01*
X-180875Y85134D01*
X-183335Y86555D01*
X-186080Y87290D01*
D02*
G37*
G36*
X-211480D02*
X-214321D01*
X-217065Y86555D01*
X-219525Y85134D01*
X-221534Y83125D01*
X-222955Y80665D01*
X-223690Y77921D01*
Y75080D01*
X-222955Y72336D01*
X-221534Y69875D01*
X-219525Y67866D01*
X-217065Y66446D01*
X-214321Y65710D01*
X-211480D01*
X-208735Y66446D01*
X-206275Y67866D01*
X-204266Y69875D01*
X-202845Y72336D01*
X-202110Y75080D01*
Y77921D01*
X-202845Y80665D01*
X-204266Y83125D01*
X-206275Y85134D01*
X-208735Y86555D01*
X-211480Y87290D01*
D02*
G37*
G36*
X-481497Y67620D02*
X-483503D01*
X-485441Y67101D01*
X-487179Y66097D01*
X-488597Y64679D01*
X-489601Y62941D01*
X-490120Y61003D01*
Y58997D01*
X-489601Y57059D01*
X-488597Y55321D01*
X-487179Y53903D01*
X-485441Y52899D01*
X-483503Y52380D01*
X-481497D01*
X-479559Y52899D01*
X-477821Y53903D01*
X-476403Y55321D01*
X-475399Y57059D01*
X-474880Y58997D01*
Y61003D01*
X-475399Y62941D01*
X-476403Y64679D01*
X-477821Y66097D01*
X-479559Y67101D01*
X-481497Y67620D01*
D02*
G37*
G36*
X-186080Y61890D02*
X-188921D01*
X-191665Y61155D01*
X-194125Y59734D01*
X-196134Y57726D01*
X-197555Y55265D01*
X-198290Y52521D01*
Y49680D01*
X-197555Y46936D01*
X-196134Y44475D01*
X-194125Y42466D01*
X-191665Y41046D01*
X-188921Y40310D01*
X-186080D01*
X-183335Y41046D01*
X-180875Y42466D01*
X-178866Y44475D01*
X-177446Y46936D01*
X-176710Y49680D01*
Y52521D01*
X-177446Y55265D01*
X-178866Y57726D01*
X-180875Y59734D01*
X-183335Y61155D01*
X-186080Y61890D01*
D02*
G37*
G36*
X-211480D02*
X-214321D01*
X-217065Y61155D01*
X-219525Y59734D01*
X-221534Y57726D01*
X-222955Y55265D01*
X-223690Y52521D01*
Y49680D01*
X-222955Y46936D01*
X-221534Y44475D01*
X-219525Y42466D01*
X-217065Y41046D01*
X-214321Y40310D01*
X-211480D01*
X-208735Y41046D01*
X-206275Y42466D01*
X-204266Y44475D01*
X-202845Y46936D01*
X-202110Y49680D01*
Y52521D01*
X-202845Y55265D01*
X-204266Y57726D01*
X-206275Y59734D01*
X-208735Y61155D01*
X-211480Y61890D01*
D02*
G37*
G36*
X-491497Y55120D02*
X-493503D01*
X-495441Y54601D01*
X-497179Y53597D01*
X-498597Y52179D01*
X-499601Y50441D01*
X-500120Y48503D01*
Y46497D01*
X-499601Y44559D01*
X-498597Y42821D01*
X-497179Y41403D01*
X-495441Y40399D01*
X-493503Y39880D01*
X-491497D01*
X-489559Y40399D01*
X-487821Y41403D01*
X-486403Y42821D01*
X-485399Y44559D01*
X-484880Y46497D01*
Y48503D01*
X-485399Y50441D01*
X-486403Y52179D01*
X-487821Y53597D01*
X-489559Y54601D01*
X-491497Y55120D01*
D02*
G37*
G36*
X-503997Y40120D02*
X-506003D01*
X-507941Y39601D01*
X-509679Y38598D01*
X-511097Y37179D01*
X-512101Y35441D01*
X-512620Y33503D01*
Y31497D01*
X-512101Y29559D01*
X-511097Y27821D01*
X-509679Y26402D01*
X-507941Y25399D01*
X-506003Y24880D01*
X-503997D01*
X-502059Y25399D01*
X-500321Y26402D01*
X-498903Y27821D01*
X-497899Y29559D01*
X-497380Y31497D01*
Y33503D01*
X-497899Y35441D01*
X-498903Y37179D01*
X-500321Y38598D01*
X-502059Y39601D01*
X-503997Y40120D01*
D02*
G37*
G36*
X-186080Y36490D02*
X-188921D01*
X-191665Y35755D01*
X-194125Y34334D01*
X-196134Y32325D01*
X-197555Y29865D01*
X-198290Y27121D01*
Y24280D01*
X-197555Y21535D01*
X-196134Y19075D01*
X-194125Y17066D01*
X-191665Y15646D01*
X-188921Y14910D01*
X-186080D01*
X-183335Y15646D01*
X-180875Y17066D01*
X-178866Y19075D01*
X-177446Y21535D01*
X-176710Y24280D01*
Y27121D01*
X-177446Y29865D01*
X-178866Y32325D01*
X-180875Y34334D01*
X-183335Y35755D01*
X-186080Y36490D01*
D02*
G37*
G36*
X-211480D02*
X-214321D01*
X-217065Y35755D01*
X-219525Y34334D01*
X-221534Y32325D01*
X-222955Y29865D01*
X-223690Y27121D01*
Y24280D01*
X-222955Y21535D01*
X-221534Y19075D01*
X-219525Y17066D01*
X-217065Y15646D01*
X-214321Y14910D01*
X-211480D01*
X-208735Y15646D01*
X-206275Y17066D01*
X-204266Y19075D01*
X-202845Y21535D01*
X-202110Y24280D01*
Y27121D01*
X-202845Y29865D01*
X-204266Y32325D01*
X-206275Y34334D01*
X-208735Y35755D01*
X-211480Y36490D01*
D02*
G37*
G36*
X-516497Y27620D02*
X-518503D01*
X-520441Y27101D01*
X-522179Y26098D01*
X-523597Y24679D01*
X-524601Y22941D01*
X-525120Y21003D01*
Y18997D01*
X-524601Y17059D01*
X-523597Y15321D01*
X-522179Y13902D01*
X-520441Y12899D01*
X-518503Y12380D01*
X-516497D01*
X-514559Y12899D01*
X-512821Y13902D01*
X-511403Y15321D01*
X-510399Y17059D01*
X-509880Y18997D01*
Y21003D01*
X-510399Y22941D01*
X-511403Y24679D01*
X-512821Y26098D01*
X-514559Y27101D01*
X-516497Y27620D01*
D02*
G37*
G36*
X-528997Y12620D02*
X-531003D01*
X-532941Y12101D01*
X-534679Y11098D01*
X-536097Y9679D01*
X-537101Y7941D01*
X-537620Y6003D01*
Y3997D01*
X-537101Y2059D01*
X-536097Y321D01*
X-534679Y-1098D01*
X-532941Y-2101D01*
X-531003Y-2620D01*
X-528997D01*
X-527059Y-2101D01*
X-525321Y-1098D01*
X-523903Y321D01*
X-522899Y2059D01*
X-522380Y3997D01*
Y6003D01*
X-522899Y7941D01*
X-523903Y9679D01*
X-525321Y11098D01*
X-527059Y12101D01*
X-528997Y12620D01*
D02*
G37*
G36*
X-186080Y11090D02*
X-188921D01*
X-191665Y10355D01*
X-194125Y8934D01*
X-196134Y6926D01*
X-197555Y4465D01*
X-198290Y1721D01*
Y-1120D01*
X-197555Y-3864D01*
X-196134Y-6325D01*
X-194125Y-8334D01*
X-191665Y-9754D01*
X-188921Y-10490D01*
X-186080D01*
X-183335Y-9754D01*
X-180875Y-8334D01*
X-178866Y-6325D01*
X-177446Y-3864D01*
X-176710Y-1120D01*
Y1721D01*
X-177446Y4465D01*
X-178866Y6926D01*
X-180875Y8934D01*
X-183335Y10355D01*
X-186080Y11090D01*
D02*
G37*
G36*
X-211480D02*
X-214321D01*
X-217065Y10355D01*
X-219525Y8934D01*
X-221534Y6926D01*
X-222955Y4465D01*
X-223690Y1721D01*
Y-1120D01*
X-222955Y-3864D01*
X-221534Y-6325D01*
X-219525Y-8334D01*
X-217065Y-9754D01*
X-214321Y-10490D01*
X-211480D01*
X-208735Y-9754D01*
X-206275Y-8334D01*
X-204266Y-6325D01*
X-202845Y-3864D01*
X-202110Y-1120D01*
Y1721D01*
X-202845Y4465D01*
X-204266Y6926D01*
X-206275Y8934D01*
X-208735Y10355D01*
X-211480Y11090D01*
D02*
G37*
G36*
X-523997Y-9880D02*
X-526003D01*
X-527941Y-10399D01*
X-529679Y-11402D01*
X-531097Y-12821D01*
X-532101Y-14559D01*
X-532620Y-16497D01*
Y-18503D01*
X-532101Y-20441D01*
X-531097Y-22179D01*
X-529679Y-23598D01*
X-527941Y-24601D01*
X-526003Y-25120D01*
X-523997D01*
X-522059Y-24601D01*
X-520321Y-23598D01*
X-518903Y-22179D01*
X-517899Y-20441D01*
X-517380Y-18503D01*
Y-16497D01*
X-517899Y-14559D01*
X-518903Y-12821D01*
X-520321Y-11402D01*
X-522059Y-10399D01*
X-523997Y-9880D01*
D02*
G37*
G36*
X-186080Y-14310D02*
X-188921D01*
X-191665Y-15045D01*
X-194125Y-16466D01*
X-196134Y-18475D01*
X-197555Y-20935D01*
X-198290Y-23679D01*
Y-26520D01*
X-197555Y-29265D01*
X-196134Y-31725D01*
X-194125Y-33734D01*
X-191665Y-35154D01*
X-188921Y-35890D01*
X-186080D01*
X-183335Y-35154D01*
X-180875Y-33734D01*
X-178866Y-31725D01*
X-177446Y-29265D01*
X-176710Y-26520D01*
Y-23679D01*
X-177446Y-20935D01*
X-178866Y-18475D01*
X-180875Y-16466D01*
X-183335Y-15045D01*
X-186080Y-14310D01*
D02*
G37*
G36*
X-211480D02*
X-214321D01*
X-217065Y-15045D01*
X-219525Y-16466D01*
X-221534Y-18475D01*
X-222955Y-20935D01*
X-223690Y-23679D01*
Y-26520D01*
X-222955Y-29265D01*
X-221534Y-31725D01*
X-219525Y-33734D01*
X-217065Y-35154D01*
X-214321Y-35890D01*
X-211480D01*
X-208735Y-35154D01*
X-206275Y-33734D01*
X-204266Y-31725D01*
X-202845Y-29265D01*
X-202110Y-26520D01*
Y-23679D01*
X-202845Y-20935D01*
X-204266Y-18475D01*
X-206275Y-16466D01*
X-208735Y-15045D01*
X-211480Y-14310D01*
D02*
G37*
G36*
X-511497Y-22380D02*
X-513503D01*
X-515441Y-22899D01*
X-517179Y-23902D01*
X-518597Y-25321D01*
X-519601Y-27059D01*
X-520120Y-28997D01*
Y-31003D01*
X-519601Y-32941D01*
X-518597Y-34679D01*
X-517179Y-36098D01*
X-515441Y-37101D01*
X-513503Y-37620D01*
X-511497D01*
X-509559Y-37101D01*
X-507821Y-36098D01*
X-506403Y-34679D01*
X-505399Y-32941D01*
X-504880Y-31003D01*
Y-28997D01*
X-505399Y-27059D01*
X-506403Y-25321D01*
X-507821Y-23902D01*
X-509559Y-22899D01*
X-511497Y-22380D01*
D02*
G37*
G36*
X-498997Y-34880D02*
X-501003D01*
X-502941Y-35399D01*
X-504679Y-36402D01*
X-506097Y-37821D01*
X-507101Y-39559D01*
X-507620Y-41497D01*
Y-43503D01*
X-507101Y-45441D01*
X-506097Y-47179D01*
X-504679Y-48597D01*
X-502941Y-49601D01*
X-501003Y-50120D01*
X-498997D01*
X-497059Y-49601D01*
X-495321Y-48597D01*
X-493903Y-47179D01*
X-492899Y-45441D01*
X-492380Y-43503D01*
Y-41497D01*
X-492899Y-39559D01*
X-493903Y-37821D01*
X-495321Y-36402D01*
X-497059Y-35399D01*
X-498997Y-34880D01*
D02*
G37*
G36*
X-186080Y-39710D02*
X-188921D01*
X-191665Y-40445D01*
X-194125Y-41866D01*
X-196134Y-43875D01*
X-197555Y-46335D01*
X-198290Y-49079D01*
Y-51920D01*
X-197555Y-54665D01*
X-196134Y-57125D01*
X-194125Y-59134D01*
X-191665Y-60554D01*
X-188921Y-61290D01*
X-186080D01*
X-183335Y-60554D01*
X-180875Y-59134D01*
X-178866Y-57125D01*
X-177446Y-54665D01*
X-176710Y-51920D01*
Y-49079D01*
X-177446Y-46335D01*
X-178866Y-43875D01*
X-180875Y-41866D01*
X-183335Y-40445D01*
X-186080Y-39710D01*
D02*
G37*
G36*
X-211480D02*
X-214321D01*
X-217065Y-40445D01*
X-219525Y-41866D01*
X-221534Y-43875D01*
X-222955Y-46335D01*
X-223690Y-49079D01*
Y-51920D01*
X-222955Y-54665D01*
X-221534Y-57125D01*
X-219525Y-59134D01*
X-217065Y-60554D01*
X-214321Y-61290D01*
X-211480D01*
X-208735Y-60554D01*
X-206275Y-59134D01*
X-204266Y-57125D01*
X-202845Y-54665D01*
X-202110Y-51920D01*
Y-49079D01*
X-202845Y-46335D01*
X-204266Y-43875D01*
X-206275Y-41866D01*
X-208735Y-40445D01*
X-211480Y-39710D01*
D02*
G37*
G36*
X-486497Y-47380D02*
X-488503D01*
X-490441Y-47899D01*
X-492179Y-48903D01*
X-493597Y-50321D01*
X-494601Y-52059D01*
X-495120Y-53997D01*
Y-56003D01*
X-494601Y-57941D01*
X-493597Y-59679D01*
X-492179Y-61097D01*
X-490441Y-62101D01*
X-488503Y-62620D01*
X-486497D01*
X-484559Y-62101D01*
X-482821Y-61097D01*
X-481403Y-59679D01*
X-480399Y-57941D01*
X-479880Y-56003D01*
Y-53997D01*
X-480399Y-52059D01*
X-481403Y-50321D01*
X-482821Y-48903D01*
X-484559Y-47899D01*
X-486497Y-47380D01*
D02*
G37*
G36*
X-473997Y-59880D02*
X-476003D01*
X-477941Y-60399D01*
X-479679Y-61403D01*
X-481097Y-62821D01*
X-482101Y-64559D01*
X-482620Y-66497D01*
Y-68503D01*
X-482101Y-70441D01*
X-481097Y-72179D01*
X-479679Y-73597D01*
X-477941Y-74601D01*
X-476003Y-75120D01*
X-473997D01*
X-472059Y-74601D01*
X-470321Y-73597D01*
X-468903Y-72179D01*
X-467899Y-70441D01*
X-467380Y-68503D01*
Y-66497D01*
X-467899Y-64559D01*
X-468903Y-62821D01*
X-470321Y-61403D01*
X-472059Y-60399D01*
X-473997Y-59880D01*
D02*
G37*
G36*
X-186080Y-65110D02*
X-188921D01*
X-191665Y-65845D01*
X-194125Y-67266D01*
X-196134Y-69275D01*
X-197555Y-71735D01*
X-198290Y-74479D01*
Y-77320D01*
X-197555Y-80064D01*
X-196134Y-82525D01*
X-194125Y-84534D01*
X-191665Y-85954D01*
X-188921Y-86690D01*
X-186080D01*
X-183335Y-85954D01*
X-180875Y-84534D01*
X-178866Y-82525D01*
X-177446Y-80064D01*
X-176710Y-77320D01*
Y-74479D01*
X-177446Y-71735D01*
X-178866Y-69275D01*
X-180875Y-67266D01*
X-183335Y-65845D01*
X-186080Y-65110D01*
D02*
G37*
G36*
X-211480D02*
X-214321D01*
X-217065Y-65845D01*
X-219525Y-67266D01*
X-221534Y-69275D01*
X-222955Y-71735D01*
X-223690Y-74479D01*
Y-77320D01*
X-222955Y-80064D01*
X-221534Y-82525D01*
X-219525Y-84534D01*
X-217065Y-85954D01*
X-214321Y-86690D01*
X-211480D01*
X-208735Y-85954D01*
X-206275Y-84534D01*
X-204266Y-82525D01*
X-202845Y-80064D01*
X-202110Y-77320D01*
Y-74479D01*
X-202845Y-71735D01*
X-204266Y-69275D01*
X-206275Y-67266D01*
X-208735Y-65845D01*
X-211480Y-65110D01*
D02*
G37*
G36*
X-461497Y-72380D02*
X-463503D01*
X-465441Y-72899D01*
X-467179Y-73903D01*
X-468597Y-75321D01*
X-469601Y-77059D01*
X-470120Y-78997D01*
Y-81003D01*
X-469601Y-82941D01*
X-468597Y-84679D01*
X-467179Y-86097D01*
X-465441Y-87101D01*
X-463503Y-87620D01*
X-461497D01*
X-459559Y-87101D01*
X-457821Y-86097D01*
X-456403Y-84679D01*
X-455399Y-82941D01*
X-454880Y-81003D01*
Y-78997D01*
X-455399Y-77059D01*
X-456403Y-75321D01*
X-457821Y-73903D01*
X-459559Y-72899D01*
X-461497Y-72380D01*
D02*
G37*
G36*
X-448997Y-87380D02*
X-451003D01*
X-452941Y-87899D01*
X-454679Y-88903D01*
X-456097Y-90321D01*
X-457101Y-92059D01*
X-457620Y-93997D01*
Y-96003D01*
X-457101Y-97941D01*
X-456097Y-99679D01*
X-454679Y-101097D01*
X-452941Y-102101D01*
X-451003Y-102620D01*
X-448997D01*
X-447059Y-102101D01*
X-445321Y-101097D01*
X-443903Y-99679D01*
X-442899Y-97941D01*
X-442380Y-96003D01*
Y-93997D01*
X-442899Y-92059D01*
X-443903Y-90321D01*
X-445321Y-88903D01*
X-447059Y-87899D01*
X-448997Y-87380D01*
D02*
G37*
G36*
X-186080Y-90510D02*
X-188921D01*
X-191665Y-91245D01*
X-194125Y-92666D01*
X-196134Y-94675D01*
X-197555Y-97135D01*
X-198290Y-99879D01*
Y-102720D01*
X-197555Y-105464D01*
X-196134Y-107925D01*
X-194125Y-109934D01*
X-191665Y-111354D01*
X-188921Y-112090D01*
X-186080D01*
X-183335Y-111354D01*
X-180875Y-109934D01*
X-178866Y-107925D01*
X-177446Y-105464D01*
X-176710Y-102720D01*
Y-99879D01*
X-177446Y-97135D01*
X-178866Y-94675D01*
X-180875Y-92666D01*
X-183335Y-91245D01*
X-186080Y-90510D01*
D02*
G37*
G36*
X-211480D02*
X-214321D01*
X-217065Y-91245D01*
X-219525Y-92666D01*
X-221534Y-94675D01*
X-222955Y-97135D01*
X-223690Y-99879D01*
Y-102720D01*
X-222955Y-105464D01*
X-221534Y-107925D01*
X-219525Y-109934D01*
X-217065Y-111354D01*
X-214321Y-112090D01*
X-211480D01*
X-208735Y-111354D01*
X-206275Y-109934D01*
X-204266Y-107925D01*
X-202845Y-105464D01*
X-202110Y-102720D01*
Y-99879D01*
X-202845Y-97135D01*
X-204266Y-94675D01*
X-206275Y-92666D01*
X-208735Y-91245D01*
X-211480Y-90510D01*
D02*
G37*
G36*
X-436497Y-99880D02*
X-438503D01*
X-440441Y-100399D01*
X-442179Y-101403D01*
X-443597Y-102821D01*
X-444601Y-104559D01*
X-445120Y-106497D01*
Y-108503D01*
X-444601Y-110441D01*
X-443597Y-112179D01*
X-442179Y-113597D01*
X-440441Y-114601D01*
X-438503Y-115120D01*
X-436497D01*
X-434559Y-114601D01*
X-432821Y-113597D01*
X-431403Y-112179D01*
X-430399Y-110441D01*
X-429880Y-108503D01*
Y-106497D01*
X-430399Y-104559D01*
X-431403Y-102821D01*
X-432821Y-101403D01*
X-434559Y-100399D01*
X-436497Y-99880D01*
D02*
G37*
G36*
X-423997Y-112380D02*
X-426003D01*
X-427941Y-112899D01*
X-429679Y-113903D01*
X-431097Y-115321D01*
X-432101Y-117059D01*
X-432620Y-118997D01*
Y-121003D01*
X-432101Y-122941D01*
X-431097Y-124679D01*
X-429679Y-126097D01*
X-427941Y-127101D01*
X-426003Y-127620D01*
X-423997D01*
X-422059Y-127101D01*
X-420321Y-126097D01*
X-418903Y-124679D01*
X-417899Y-122941D01*
X-417380Y-121003D01*
Y-118997D01*
X-417899Y-117059D01*
X-418903Y-115321D01*
X-420321Y-113903D01*
X-422059Y-112899D01*
X-423997Y-112380D01*
D02*
G37*
G36*
X-186080Y-115910D02*
X-188921D01*
X-191665Y-116645D01*
X-194125Y-118066D01*
X-196134Y-120075D01*
X-197555Y-122535D01*
X-198290Y-125279D01*
Y-128120D01*
X-197555Y-130864D01*
X-196134Y-133325D01*
X-194125Y-135334D01*
X-191665Y-136754D01*
X-188921Y-137490D01*
X-186080D01*
X-183335Y-136754D01*
X-180875Y-135334D01*
X-178866Y-133325D01*
X-177446Y-130864D01*
X-176710Y-128120D01*
Y-125279D01*
X-177446Y-122535D01*
X-178866Y-120075D01*
X-180875Y-118066D01*
X-183335Y-116645D01*
X-186080Y-115910D01*
D02*
G37*
G36*
X-211480D02*
X-214321D01*
X-217065Y-116645D01*
X-219525Y-118066D01*
X-221534Y-120075D01*
X-222955Y-122535D01*
X-223690Y-125279D01*
Y-128120D01*
X-222955Y-130864D01*
X-221534Y-133325D01*
X-219525Y-135334D01*
X-217065Y-136754D01*
X-214321Y-137490D01*
X-211480D01*
X-208735Y-136754D01*
X-206275Y-135334D01*
X-204266Y-133325D01*
X-202845Y-130864D01*
X-202110Y-128120D01*
Y-125279D01*
X-202845Y-122535D01*
X-204266Y-120075D01*
X-206275Y-118066D01*
X-208735Y-116645D01*
X-211480Y-115910D01*
D02*
G37*
G36*
X-411497Y-124880D02*
X-413503D01*
X-415441Y-125399D01*
X-417179Y-126403D01*
X-418597Y-127821D01*
X-419601Y-129559D01*
X-420120Y-131497D01*
Y-133503D01*
X-419601Y-135441D01*
X-418597Y-137179D01*
X-417179Y-138597D01*
X-415441Y-139601D01*
X-413503Y-140120D01*
X-411497D01*
X-409559Y-139601D01*
X-407821Y-138597D01*
X-406403Y-137179D01*
X-405399Y-135441D01*
X-404880Y-133503D01*
Y-131497D01*
X-405399Y-129559D01*
X-406403Y-127821D01*
X-407821Y-126403D01*
X-409559Y-125399D01*
X-411497Y-124880D01*
D02*
G37*
G36*
X-398997Y-137380D02*
X-401003D01*
X-402941Y-137899D01*
X-404679Y-138903D01*
X-406097Y-140321D01*
X-407101Y-142059D01*
X-407620Y-143997D01*
Y-146003D01*
X-407101Y-147941D01*
X-406097Y-149679D01*
X-404679Y-151097D01*
X-402941Y-152101D01*
X-401003Y-152620D01*
X-398997D01*
X-397059Y-152101D01*
X-395321Y-151097D01*
X-393903Y-149679D01*
X-392899Y-147941D01*
X-392380Y-146003D01*
Y-143997D01*
X-392899Y-142059D01*
X-393903Y-140321D01*
X-395321Y-138903D01*
X-397059Y-137899D01*
X-398997Y-137380D01*
D02*
G37*
G36*
X-186080Y-141310D02*
X-188921D01*
X-191665Y-142045D01*
X-194125Y-143466D01*
X-196134Y-145475D01*
X-197555Y-147935D01*
X-198290Y-150679D01*
Y-153520D01*
X-197555Y-156264D01*
X-196134Y-158725D01*
X-194125Y-160734D01*
X-191665Y-162154D01*
X-188921Y-162890D01*
X-186080D01*
X-183335Y-162154D01*
X-180875Y-160734D01*
X-178866Y-158725D01*
X-177446Y-156264D01*
X-176710Y-153520D01*
Y-150679D01*
X-177446Y-147935D01*
X-178866Y-145475D01*
X-180875Y-143466D01*
X-183335Y-142045D01*
X-186080Y-141310D01*
D02*
G37*
G36*
X-386497Y-149880D02*
X-388503D01*
X-390441Y-150399D01*
X-392179Y-151403D01*
X-393597Y-152821D01*
X-394601Y-154559D01*
X-395120Y-156497D01*
Y-158503D01*
X-394601Y-160441D01*
X-393597Y-162179D01*
X-392179Y-163598D01*
X-390441Y-164601D01*
X-388503Y-165120D01*
X-386497D01*
X-384559Y-164601D01*
X-382821Y-163598D01*
X-381403Y-162179D01*
X-380399Y-160441D01*
X-379880Y-158503D01*
Y-156497D01*
X-380399Y-154559D01*
X-381403Y-152821D01*
X-382821Y-151403D01*
X-384559Y-150399D01*
X-386497Y-149880D01*
D02*
G37*
G36*
X-373997Y-164880D02*
X-376003D01*
X-377941Y-165399D01*
X-379679Y-166402D01*
X-381097Y-167821D01*
X-382101Y-169559D01*
X-382620Y-171497D01*
Y-173503D01*
X-382101Y-175441D01*
X-381097Y-177179D01*
X-379679Y-178598D01*
X-377941Y-179601D01*
X-376003Y-180120D01*
X-373997D01*
X-372059Y-179601D01*
X-370321Y-178598D01*
X-368903Y-177179D01*
X-367899Y-175441D01*
X-367380Y-173503D01*
Y-171497D01*
X-367899Y-169559D01*
X-368903Y-167821D01*
X-370321Y-166402D01*
X-372059Y-165399D01*
X-373997Y-164880D01*
D02*
G37*
G36*
X-1348997Y-119880D02*
X-1351003D01*
X-1351302Y-119960D01*
X-1352364D01*
X-1357034Y-120700D01*
X-1361531Y-122161D01*
X-1365744Y-124307D01*
X-1369570Y-127087D01*
X-1372913Y-130430D01*
X-1375692Y-134256D01*
X-1377839Y-138469D01*
X-1379300Y-142966D01*
X-1380040Y-147636D01*
Y-148698D01*
X-1380120Y-148997D01*
Y-151003D01*
X-1380040Y-151302D01*
Y-152364D01*
X-1379300Y-157034D01*
X-1377839Y-161531D01*
X-1375692Y-165744D01*
X-1372913Y-169570D01*
X-1369570Y-172913D01*
X-1365744Y-175693D01*
X-1361531Y-177839D01*
X-1357034Y-179300D01*
X-1352364Y-180040D01*
X-1351302D01*
X-1351003Y-180120D01*
X-1348997D01*
X-1348698Y-180040D01*
X-1347636D01*
X-1342966Y-179300D01*
X-1338469Y-177839D01*
X-1334256Y-175693D01*
X-1330430Y-172913D01*
X-1327087Y-169570D01*
X-1324308Y-165744D01*
X-1322161Y-161531D01*
X-1320700Y-157034D01*
X-1319960Y-152364D01*
Y-151302D01*
X-1319880Y-151003D01*
Y-148997D01*
X-1319960Y-148698D01*
Y-147636D01*
X-1320700Y-142966D01*
X-1322161Y-138469D01*
X-1324308Y-134256D01*
X-1327087Y-130430D01*
X-1330430Y-127087D01*
X-1334256Y-124307D01*
X-1338469Y-122161D01*
X-1342966Y-120700D01*
X-1347636Y-119960D01*
X-1348698D01*
X-1348997Y-119880D01*
D02*
G37*
G36*
X-1050797Y-172380D02*
X-1052803D01*
X-1054741Y-172899D01*
X-1056479Y-173902D01*
X-1057898Y-175321D01*
X-1058901Y-177059D01*
X-1059420Y-178997D01*
Y-181003D01*
X-1058901Y-182941D01*
X-1057898Y-184679D01*
X-1056479Y-186098D01*
X-1054741Y-187101D01*
X-1052803Y-187620D01*
X-1050797D01*
X-1048859Y-187101D01*
X-1047121Y-186098D01*
X-1045703Y-184679D01*
X-1044699Y-182941D01*
X-1044180Y-181003D01*
Y-178997D01*
X-1044699Y-177059D01*
X-1045703Y-175321D01*
X-1047121Y-173902D01*
X-1048859Y-172899D01*
X-1050797Y-172380D01*
D02*
G37*
G36*
X-1253997Y-172380D02*
X-1256003D01*
X-1257941Y-172899D01*
X-1259679Y-173902D01*
X-1261097Y-175321D01*
X-1262101Y-177059D01*
X-1262620Y-178997D01*
Y-181003D01*
X-1262101Y-182941D01*
X-1261097Y-184679D01*
X-1259679Y-186098D01*
X-1257941Y-187101D01*
X-1256003Y-187620D01*
X-1253997D01*
X-1252059Y-187101D01*
X-1250321Y-186098D01*
X-1248903Y-184679D01*
X-1247899Y-182941D01*
X-1247380Y-181003D01*
Y-178997D01*
X-1247899Y-177059D01*
X-1248903Y-175321D01*
X-1250321Y-173902D01*
X-1252059Y-172899D01*
X-1253997Y-172380D01*
D02*
G37*
G36*
X-1076197Y-172380D02*
X-1078203D01*
X-1080141Y-172899D01*
X-1081879Y-173903D01*
X-1083297Y-175321D01*
X-1084301Y-177059D01*
X-1084820Y-178997D01*
Y-181003D01*
X-1084301Y-182941D01*
X-1083297Y-184679D01*
X-1081879Y-186098D01*
X-1080141Y-187101D01*
X-1078203Y-187620D01*
X-1076197D01*
X-1074259Y-187101D01*
X-1072521Y-186098D01*
X-1071102Y-184679D01*
X-1070099Y-182941D01*
X-1069580Y-181003D01*
Y-178997D01*
X-1070099Y-177059D01*
X-1071102Y-175321D01*
X-1072521Y-173903D01*
X-1074259Y-172899D01*
X-1076197Y-172380D01*
D02*
G37*
G36*
X-1126997D02*
X-1129003D01*
X-1130941Y-172899D01*
X-1132679Y-173903D01*
X-1134097Y-175321D01*
X-1135100Y-177059D01*
X-1135620Y-178997D01*
Y-181003D01*
X-1135100Y-182941D01*
X-1134097Y-184679D01*
X-1132679Y-186098D01*
X-1130941Y-187101D01*
X-1129003Y-187620D01*
X-1126997D01*
X-1125059Y-187101D01*
X-1123321Y-186098D01*
X-1121902Y-184679D01*
X-1120899Y-182941D01*
X-1120380Y-181003D01*
Y-178997D01*
X-1120899Y-177059D01*
X-1121902Y-175321D01*
X-1123321Y-173903D01*
X-1125059Y-172899D01*
X-1126997Y-172380D01*
D02*
G37*
G36*
X-1228597D02*
X-1230603D01*
X-1232541Y-172899D01*
X-1234279Y-173903D01*
X-1235697Y-175321D01*
X-1236701Y-177059D01*
X-1237220Y-178997D01*
Y-181003D01*
X-1236701Y-182941D01*
X-1235697Y-184679D01*
X-1234279Y-186098D01*
X-1232541Y-187101D01*
X-1230603Y-187620D01*
X-1228597D01*
X-1226659Y-187101D01*
X-1224921Y-186098D01*
X-1223502Y-184679D01*
X-1222499Y-182941D01*
X-1221980Y-181003D01*
Y-178997D01*
X-1222499Y-177059D01*
X-1223502Y-175321D01*
X-1224921Y-173903D01*
X-1226659Y-172899D01*
X-1228597Y-172380D01*
D02*
G37*
G36*
X-949197Y-172380D02*
X-951203D01*
X-953141Y-172899D01*
X-954879Y-173903D01*
X-956297Y-175321D01*
X-957300Y-177059D01*
X-957820Y-178997D01*
Y-181003D01*
X-957300Y-182941D01*
X-956297Y-184679D01*
X-954879Y-186098D01*
X-953141Y-187101D01*
X-951203Y-187620D01*
X-949197D01*
X-947259Y-187101D01*
X-945521Y-186098D01*
X-944102Y-184679D01*
X-943099Y-182941D01*
X-942580Y-181003D01*
Y-178997D01*
X-943099Y-177059D01*
X-944102Y-175321D01*
X-945521Y-173903D01*
X-947259Y-172899D01*
X-949197Y-172380D01*
D02*
G37*
G36*
X-974597D02*
X-976603D01*
X-978541Y-172899D01*
X-980279Y-173903D01*
X-981697Y-175321D01*
X-982701Y-177059D01*
X-983220Y-178997D01*
Y-181003D01*
X-982701Y-182941D01*
X-981697Y-184679D01*
X-980279Y-186098D01*
X-978541Y-187101D01*
X-976603Y-187620D01*
X-974597D01*
X-972658Y-187101D01*
X-970921Y-186098D01*
X-969502Y-184679D01*
X-968499Y-182941D01*
X-967980Y-181003D01*
Y-178997D01*
X-968499Y-177059D01*
X-969502Y-175321D01*
X-970921Y-173903D01*
X-972658Y-172899D01*
X-974597Y-172380D01*
D02*
G37*
G36*
X-999997D02*
X-1002003D01*
X-1003941Y-172899D01*
X-1005679Y-173903D01*
X-1007097Y-175321D01*
X-1008101Y-177059D01*
X-1008620Y-178997D01*
Y-181003D01*
X-1008101Y-182941D01*
X-1007097Y-184679D01*
X-1005679Y-186098D01*
X-1003941Y-187101D01*
X-1002003Y-187620D01*
X-999997D01*
X-998058Y-187101D01*
X-996321Y-186098D01*
X-994902Y-184679D01*
X-993899Y-182941D01*
X-993380Y-181003D01*
Y-178997D01*
X-993899Y-177059D01*
X-994902Y-175321D01*
X-996321Y-173903D01*
X-998058Y-172899D01*
X-999997Y-172380D01*
D02*
G37*
G36*
X-1025397D02*
X-1027403D01*
X-1029341Y-172899D01*
X-1031079Y-173903D01*
X-1032497Y-175321D01*
X-1033501Y-177059D01*
X-1034020Y-178997D01*
Y-181003D01*
X-1033501Y-182941D01*
X-1032497Y-184679D01*
X-1031079Y-186098D01*
X-1029341Y-187101D01*
X-1027403Y-187620D01*
X-1025397D01*
X-1023458Y-187101D01*
X-1021721Y-186098D01*
X-1020302Y-184679D01*
X-1019299Y-182941D01*
X-1018780Y-181003D01*
Y-178997D01*
X-1019299Y-177059D01*
X-1020302Y-175321D01*
X-1021721Y-173903D01*
X-1023458Y-172899D01*
X-1025397Y-172380D01*
D02*
G37*
G36*
X-1101597D02*
X-1103603D01*
X-1105541Y-172899D01*
X-1107279Y-173903D01*
X-1108697Y-175321D01*
X-1109700Y-177059D01*
X-1110220Y-178997D01*
Y-181003D01*
X-1109700Y-182941D01*
X-1108697Y-184679D01*
X-1107279Y-186098D01*
X-1105541Y-187101D01*
X-1103603Y-187620D01*
X-1101597D01*
X-1099659Y-187101D01*
X-1097921Y-186098D01*
X-1096502Y-184679D01*
X-1095499Y-182941D01*
X-1094980Y-181003D01*
Y-178997D01*
X-1095499Y-177059D01*
X-1096502Y-175321D01*
X-1097921Y-173903D01*
X-1099659Y-172899D01*
X-1101597Y-172380D01*
D02*
G37*
G36*
X-1177797D02*
X-1179803D01*
X-1181741Y-172899D01*
X-1183479Y-173903D01*
X-1184897Y-175321D01*
X-1185900Y-177059D01*
X-1186420Y-178997D01*
Y-181003D01*
X-1185900Y-182941D01*
X-1184897Y-184679D01*
X-1183479Y-186098D01*
X-1181741Y-187101D01*
X-1179803Y-187620D01*
X-1177797D01*
X-1175859Y-187101D01*
X-1174121Y-186098D01*
X-1172702Y-184679D01*
X-1171699Y-182941D01*
X-1171180Y-181003D01*
Y-178997D01*
X-1171699Y-177059D01*
X-1172702Y-175321D01*
X-1174121Y-173903D01*
X-1175859Y-172899D01*
X-1177797Y-172380D01*
D02*
G37*
G36*
X-1203197D02*
X-1205203D01*
X-1207141Y-172899D01*
X-1208879Y-173903D01*
X-1210297Y-175321D01*
X-1211301Y-177059D01*
X-1211820Y-178997D01*
Y-181003D01*
X-1211301Y-182941D01*
X-1210297Y-184679D01*
X-1208879Y-186098D01*
X-1207141Y-187101D01*
X-1205203Y-187620D01*
X-1203197D01*
X-1201258Y-187101D01*
X-1199521Y-186098D01*
X-1198102Y-184679D01*
X-1197099Y-182941D01*
X-1196580Y-181003D01*
Y-178997D01*
X-1197099Y-177059D01*
X-1198102Y-175321D01*
X-1199521Y-173903D01*
X-1201258Y-172899D01*
X-1203197Y-172380D01*
D02*
G37*
G36*
X-1152396Y-172380D02*
X-1154403D01*
X-1156341Y-172900D01*
X-1158079Y-173903D01*
X-1159497Y-175322D01*
X-1160500Y-177059D01*
X-1161020Y-178997D01*
Y-181003D01*
X-1160500Y-182942D01*
X-1159497Y-184679D01*
X-1158079Y-186098D01*
X-1156341Y-187101D01*
X-1154403Y-187620D01*
X-1152396D01*
X-1150458Y-187101D01*
X-1148721Y-186098D01*
X-1147302Y-184679D01*
X-1146299Y-182942D01*
X-1145780Y-181003D01*
Y-178997D01*
X-1146299Y-177059D01*
X-1147302Y-175322D01*
X-1148721Y-173903D01*
X-1150458Y-172900D01*
X-1152396Y-172380D01*
D02*
G37*
G36*
X-176710Y-166710D02*
X-198290D01*
Y-188290D01*
X-176710D01*
Y-166710D01*
D02*
G37*
G36*
X-389210Y-239210D02*
X-410790D01*
Y-260790D01*
X-389210D01*
Y-239210D01*
D02*
G37*
G36*
X-423980D02*
X-426821D01*
X-429565Y-239945D01*
X-432025Y-241366D01*
X-434034Y-243375D01*
X-435455Y-245835D01*
X-436190Y-248580D01*
Y-251420D01*
X-435455Y-254165D01*
X-434034Y-256625D01*
X-432025Y-258634D01*
X-429565Y-260055D01*
X-426821Y-260790D01*
X-423980D01*
X-421235Y-260055D01*
X-418775Y-258634D01*
X-416766Y-256625D01*
X-415345Y-254165D01*
X-414610Y-251420D01*
Y-248580D01*
X-415345Y-245835D01*
X-416766Y-243375D01*
X-418775Y-241366D01*
X-421235Y-239945D01*
X-423980Y-239210D01*
D02*
G37*
G36*
X-449380D02*
X-452221D01*
X-454965Y-239945D01*
X-457425Y-241366D01*
X-459434Y-243375D01*
X-460855Y-245835D01*
X-461590Y-248580D01*
Y-251420D01*
X-460855Y-254165D01*
X-459434Y-256625D01*
X-457425Y-258634D01*
X-454965Y-260055D01*
X-452221Y-260790D01*
X-449380D01*
X-446635Y-260055D01*
X-444175Y-258634D01*
X-442166Y-256625D01*
X-440745Y-254165D01*
X-440010Y-251420D01*
Y-248580D01*
X-440745Y-245835D01*
X-442166Y-243375D01*
X-444175Y-241366D01*
X-446635Y-239945D01*
X-449380Y-239210D01*
D02*
G37*
G36*
X-474780D02*
X-477621D01*
X-480365Y-239945D01*
X-482825Y-241366D01*
X-484834Y-243375D01*
X-486255Y-245835D01*
X-486990Y-248580D01*
Y-251420D01*
X-486255Y-254165D01*
X-484834Y-256625D01*
X-482825Y-258634D01*
X-480365Y-260055D01*
X-477621Y-260790D01*
X-474780D01*
X-472035Y-260055D01*
X-469575Y-258634D01*
X-467566Y-256625D01*
X-466145Y-254165D01*
X-465410Y-251420D01*
Y-248580D01*
X-466145Y-245835D01*
X-467566Y-243375D01*
X-469575Y-241366D01*
X-472035Y-239945D01*
X-474780Y-239210D01*
D02*
G37*
G36*
X-500180D02*
X-503021D01*
X-505765Y-239945D01*
X-508225Y-241366D01*
X-510234Y-243375D01*
X-511655Y-245835D01*
X-512390Y-248580D01*
Y-251420D01*
X-511655Y-254165D01*
X-510234Y-256625D01*
X-508225Y-258634D01*
X-505765Y-260055D01*
X-503021Y-260790D01*
X-500180D01*
X-497435Y-260055D01*
X-494975Y-258634D01*
X-492966Y-256625D01*
X-491545Y-254165D01*
X-490810Y-251420D01*
Y-248580D01*
X-491545Y-245835D01*
X-492966Y-243375D01*
X-494975Y-241366D01*
X-497435Y-239945D01*
X-500180Y-239210D01*
D02*
G37*
G36*
X-525580D02*
X-528421D01*
X-531165Y-239945D01*
X-533625Y-241366D01*
X-535634Y-243375D01*
X-537055Y-245835D01*
X-537790Y-248580D01*
Y-251420D01*
X-537055Y-254165D01*
X-535634Y-256625D01*
X-533625Y-258634D01*
X-531165Y-260055D01*
X-528421Y-260790D01*
X-525580D01*
X-522835Y-260055D01*
X-520375Y-258634D01*
X-518366Y-256625D01*
X-516945Y-254165D01*
X-516210Y-251420D01*
Y-248580D01*
X-516945Y-245835D01*
X-518366Y-243375D01*
X-520375Y-241366D01*
X-522835Y-239945D01*
X-525580Y-239210D01*
D02*
G37*
G36*
X-550980D02*
X-553821D01*
X-556565Y-239945D01*
X-559025Y-241366D01*
X-561034Y-243375D01*
X-562455Y-245835D01*
X-563190Y-248580D01*
Y-251420D01*
X-562455Y-254165D01*
X-561034Y-256625D01*
X-559025Y-258634D01*
X-556565Y-260055D01*
X-553821Y-260790D01*
X-550980D01*
X-548235Y-260055D01*
X-545775Y-258634D01*
X-543766Y-256625D01*
X-542345Y-254165D01*
X-541610Y-251420D01*
Y-248580D01*
X-542345Y-245835D01*
X-543766Y-243375D01*
X-545775Y-241366D01*
X-548235Y-239945D01*
X-550980Y-239210D01*
D02*
G37*
G36*
X-576380D02*
X-579221D01*
X-581965Y-239945D01*
X-584425Y-241366D01*
X-586434Y-243375D01*
X-587855Y-245835D01*
X-588590Y-248580D01*
Y-251420D01*
X-587855Y-254165D01*
X-586434Y-256625D01*
X-584425Y-258634D01*
X-581965Y-260055D01*
X-579221Y-260790D01*
X-576380D01*
X-573635Y-260055D01*
X-571175Y-258634D01*
X-569166Y-256625D01*
X-567745Y-254165D01*
X-567010Y-251420D01*
Y-248580D01*
X-567745Y-245835D01*
X-569166Y-243375D01*
X-571175Y-241366D01*
X-573635Y-239945D01*
X-576380Y-239210D01*
D02*
G37*
G36*
X-601780D02*
X-604621D01*
X-607365Y-239945D01*
X-609825Y-241366D01*
X-611834Y-243375D01*
X-613255Y-245835D01*
X-613990Y-248580D01*
Y-251420D01*
X-613255Y-254165D01*
X-611834Y-256625D01*
X-609825Y-258634D01*
X-607365Y-260055D01*
X-604621Y-260790D01*
X-601780D01*
X-599035Y-260055D01*
X-596575Y-258634D01*
X-594566Y-256625D01*
X-593145Y-254165D01*
X-592410Y-251420D01*
Y-248580D01*
X-593145Y-245835D01*
X-594566Y-243375D01*
X-596575Y-241366D01*
X-599035Y-239945D01*
X-601780Y-239210D01*
D02*
G37*
G36*
X-627180D02*
X-630021D01*
X-632765Y-239945D01*
X-635225Y-241366D01*
X-637234Y-243375D01*
X-638655Y-245835D01*
X-639390Y-248580D01*
Y-251420D01*
X-638655Y-254165D01*
X-637234Y-256625D01*
X-635225Y-258634D01*
X-632765Y-260055D01*
X-630021Y-260790D01*
X-627180D01*
X-624435Y-260055D01*
X-621975Y-258634D01*
X-619966Y-256625D01*
X-618545Y-254165D01*
X-617810Y-251420D01*
Y-248580D01*
X-618545Y-245835D01*
X-619966Y-243375D01*
X-621975Y-241366D01*
X-624435Y-239945D01*
X-627180Y-239210D01*
D02*
G37*
G36*
X-652580D02*
X-655421D01*
X-658165Y-239945D01*
X-660625Y-241366D01*
X-662634Y-243375D01*
X-664055Y-245835D01*
X-664790Y-248580D01*
Y-251420D01*
X-664055Y-254165D01*
X-662634Y-256625D01*
X-660625Y-258634D01*
X-658165Y-260055D01*
X-655421Y-260790D01*
X-652580D01*
X-649835Y-260055D01*
X-647375Y-258634D01*
X-645366Y-256625D01*
X-643945Y-254165D01*
X-643210Y-251420D01*
Y-248580D01*
X-643945Y-245835D01*
X-645366Y-243375D01*
X-647375Y-241366D01*
X-649835Y-239945D01*
X-652580Y-239210D01*
D02*
G37*
G36*
X-677980D02*
X-680821D01*
X-683565Y-239945D01*
X-686025Y-241366D01*
X-688034Y-243375D01*
X-689455Y-245835D01*
X-690190Y-248580D01*
Y-251420D01*
X-689455Y-254165D01*
X-688034Y-256625D01*
X-686025Y-258634D01*
X-683565Y-260055D01*
X-680821Y-260790D01*
X-677980D01*
X-675235Y-260055D01*
X-672775Y-258634D01*
X-670766Y-256625D01*
X-669345Y-254165D01*
X-668610Y-251420D01*
Y-248580D01*
X-669345Y-245835D01*
X-670766Y-243375D01*
X-672775Y-241366D01*
X-675235Y-239945D01*
X-677980Y-239210D01*
D02*
G37*
G36*
X-703380D02*
X-706221D01*
X-708965Y-239945D01*
X-711425Y-241366D01*
X-713434Y-243375D01*
X-714855Y-245835D01*
X-715590Y-248580D01*
Y-251420D01*
X-714855Y-254165D01*
X-713434Y-256625D01*
X-711425Y-258634D01*
X-708965Y-260055D01*
X-706221Y-260790D01*
X-703380D01*
X-700635Y-260055D01*
X-698175Y-258634D01*
X-696166Y-256625D01*
X-694745Y-254165D01*
X-694010Y-251420D01*
Y-248580D01*
X-694745Y-245835D01*
X-696166Y-243375D01*
X-698175Y-241366D01*
X-700635Y-239945D01*
X-703380Y-239210D01*
D02*
G37*
G36*
X-939210D02*
X-960790D01*
Y-260790D01*
X-939210D01*
Y-239210D01*
D02*
G37*
G36*
X-973979D02*
X-976821D01*
X-979565Y-239945D01*
X-982025Y-241366D01*
X-984034Y-243375D01*
X-985455Y-245835D01*
X-986190Y-248580D01*
Y-251420D01*
X-985455Y-254165D01*
X-984034Y-256625D01*
X-982025Y-258634D01*
X-979565Y-260055D01*
X-976821Y-260790D01*
X-973979D01*
X-971235Y-260055D01*
X-968775Y-258634D01*
X-966766Y-256625D01*
X-965345Y-254165D01*
X-964610Y-251420D01*
Y-248580D01*
X-965345Y-245835D01*
X-966766Y-243375D01*
X-968775Y-241366D01*
X-971235Y-239945D01*
X-973979Y-239210D01*
D02*
G37*
G36*
X-999380D02*
X-1002221D01*
X-1004965Y-239945D01*
X-1007425Y-241366D01*
X-1009434Y-243375D01*
X-1010855Y-245835D01*
X-1011590Y-248580D01*
Y-251420D01*
X-1010855Y-254165D01*
X-1009434Y-256625D01*
X-1007425Y-258634D01*
X-1004965Y-260055D01*
X-1002221Y-260790D01*
X-999380D01*
X-996635Y-260055D01*
X-994175Y-258634D01*
X-992166Y-256625D01*
X-990745Y-254165D01*
X-990010Y-251420D01*
Y-248580D01*
X-990745Y-245835D01*
X-992166Y-243375D01*
X-994175Y-241366D01*
X-996635Y-239945D01*
X-999380Y-239210D01*
D02*
G37*
G36*
X-1024780D02*
X-1027621D01*
X-1030365Y-239945D01*
X-1032825Y-241366D01*
X-1034834Y-243375D01*
X-1036255Y-245835D01*
X-1036990Y-248580D01*
Y-251420D01*
X-1036255Y-254165D01*
X-1034834Y-256625D01*
X-1032825Y-258634D01*
X-1030365Y-260055D01*
X-1027621Y-260790D01*
X-1024780D01*
X-1022035Y-260055D01*
X-1019575Y-258634D01*
X-1017566Y-256625D01*
X-1016145Y-254165D01*
X-1015410Y-251420D01*
Y-248580D01*
X-1016145Y-245835D01*
X-1017566Y-243375D01*
X-1019575Y-241366D01*
X-1022035Y-239945D01*
X-1024780Y-239210D01*
D02*
G37*
G36*
X-1050180D02*
X-1053021D01*
X-1055765Y-239945D01*
X-1058225Y-241366D01*
X-1060234Y-243375D01*
X-1061655Y-245835D01*
X-1062390Y-248580D01*
Y-251420D01*
X-1061655Y-254165D01*
X-1060234Y-256625D01*
X-1058225Y-258634D01*
X-1055765Y-260055D01*
X-1053021Y-260790D01*
X-1050180D01*
X-1047435Y-260055D01*
X-1044975Y-258634D01*
X-1042966Y-256625D01*
X-1041545Y-254165D01*
X-1040810Y-251420D01*
Y-248580D01*
X-1041545Y-245835D01*
X-1042966Y-243375D01*
X-1044975Y-241366D01*
X-1047435Y-239945D01*
X-1050180Y-239210D01*
D02*
G37*
G36*
X-1075580D02*
X-1078421D01*
X-1081165Y-239945D01*
X-1083625Y-241366D01*
X-1085634Y-243375D01*
X-1087055Y-245835D01*
X-1087790Y-248580D01*
Y-251420D01*
X-1087055Y-254165D01*
X-1085634Y-256625D01*
X-1083625Y-258634D01*
X-1081165Y-260055D01*
X-1078421Y-260790D01*
X-1075580D01*
X-1072835Y-260055D01*
X-1070375Y-258634D01*
X-1068366Y-256625D01*
X-1066945Y-254165D01*
X-1066210Y-251420D01*
Y-248580D01*
X-1066945Y-245835D01*
X-1068366Y-243375D01*
X-1070375Y-241366D01*
X-1072835Y-239945D01*
X-1075580Y-239210D01*
D02*
G37*
G36*
X-1100980D02*
X-1103821D01*
X-1106565Y-239945D01*
X-1109025Y-241366D01*
X-1111034Y-243375D01*
X-1112455Y-245835D01*
X-1113190Y-248580D01*
Y-251420D01*
X-1112455Y-254165D01*
X-1111034Y-256625D01*
X-1109025Y-258634D01*
X-1106565Y-260055D01*
X-1103821Y-260790D01*
X-1100980D01*
X-1098235Y-260055D01*
X-1095775Y-258634D01*
X-1093766Y-256625D01*
X-1092345Y-254165D01*
X-1091610Y-251420D01*
Y-248580D01*
X-1092345Y-245835D01*
X-1093766Y-243375D01*
X-1095775Y-241366D01*
X-1098235Y-239945D01*
X-1100980Y-239210D01*
D02*
G37*
G36*
X-1126379D02*
X-1129221D01*
X-1131965Y-239945D01*
X-1134425Y-241366D01*
X-1136434Y-243375D01*
X-1137855Y-245835D01*
X-1138590Y-248580D01*
Y-251420D01*
X-1137855Y-254165D01*
X-1136434Y-256625D01*
X-1134425Y-258634D01*
X-1131965Y-260055D01*
X-1129221Y-260790D01*
X-1126379D01*
X-1123635Y-260055D01*
X-1121175Y-258634D01*
X-1119166Y-256625D01*
X-1117745Y-254165D01*
X-1117010Y-251420D01*
Y-248580D01*
X-1117745Y-245835D01*
X-1119166Y-243375D01*
X-1121175Y-241366D01*
X-1123635Y-239945D01*
X-1126379Y-239210D01*
D02*
G37*
G36*
X-1151779D02*
X-1154621D01*
X-1157365Y-239945D01*
X-1159825Y-241366D01*
X-1161834Y-243375D01*
X-1163255Y-245835D01*
X-1163990Y-248580D01*
Y-251420D01*
X-1163255Y-254165D01*
X-1161834Y-256625D01*
X-1159825Y-258634D01*
X-1157365Y-260055D01*
X-1154621Y-260790D01*
X-1151779D01*
X-1149035Y-260055D01*
X-1146575Y-258634D01*
X-1144566Y-256625D01*
X-1143145Y-254165D01*
X-1142410Y-251420D01*
Y-248580D01*
X-1143145Y-245835D01*
X-1144566Y-243375D01*
X-1146575Y-241366D01*
X-1149035Y-239945D01*
X-1151779Y-239210D01*
D02*
G37*
G36*
X-1177179D02*
X-1180021D01*
X-1182765Y-239945D01*
X-1185225Y-241366D01*
X-1187234Y-243375D01*
X-1188655Y-245835D01*
X-1189390Y-248580D01*
Y-251420D01*
X-1188655Y-254165D01*
X-1187234Y-256625D01*
X-1185225Y-258634D01*
X-1182765Y-260055D01*
X-1180021Y-260790D01*
X-1177179D01*
X-1174435Y-260055D01*
X-1171975Y-258634D01*
X-1169966Y-256625D01*
X-1168545Y-254165D01*
X-1167810Y-251420D01*
Y-248580D01*
X-1168545Y-245835D01*
X-1169966Y-243375D01*
X-1171975Y-241366D01*
X-1174435Y-239945D01*
X-1177179Y-239210D01*
D02*
G37*
G36*
X-1202579D02*
X-1205421D01*
X-1208165Y-239945D01*
X-1210625Y-241366D01*
X-1212634Y-243375D01*
X-1214055Y-245835D01*
X-1214790Y-248580D01*
Y-251420D01*
X-1214055Y-254165D01*
X-1212634Y-256625D01*
X-1210625Y-258634D01*
X-1208165Y-260055D01*
X-1205421Y-260790D01*
X-1202579D01*
X-1199835Y-260055D01*
X-1197375Y-258634D01*
X-1195366Y-256625D01*
X-1193945Y-254165D01*
X-1193210Y-251420D01*
Y-248580D01*
X-1193945Y-245835D01*
X-1195366Y-243375D01*
X-1197375Y-241366D01*
X-1199835Y-239945D01*
X-1202579Y-239210D01*
D02*
G37*
G36*
X-1227980D02*
X-1230821D01*
X-1233565Y-239945D01*
X-1236025Y-241366D01*
X-1238034Y-243375D01*
X-1239455Y-245835D01*
X-1240190Y-248580D01*
Y-251420D01*
X-1239455Y-254165D01*
X-1238034Y-256625D01*
X-1236025Y-258634D01*
X-1233565Y-260055D01*
X-1230821Y-260790D01*
X-1227980D01*
X-1225235Y-260055D01*
X-1222775Y-258634D01*
X-1220766Y-256625D01*
X-1219345Y-254165D01*
X-1218610Y-251420D01*
Y-248580D01*
X-1219345Y-245835D01*
X-1220766Y-243375D01*
X-1222775Y-241366D01*
X-1225235Y-239945D01*
X-1227980Y-239210D01*
D02*
G37*
G36*
X-1253380D02*
X-1256221D01*
X-1258965Y-239945D01*
X-1261425Y-241366D01*
X-1263434Y-243375D01*
X-1264855Y-245835D01*
X-1265590Y-248580D01*
Y-251420D01*
X-1264855Y-254165D01*
X-1263434Y-256625D01*
X-1261425Y-258634D01*
X-1258965Y-260055D01*
X-1256221Y-260790D01*
X-1253380D01*
X-1250635Y-260055D01*
X-1248175Y-258634D01*
X-1246166Y-256625D01*
X-1244745Y-254165D01*
X-1244010Y-251420D01*
Y-248580D01*
X-1244745Y-245835D01*
X-1246166Y-243375D01*
X-1248175Y-241366D01*
X-1250635Y-239945D01*
X-1253380Y-239210D01*
D02*
G37*
G36*
X-168997Y-269880D02*
X-171003D01*
X-171302Y-269960D01*
X-172364D01*
X-177034Y-270700D01*
X-181531Y-272161D01*
X-185744Y-274307D01*
X-189570Y-277087D01*
X-192913Y-280430D01*
X-195693Y-284256D01*
X-197839Y-288469D01*
X-199300Y-292966D01*
X-200040Y-297636D01*
Y-298698D01*
X-200120Y-298997D01*
Y-301003D01*
X-200040Y-301302D01*
Y-302364D01*
X-199300Y-307034D01*
X-197839Y-311531D01*
X-195693Y-315744D01*
X-192913Y-319570D01*
X-189570Y-322913D01*
X-185744Y-325692D01*
X-181531Y-327839D01*
X-177034Y-329300D01*
X-172364Y-330040D01*
X-171302D01*
X-171003Y-330120D01*
X-168997D01*
X-168698Y-330040D01*
X-167636D01*
X-162966Y-329300D01*
X-158469Y-327839D01*
X-154256Y-325692D01*
X-150430Y-322913D01*
X-147087Y-319570D01*
X-144307Y-315744D01*
X-142161Y-311531D01*
X-140700Y-307034D01*
X-139960Y-302364D01*
Y-301302D01*
X-139880Y-301003D01*
Y-298997D01*
X-139960Y-298698D01*
Y-297636D01*
X-140700Y-292966D01*
X-142161Y-288469D01*
X-144307Y-284256D01*
X-147087Y-280430D01*
X-150430Y-277087D01*
X-154256Y-274307D01*
X-158469Y-272161D01*
X-162966Y-270700D01*
X-167636Y-269960D01*
X-168698D01*
X-168997Y-269880D01*
D02*
G37*
%LPD*%
D20*
X-400000Y250000D02*
D03*
X-950000Y-250000D02*
D03*
X-400000D02*
D03*
X-950000Y250000D02*
D03*
D21*
X-425400D02*
D03*
X-450800D02*
D03*
X-476200D02*
D03*
X-501600D02*
D03*
X-527000D02*
D03*
X-552400D02*
D03*
X-577800D02*
D03*
X-603200D02*
D03*
X-628600D02*
D03*
X-654000D02*
D03*
X-679400D02*
D03*
X-704800D02*
D03*
X-730200D02*
D03*
X-755600D02*
D03*
X-212900Y-177500D02*
D03*
X-187500Y-152100D02*
D03*
X-212900D02*
D03*
X-187500Y-126700D02*
D03*
X-212900D02*
D03*
X-187500Y-101300D02*
D03*
X-212900D02*
D03*
X-187500Y-75900D02*
D03*
X-212900D02*
D03*
X-187500Y-50500D02*
D03*
X-212900D02*
D03*
X-187500Y-25100D02*
D03*
X-212900D02*
D03*
X-187500Y300D02*
D03*
X-212900D02*
D03*
X-187500Y25700D02*
D03*
X-212900D02*
D03*
X-187500Y51100D02*
D03*
X-212900D02*
D03*
X-187500Y76500D02*
D03*
X-212900D02*
D03*
X-187500Y101900D02*
D03*
X-212900D02*
D03*
X-187500Y127300D02*
D03*
X-212900D02*
D03*
X-187500Y152700D02*
D03*
X-212900D02*
D03*
X-187500Y178100D02*
D03*
X-212900D02*
D03*
X-1305600Y-250000D02*
D03*
X-1280200D02*
D03*
X-1254800D02*
D03*
X-1229400D02*
D03*
X-1204000D02*
D03*
X-1178600D02*
D03*
X-1153200D02*
D03*
X-1127800D02*
D03*
X-1102400D02*
D03*
X-1077000D02*
D03*
X-1051600D02*
D03*
X-1026200D02*
D03*
X-1000800D02*
D03*
X-975400D02*
D03*
X-755600D02*
D03*
X-730200D02*
D03*
X-704800D02*
D03*
X-679400D02*
D03*
X-654000D02*
D03*
X-628600D02*
D03*
X-603200D02*
D03*
X-577800D02*
D03*
X-552400D02*
D03*
X-527000D02*
D03*
X-501600D02*
D03*
X-476200D02*
D03*
X-450800D02*
D03*
X-425400D02*
D03*
X-1305600Y250000D02*
D03*
X-1280200D02*
D03*
X-1254800D02*
D03*
X-1229400D02*
D03*
X-1204000D02*
D03*
X-1178600D02*
D03*
X-1153200D02*
D03*
X-1127800D02*
D03*
X-1102400D02*
D03*
X-1077000D02*
D03*
X-1051600D02*
D03*
X-1026200D02*
D03*
X-1000800D02*
D03*
X-975400D02*
D03*
D22*
X-187500Y-177500D02*
D03*
D23*
X-1350000Y-150000D02*
D03*
Y150000D02*
D03*
X-170000Y-300000D02*
D03*
Y300000D02*
D03*
D24*
X-1350000Y-172500D02*
D03*
X-1327500Y-150000D02*
D03*
X-1372500D02*
D03*
X-1350000Y-127500D02*
D03*
X-1335000Y-135000D02*
D03*
X-1365000D02*
D03*
X-1335000Y-165000D02*
D03*
X-1365000D02*
D03*
X-1350000Y127500D02*
D03*
X-1327500Y150000D02*
D03*
X-1372500D02*
D03*
X-1350000Y172500D02*
D03*
X-1335000Y165000D02*
D03*
X-1365000D02*
D03*
X-1335000Y135000D02*
D03*
X-1365000D02*
D03*
X-170000Y-322500D02*
D03*
X-147500Y-300000D02*
D03*
X-192500D02*
D03*
X-170000Y-277500D02*
D03*
X-155000Y-285000D02*
D03*
X-185000D02*
D03*
X-155000Y-315000D02*
D03*
X-185000D02*
D03*
Y285000D02*
D03*
X-155000D02*
D03*
X-185000Y315000D02*
D03*
X-155000D02*
D03*
X-170000Y322500D02*
D03*
X-192500Y300000D02*
D03*
X-147500D02*
D03*
X-170000Y277500D02*
D03*
X-122500Y-207500D02*
D03*
Y-192500D02*
D03*
X-122500Y-172500D02*
D03*
X-122500Y-157916D02*
D03*
X-122500Y-138958D02*
D03*
X-122500Y-124375D02*
D03*
X-122500Y-105416D02*
D03*
X-122500Y-90833D02*
D03*
X-122500Y-71875D02*
D03*
X-122500Y-57291D02*
D03*
X-122500Y-40833D02*
D03*
X-122500Y-26250D02*
D03*
X-122500Y-10000D02*
D03*
X-122500Y4792D02*
D03*
Y23333D02*
D03*
X-122500Y38750D02*
D03*
X-122500Y56875D02*
D03*
X-122500Y72291D02*
D03*
X-122500Y90417D02*
D03*
X-122500Y105833D02*
D03*
X-122500Y123958D02*
D03*
X-122500Y139375D02*
D03*
X-122500Y155000D02*
D03*
X-122500Y170416D02*
D03*
X-122500Y187500D02*
D03*
Y202500D02*
D03*
X-382938Y167500D02*
D03*
X-1229188Y-315000D02*
D03*
X-1203788D02*
D03*
X-1178388D02*
D03*
X-1127588Y-315000D02*
D03*
X-1102188Y-315000D02*
D03*
X-1076788Y-315000D02*
D03*
X-1051388Y-315000D02*
D03*
X-1025988Y-315000D02*
D03*
X-1000588D02*
D03*
X-975188Y-315000D02*
D03*
X-1152988Y-315000D02*
D03*
X-679400Y-315000D02*
D03*
X-654000D02*
D03*
X-628600D02*
D03*
X-603200Y-315000D02*
D03*
X-577800Y-315000D02*
D03*
X-552400Y-315000D02*
D03*
X-527000Y-315000D02*
D03*
X-501600Y-315000D02*
D03*
X-476200Y-315000D02*
D03*
X-450800D02*
D03*
X-425400Y-315000D02*
D03*
X-425400Y315000D02*
D03*
X-450800D02*
D03*
X-476200D02*
D03*
X-501600Y315000D02*
D03*
X-527000Y315000D02*
D03*
X-552400Y315000D02*
D03*
X-577800Y315000D02*
D03*
X-603200Y315000D02*
D03*
X-628600Y315000D02*
D03*
X-654000D02*
D03*
X-679400Y315000D02*
D03*
X-975400Y315000D02*
D03*
X-1000800D02*
D03*
X-1026200D02*
D03*
X-1051600Y315000D02*
D03*
X-1077000Y315000D02*
D03*
X-1102400Y315000D02*
D03*
X-1127800Y315000D02*
D03*
X-1153200Y315000D02*
D03*
X-1178600Y315000D02*
D03*
X-1204000D02*
D03*
X-1229400Y315000D02*
D03*
X-1254800Y315000D02*
D03*
X-950000Y315000D02*
D03*
X-704800Y315000D02*
D03*
X-400000Y315000D02*
D03*
X-704800Y-315000D02*
D03*
X-400000Y-315000D02*
D03*
X-1254588Y-315000D02*
D03*
X-949788Y-315000D02*
D03*
X-530000Y5000D02*
D03*
X-517500Y20000D02*
D03*
X-505000Y32500D02*
D03*
X-492500Y47500D02*
D03*
X-482500Y60000D02*
D03*
X-470000Y75000D02*
D03*
X-457500Y87500D02*
D03*
X-445000Y100000D02*
D03*
X-432500Y112500D02*
D03*
X-420000Y125000D02*
D03*
X-407500Y137500D02*
D03*
X-395600Y152700D02*
D03*
X-1153400Y-180000D02*
D03*
X-1178800Y-180000D02*
D03*
X-387500Y-157500D02*
D03*
X-375000Y-172500D02*
D03*
X-400000Y-145000D02*
D03*
X-412500Y-132500D02*
D03*
X-425000Y-120000D02*
D03*
X-437500Y-107500D02*
D03*
X-450000Y-95000D02*
D03*
X-462500Y-80000D02*
D03*
X-475000Y-67500D02*
D03*
X-487500Y-55000D02*
D03*
X-500000Y-42500D02*
D03*
X-512500Y-30000D02*
D03*
X-525000Y-17500D02*
D03*
X-1255000Y-180000D02*
D03*
X-1051800Y-180000D02*
D03*
X-950200Y-180000D02*
D03*
X-975600D02*
D03*
X-1102600D02*
D03*
X-1128000Y-180000D02*
D03*
X-1229600D02*
D03*
X-1001000Y-180000D02*
D03*
X-1026400D02*
D03*
X-1204200D02*
D03*
X-1077200Y-180000D02*
D03*
X-577800Y182500D02*
D03*
X-450800Y182500D02*
D03*
X-628600D02*
D03*
X-654000D02*
D03*
X-501600Y182500D02*
D03*
X-425400Y182500D02*
D03*
X-476200Y182500D02*
D03*
X-527000Y182500D02*
D03*
X-552400Y182500D02*
D03*
X-679400D02*
D03*
X-704800D02*
D03*
X-603200Y182500D02*
D03*
X-400000Y182500D02*
D03*
M02*
