G04*
G04 #@! TF.GenerationSoftware,Altium Limited,Altium Designer,24.8.2 (39)*
G04*
G04 Layer_Color=128*
%FSLAX44Y44*%
%MOMM*%
G71*
G04*
G04 #@! TF.SameCoordinates,D705C54D-982C-4BB1-A353-505B4E6A0F35*
G04*
G04*
G04 #@! TF.FilePolarity,Positive*
G04*
G01*
G75*
%ADD25R,0.9500X1.0000*%
D25*
X-137000Y-172500D02*
D03*
X-153000D02*
D03*
X-137000Y-207500D02*
D03*
X-153000D02*
D03*
X-137000Y-192500D02*
D03*
X-153000D02*
D03*
X-137000Y-157916D02*
D03*
X-153000D02*
D03*
X-137000Y-124375D02*
D03*
X-153000D02*
D03*
X-137000Y-90833D02*
D03*
X-153000D02*
D03*
X-137000Y-57292D02*
D03*
X-153000D02*
D03*
X-137000Y-26250D02*
D03*
X-153000D02*
D03*
X-137000Y4792D02*
D03*
X-153000D02*
D03*
X-137000Y23333D02*
D03*
X-153000D02*
D03*
X-137000Y56875D02*
D03*
X-153000D02*
D03*
X-137000Y90416D02*
D03*
X-153000D02*
D03*
X-137000Y123958D02*
D03*
X-153000D02*
D03*
X-137000Y155000D02*
D03*
X-153000D02*
D03*
X-137000Y202500D02*
D03*
X-153000D02*
D03*
X-137000Y187500D02*
D03*
X-153000D02*
D03*
X-137000Y170416D02*
D03*
X-153000D02*
D03*
X-137000Y139375D02*
D03*
X-153000D02*
D03*
X-137000Y105833D02*
D03*
X-153000D02*
D03*
X-137000Y72291D02*
D03*
X-153000D02*
D03*
X-137000Y38750D02*
D03*
X-153000D02*
D03*
X-137000Y-10000D02*
D03*
X-153000D02*
D03*
X-137000Y-40834D02*
D03*
X-153000D02*
D03*
X-137000Y-71875D02*
D03*
X-153000D02*
D03*
X-137000Y-105417D02*
D03*
X-153000D02*
D03*
X-137000Y-138958D02*
D03*
X-153000D02*
D03*
M02*
