G04*
G04 #@! TF.GenerationSoftware,Altium Limited,Altium Designer,24.8.2 (39)*
G04*
G04 Layer_Color=16711935*
%FSLAX44Y44*%
%MOMM*%
G71*
G04*
G04 #@! TF.SameCoordinates,D705C54D-982C-4BB1-A353-505B4E6A0F35*
G04*
G04*
G04 #@! TF.FilePolarity,Negative*
G04*
G01*
G75*
%ADD15R,1.8532X1.8532*%
%ADD16C,1.8532*%
%ADD17R,1.8532X1.8532*%
%ADD18C,5.7032*%
%ADD26R,1.1532X1.2032*%
D15*
X-400000Y250000D02*
D03*
X-950000Y-250000D02*
D03*
X-400000D02*
D03*
X-950000Y250000D02*
D03*
D16*
X-425400D02*
D03*
X-450800D02*
D03*
X-476200D02*
D03*
X-501600D02*
D03*
X-527000D02*
D03*
X-552400D02*
D03*
X-577800D02*
D03*
X-603200D02*
D03*
X-628600D02*
D03*
X-654000D02*
D03*
X-679400D02*
D03*
X-704800D02*
D03*
X-730200D02*
D03*
X-755600D02*
D03*
X-212900Y-177500D02*
D03*
X-187500Y-152100D02*
D03*
X-212900D02*
D03*
X-187500Y-126700D02*
D03*
X-212900D02*
D03*
X-187500Y-101300D02*
D03*
X-212900D02*
D03*
X-187500Y-75900D02*
D03*
X-212900D02*
D03*
X-187500Y-50500D02*
D03*
X-212900D02*
D03*
X-187500Y-25100D02*
D03*
X-212900D02*
D03*
X-187500Y300D02*
D03*
X-212900D02*
D03*
X-187500Y25700D02*
D03*
X-212900D02*
D03*
X-187500Y51100D02*
D03*
X-212900D02*
D03*
X-187500Y76500D02*
D03*
X-212900D02*
D03*
X-187500Y101900D02*
D03*
X-212900D02*
D03*
X-187500Y127300D02*
D03*
X-212900D02*
D03*
X-187500Y152700D02*
D03*
X-212900D02*
D03*
X-187500Y178100D02*
D03*
X-212900D02*
D03*
X-1305600Y-250000D02*
D03*
X-1280200D02*
D03*
X-1254800D02*
D03*
X-1229400D02*
D03*
X-1204000D02*
D03*
X-1178600D02*
D03*
X-1153200D02*
D03*
X-1127800D02*
D03*
X-1102400D02*
D03*
X-1077000D02*
D03*
X-1051600D02*
D03*
X-1026200D02*
D03*
X-1000800D02*
D03*
X-975400D02*
D03*
X-755600D02*
D03*
X-730200D02*
D03*
X-704800D02*
D03*
X-679400D02*
D03*
X-654000D02*
D03*
X-628600D02*
D03*
X-603200D02*
D03*
X-577800D02*
D03*
X-552400D02*
D03*
X-527000D02*
D03*
X-501600D02*
D03*
X-476200D02*
D03*
X-450800D02*
D03*
X-425400D02*
D03*
X-1305600Y250000D02*
D03*
X-1280200D02*
D03*
X-1254800D02*
D03*
X-1229400D02*
D03*
X-1204000D02*
D03*
X-1178600D02*
D03*
X-1153200D02*
D03*
X-1127800D02*
D03*
X-1102400D02*
D03*
X-1077000D02*
D03*
X-1051600D02*
D03*
X-1026200D02*
D03*
X-1000800D02*
D03*
X-975400D02*
D03*
D17*
X-187500Y-177500D02*
D03*
D18*
X-1350000Y-150000D02*
D03*
Y150000D02*
D03*
X-170000Y-300000D02*
D03*
Y300000D02*
D03*
D26*
X-137000Y-172500D02*
D03*
X-153000D02*
D03*
X-137000Y-207500D02*
D03*
X-153000D02*
D03*
X-137000Y-192500D02*
D03*
X-153000D02*
D03*
X-137000Y-157916D02*
D03*
X-153000D02*
D03*
X-137000Y-124375D02*
D03*
X-153000D02*
D03*
X-137000Y-90833D02*
D03*
X-153000D02*
D03*
X-137000Y-57292D02*
D03*
X-153000D02*
D03*
X-137000Y-26250D02*
D03*
X-153000D02*
D03*
X-137000Y4792D02*
D03*
X-153000D02*
D03*
X-137000Y23333D02*
D03*
X-153000D02*
D03*
X-137000Y56875D02*
D03*
X-153000D02*
D03*
X-137000Y90416D02*
D03*
X-153000D02*
D03*
X-137000Y123958D02*
D03*
X-153000D02*
D03*
X-137000Y155000D02*
D03*
X-153000D02*
D03*
X-137000Y202500D02*
D03*
X-153000D02*
D03*
X-137000Y187500D02*
D03*
X-153000D02*
D03*
X-137000Y170416D02*
D03*
X-153000D02*
D03*
X-137000Y139375D02*
D03*
X-153000D02*
D03*
X-137000Y105833D02*
D03*
X-153000D02*
D03*
X-137000Y72291D02*
D03*
X-153000D02*
D03*
X-137000Y38750D02*
D03*
X-153000D02*
D03*
X-137000Y-10000D02*
D03*
X-153000D02*
D03*
X-137000Y-40834D02*
D03*
X-153000D02*
D03*
X-137000Y-71875D02*
D03*
X-153000D02*
D03*
X-137000Y-105417D02*
D03*
X-153000D02*
D03*
X-137000Y-138958D02*
D03*
X-153000D02*
D03*
M02*
