G04*
G04 #@! TF.GenerationSoftware,Altium Limited,Altium Designer,24.8.2 (39)*
G04*
G04 Layer_Physical_Order=4*
G04 Layer_Color=16711680*
%FSLAX44Y44*%
%MOMM*%
G71*
G04*
G04 #@! TF.SameCoordinates,D705C54D-982C-4BB1-A353-505B4E6A0F35*
G04*
G04*
G04 #@! TF.FilePolarity,Positive*
G04*
G01*
G75*
%ADD11C,0.2540*%
%ADD19C,0.5080*%
%ADD20R,1.6500X1.6500*%
%ADD21C,1.6500*%
%ADD22R,1.6500X1.6500*%
%ADD23C,5.5000*%
%ADD24C,1.0160*%
%ADD25R,0.9500X1.0000*%
D11*
X-122500Y-207500D02*
X-122500Y-207500D01*
X-122500Y-192500D02*
X-122500Y-192500D01*
X-122500Y-172500D02*
X-122500Y-172500D01*
X-122500Y-157916D02*
X-122500Y-157916D01*
X-122500Y-138958D02*
X-122500Y-138958D01*
X-122500Y-124375D02*
X-122500Y-124375D01*
X-122500Y-105417D02*
X-122500Y-105416D01*
X-122500Y-90833D02*
X-122500Y-90833D01*
X-122500Y-71875D02*
X-122500Y-71875D01*
X-122500Y-57292D02*
X-122500Y-57291D01*
X-122500Y-40834D02*
X-122500Y-40833D01*
X-122500Y-26250D02*
X-122500Y-26250D01*
X-122500Y-10000D02*
X-122500Y-10000D01*
X-122500Y4792D02*
X-122500Y4792D01*
X-122500Y23333D02*
X-122500Y23333D01*
X-122500Y38750D02*
X-122500Y38750D01*
X-122500Y56875D02*
X-122500Y56875D01*
X-122500Y72291D02*
X-122500Y72291D01*
X-122500Y90416D02*
X-122500Y90417D01*
X-122500Y105833D02*
X-122500Y105833D01*
X-122500Y123958D02*
X-122500Y123958D01*
X-122500Y139375D02*
X-122500Y139375D01*
X-122500Y155000D02*
X-122500Y155000D01*
X-122500Y170416D02*
X-122500Y170416D01*
X-122500Y187500D02*
X-122500Y187500D01*
X-122500Y202500D02*
X-122500Y202500D01*
X-155167Y-205333D02*
X-153032Y-207467D01*
X-160072Y-205333D02*
X-155167D01*
X-180520Y-184885D02*
X-160072Y-205333D01*
X-187500Y-177500D02*
X-180520Y-184480D01*
Y-184885D02*
Y-184480D01*
X-156743Y-188770D02*
X-156480D01*
X-170895Y-174618D02*
Y-168931D01*
Y-174618D02*
X-156743Y-188770D01*
X-187500Y-152326D02*
X-170895Y-168931D01*
X-156480Y-188770D02*
X-153111Y-192139D01*
Y-192500D02*
Y-192139D01*
X-153000Y-172500D02*
Y-172417D01*
X-159495Y-168937D02*
X-156480D01*
X-153000Y-172417D01*
X-170917Y-157515D02*
Y-149363D01*
Y-157515D02*
X-159495Y-168937D01*
X-200259Y-139341D02*
X-180938D01*
X-170917Y-149363D01*
X-212900Y-126700D02*
X-200259Y-139341D01*
X-200119Y-114081D02*
X-182600D01*
X-155350Y-136608D02*
X-153000Y-138958D01*
X-182600Y-114081D02*
X-160072Y-136608D01*
X-155350D01*
X-212900Y-101300D02*
X-200119Y-114081D01*
X-200110Y-88690D02*
X-182446D01*
X-165719Y-105417D02*
X-153000D01*
X-182446Y-88690D02*
X-165719Y-105417D01*
X-212900Y-75900D02*
X-200110Y-88690D01*
X-200217Y-63183D02*
X-170402D01*
X-161710Y-71875D02*
X-153000D01*
X-170402Y-63183D02*
X-161710Y-71875D01*
X-212900Y-50500D02*
X-200217Y-63183D01*
X-184029Y-50500D02*
X-177484Y-57045D01*
X-153247D02*
X-153000Y-57292D01*
X-177484Y-57045D02*
X-153247D01*
X-156052Y-37782D02*
X-153000Y-40834D01*
X-200218Y-37782D02*
X-156052D01*
X-212900Y-25100D02*
X-200218Y-37782D01*
X-187500Y-25100D02*
X-185825Y-26775D01*
X-153525D02*
X-153000Y-26250D01*
X-185825Y-26775D02*
X-153525D01*
X-212900Y300D02*
X-200114Y-12486D01*
X-155486D02*
X-153000Y-10000D01*
X-200114Y-12486D02*
X-155486D01*
X-187500Y300D02*
X-183723D01*
X-153484Y4307D02*
X-153000Y4792D01*
X-179716Y4307D02*
X-153484D01*
X-183723Y300D02*
X-179716Y4307D01*
X-187500Y25700D02*
X-184977Y23177D01*
X-153157D01*
X-153498Y38251D02*
X-153000Y38750D01*
X-200349Y38251D02*
X-153498D01*
X-212900Y25700D02*
X-200349Y38251D01*
X-200225Y63776D02*
X-169886D01*
X-161371Y72291D02*
X-153000D01*
X-169886Y63776D02*
X-161371Y72291D01*
X-212900Y51100D02*
X-200225Y63776D01*
X-187500Y76500D02*
X-183857D01*
X-170727Y89630D02*
X-153786D01*
X-183857Y76500D02*
X-170727Y89630D01*
X-153786D02*
X-153000Y90416D01*
X-165940Y105833D02*
X-153000D01*
X-182456Y89317D02*
X-165940Y105833D01*
X-200083Y89317D02*
X-182456D01*
X-212900Y76500D02*
X-200083Y89317D01*
X-154530Y122428D02*
X-153000Y123958D01*
X-160072Y122428D02*
X-154530D01*
X-177929Y104571D02*
X-160072Y122428D01*
X-184829Y104571D02*
X-177929D01*
X-187500Y101900D02*
X-184829Y104571D01*
X-199947Y114691D02*
X-177684D01*
X-212900Y101900D02*
X-212738D01*
X-199947Y114691D01*
X-177684D02*
X-156730Y135645D01*
X-200381Y139819D02*
X-180191D01*
X-212900Y127300D02*
X-200381Y139819D01*
X-180191D02*
X-169542Y150469D01*
X-184829Y129971D02*
X-177541D01*
X-156480Y151520D02*
X-153000Y155000D01*
X-159328Y148184D02*
X-158860D01*
X-177541Y129971D02*
X-159328Y148184D01*
X-156480Y150564D02*
Y151520D01*
X-158860Y148184D02*
X-156480Y150564D01*
X-169542Y155047D02*
X-157903Y166686D01*
X-156480D01*
X-169542Y150469D02*
Y155047D01*
X-153000Y170166D02*
Y170416D01*
X-156480Y166686D02*
X-153000Y170166D01*
X-175512Y165221D02*
X-156963Y183770D01*
X-200379Y165221D02*
X-175512D01*
X-212900Y152700D02*
X-200379Y165221D01*
X-188500Y202500D02*
X-153000D01*
X-212900Y178100D02*
X-188500Y202500D01*
X-153000Y187250D02*
Y187483D01*
X-156963Y183770D02*
X-156480D01*
X-153000Y187250D01*
X-183967Y-126700D02*
X-153000Y-157667D01*
X-187500Y-126700D02*
X-183967D01*
X-153000Y-157916D02*
Y-157667D01*
X-164425Y-124375D02*
X-153000D01*
X-187500Y-101300D02*
X-164425Y-124375D01*
X-187500Y-75900D02*
X-172567Y-90833D01*
X-153000D01*
X-187500Y-50500D02*
X-184029D01*
X-177948Y56875D02*
X-153000D01*
X-183723Y51100D02*
X-177948Y56875D01*
X-187500Y51100D02*
X-183723D01*
X-156480Y135645D02*
X-153000Y139124D01*
X-156730Y135645D02*
X-156480D01*
X-153000Y139124D02*
Y139375D01*
X-187500Y127300D02*
X-184829Y129971D01*
D19*
X-137000Y-207500D02*
X-122500D01*
X-137000Y-192500D02*
X-122500D01*
X-137000Y-172500D02*
X-122500D01*
X-137000Y-157916D02*
X-122500D01*
X-137000Y-138958D02*
X-122500D01*
X-137000Y-124375D02*
X-122500D01*
X-137000Y-105417D02*
X-122500D01*
X-137000Y-90833D02*
X-122500D01*
X-137000Y-71875D02*
X-122500D01*
X-137000Y-57292D02*
X-122500D01*
X-137000Y-40834D02*
X-122500D01*
X-137000Y-26250D02*
X-122500D01*
X-137000Y-10000D02*
X-122500D01*
X-137000Y4792D02*
X-122500D01*
X-137000Y23333D02*
X-122500D01*
X-137000Y38750D02*
X-122500D01*
X-137000Y56875D02*
X-122500D01*
X-137000Y72291D02*
X-122500D01*
X-137000Y90416D02*
X-122500D01*
X-137000Y105833D02*
X-122500D01*
X-137000Y123958D02*
X-122500D01*
X-137000Y139375D02*
X-122500D01*
X-137000Y155000D02*
X-122500D01*
X-137000Y170416D02*
X-122500D01*
X-137000Y187500D02*
X-122500D01*
X-137000Y202500D02*
X-122500D01*
X-400000Y182500D02*
X-397938D01*
X-382938Y167500D01*
X-501600Y182500D02*
X-395600Y76500D01*
X-527000Y182500D02*
X-395600Y51100D01*
X-476200Y182500D02*
X-395600Y101900D01*
X-552400Y182500D02*
X-395600Y25700D01*
X-577800Y182500D02*
X-395600Y300D01*
X-603200Y182500D02*
X-395600Y-25100D01*
X-628600Y182500D02*
X-395600Y-50500D01*
X-654000Y182500D02*
X-395600Y-75900D01*
Y152700D02*
X-212900D01*
X-425400Y182500D02*
X-395600Y152700D01*
X-530000Y5000D02*
X-398300Y-126700D01*
X-702260Y177260D02*
X-530000Y5000D01*
X-679400Y182500D02*
X-395600Y-101300D01*
X-450800Y182500D02*
X-395600Y127300D01*
X-382938Y167500D02*
X-223500D01*
X-212900Y178100D01*
X-1255000Y-180000D02*
X-1092500Y-17500D01*
X-525000D01*
X-1079600Y-30000D02*
X-512500D01*
X-1229600Y-180000D02*
X-1079600Y-30000D01*
X-1066700Y-42500D02*
X-500000D01*
X-1204200Y-180000D02*
X-1066700Y-42500D01*
X-1178800Y-180000D02*
X-1053800Y-55000D01*
X-487500D01*
X-1153400Y-180000D02*
X-1040899Y-67500D01*
X-475000D01*
X-1028000Y-80000D02*
X-462500D01*
X-1128000Y-180000D02*
X-1028000Y-80000D01*
X-1102600Y-180000D02*
X-1017599Y-95000D01*
X-450000D01*
X-1004700Y-107500D02*
X-437500D01*
X-1077200Y-180000D02*
X-1004700Y-107500D01*
X-1051800Y-180000D02*
X-991800Y-120000D01*
X-425000D01*
X-978900Y-132500D02*
X-412500D01*
X-1026400Y-180000D02*
X-978900Y-132500D01*
X-1001000Y-180000D02*
X-966000Y-145000D01*
X-400000D01*
X-953100Y-157500D02*
X-387500D01*
X-975600Y-180000D02*
X-953100Y-157500D01*
X-942700Y-172500D02*
X-375000D01*
X-950200Y-180000D02*
X-942700Y-172500D01*
X-398300Y-126700D02*
X-212900D01*
X-704800Y181126D02*
Y182500D01*
Y181126D02*
X-702260Y178586D01*
Y177260D02*
Y178586D01*
X-395600Y-101300D02*
X-212900D01*
X-395600Y-75900D02*
X-212900D01*
X-395600Y-50500D02*
X-212900D01*
X-395600Y-25100D02*
X-212900D01*
X-395600Y300D02*
X-212900D01*
X-395600Y25700D02*
X-212900D01*
X-395600Y51100D02*
X-212900D01*
X-395600Y76500D02*
X-212900D01*
X-395600Y101900D02*
X-212900D01*
X-395600Y127300D02*
X-212900D01*
D20*
X-400000Y250000D02*
D03*
X-950000Y-250000D02*
D03*
X-400000D02*
D03*
X-950000Y250000D02*
D03*
D21*
X-425400D02*
D03*
X-450800D02*
D03*
X-476200D02*
D03*
X-501600D02*
D03*
X-527000D02*
D03*
X-552400D02*
D03*
X-577800D02*
D03*
X-603200D02*
D03*
X-628600D02*
D03*
X-654000D02*
D03*
X-679400D02*
D03*
X-704800D02*
D03*
X-730200D02*
D03*
X-755600D02*
D03*
X-212900Y-177500D02*
D03*
X-187500Y-152100D02*
D03*
X-212900D02*
D03*
X-187500Y-126700D02*
D03*
X-212900D02*
D03*
X-187500Y-101300D02*
D03*
X-212900D02*
D03*
X-187500Y-75900D02*
D03*
X-212900D02*
D03*
X-187500Y-50500D02*
D03*
X-212900D02*
D03*
X-187500Y-25100D02*
D03*
X-212900D02*
D03*
X-187500Y300D02*
D03*
X-212900D02*
D03*
X-187500Y25700D02*
D03*
X-212900D02*
D03*
X-187500Y51100D02*
D03*
X-212900D02*
D03*
X-187500Y76500D02*
D03*
X-212900D02*
D03*
X-187500Y101900D02*
D03*
X-212900D02*
D03*
X-187500Y127300D02*
D03*
X-212900D02*
D03*
X-187500Y152700D02*
D03*
X-212900D02*
D03*
X-187500Y178100D02*
D03*
X-212900D02*
D03*
X-1305600Y-250000D02*
D03*
X-1280200D02*
D03*
X-1254800D02*
D03*
X-1229400D02*
D03*
X-1204000D02*
D03*
X-1178600D02*
D03*
X-1153200D02*
D03*
X-1127800D02*
D03*
X-1102400D02*
D03*
X-1077000D02*
D03*
X-1051600D02*
D03*
X-1026200D02*
D03*
X-1000800D02*
D03*
X-975400D02*
D03*
X-755600D02*
D03*
X-730200D02*
D03*
X-704800D02*
D03*
X-679400D02*
D03*
X-654000D02*
D03*
X-628600D02*
D03*
X-603200D02*
D03*
X-577800D02*
D03*
X-552400D02*
D03*
X-527000D02*
D03*
X-501600D02*
D03*
X-476200D02*
D03*
X-450800D02*
D03*
X-425400D02*
D03*
X-1305600Y250000D02*
D03*
X-1280200D02*
D03*
X-1254800D02*
D03*
X-1229400D02*
D03*
X-1204000D02*
D03*
X-1178600D02*
D03*
X-1153200D02*
D03*
X-1127800D02*
D03*
X-1102400D02*
D03*
X-1077000D02*
D03*
X-1051600D02*
D03*
X-1026200D02*
D03*
X-1000800D02*
D03*
X-975400D02*
D03*
D22*
X-187500Y-177500D02*
D03*
D23*
X-1350000Y-150000D02*
D03*
Y150000D02*
D03*
X-170000Y-300000D02*
D03*
Y300000D02*
D03*
D24*
X-1350000Y-172500D02*
D03*
X-1327500Y-150000D02*
D03*
X-1372500D02*
D03*
X-1350000Y-127500D02*
D03*
X-1335000Y-135000D02*
D03*
X-1365000D02*
D03*
X-1335000Y-165000D02*
D03*
X-1365000D02*
D03*
X-1350000Y127500D02*
D03*
X-1327500Y150000D02*
D03*
X-1372500D02*
D03*
X-1350000Y172500D02*
D03*
X-1335000Y165000D02*
D03*
X-1365000D02*
D03*
X-1335000Y135000D02*
D03*
X-1365000D02*
D03*
X-170000Y-322500D02*
D03*
X-147500Y-300000D02*
D03*
X-192500D02*
D03*
X-170000Y-277500D02*
D03*
X-155000Y-285000D02*
D03*
X-185000D02*
D03*
X-155000Y-315000D02*
D03*
X-185000D02*
D03*
Y285000D02*
D03*
X-155000D02*
D03*
X-185000Y315000D02*
D03*
X-155000D02*
D03*
X-170000Y322500D02*
D03*
X-192500Y300000D02*
D03*
X-147500D02*
D03*
X-170000Y277500D02*
D03*
X-122500Y-207500D02*
D03*
Y-192500D02*
D03*
X-122500Y-172500D02*
D03*
X-122500Y-157916D02*
D03*
X-122500Y-138958D02*
D03*
X-122500Y-124375D02*
D03*
X-122500Y-105416D02*
D03*
X-122500Y-90833D02*
D03*
X-122500Y-71875D02*
D03*
X-122500Y-57291D02*
D03*
X-122500Y-40833D02*
D03*
X-122500Y-26250D02*
D03*
X-122500Y-10000D02*
D03*
X-122500Y4792D02*
D03*
Y23333D02*
D03*
X-122500Y38750D02*
D03*
X-122500Y56875D02*
D03*
X-122500Y72291D02*
D03*
X-122500Y90417D02*
D03*
X-122500Y105833D02*
D03*
X-122500Y123958D02*
D03*
X-122500Y139375D02*
D03*
X-122500Y155000D02*
D03*
X-122500Y170416D02*
D03*
X-122500Y187500D02*
D03*
Y202500D02*
D03*
X-382938Y167500D02*
D03*
X-1229188Y-315000D02*
D03*
X-1203788D02*
D03*
X-1178388D02*
D03*
X-1127588Y-315000D02*
D03*
X-1102188Y-315000D02*
D03*
X-1076788Y-315000D02*
D03*
X-1051388Y-315000D02*
D03*
X-1025988Y-315000D02*
D03*
X-1000588D02*
D03*
X-975188Y-315000D02*
D03*
X-1152988Y-315000D02*
D03*
X-679400Y-315000D02*
D03*
X-654000D02*
D03*
X-628600D02*
D03*
X-603200Y-315000D02*
D03*
X-577800Y-315000D02*
D03*
X-552400Y-315000D02*
D03*
X-527000Y-315000D02*
D03*
X-501600Y-315000D02*
D03*
X-476200Y-315000D02*
D03*
X-450800D02*
D03*
X-425400Y-315000D02*
D03*
X-425400Y315000D02*
D03*
X-450800D02*
D03*
X-476200D02*
D03*
X-501600Y315000D02*
D03*
X-527000Y315000D02*
D03*
X-552400Y315000D02*
D03*
X-577800Y315000D02*
D03*
X-603200Y315000D02*
D03*
X-628600Y315000D02*
D03*
X-654000D02*
D03*
X-679400Y315000D02*
D03*
X-975400Y315000D02*
D03*
X-1000800D02*
D03*
X-1026200D02*
D03*
X-1051600Y315000D02*
D03*
X-1077000Y315000D02*
D03*
X-1102400Y315000D02*
D03*
X-1127800Y315000D02*
D03*
X-1153200Y315000D02*
D03*
X-1178600Y315000D02*
D03*
X-1204000D02*
D03*
X-1229400Y315000D02*
D03*
X-1254800Y315000D02*
D03*
X-950000Y315000D02*
D03*
X-704800Y315000D02*
D03*
X-400000Y315000D02*
D03*
X-704800Y-315000D02*
D03*
X-400000Y-315000D02*
D03*
X-1254588Y-315000D02*
D03*
X-949788Y-315000D02*
D03*
X-530000Y5000D02*
D03*
X-517500Y20000D02*
D03*
X-505000Y32500D02*
D03*
X-492500Y47500D02*
D03*
X-482500Y60000D02*
D03*
X-470000Y75000D02*
D03*
X-457500Y87500D02*
D03*
X-445000Y100000D02*
D03*
X-432500Y112500D02*
D03*
X-420000Y125000D02*
D03*
X-407500Y137500D02*
D03*
X-395600Y152700D02*
D03*
X-1153400Y-180000D02*
D03*
X-1178800Y-180000D02*
D03*
X-387500Y-157500D02*
D03*
X-375000Y-172500D02*
D03*
X-400000Y-145000D02*
D03*
X-412500Y-132500D02*
D03*
X-425000Y-120000D02*
D03*
X-437500Y-107500D02*
D03*
X-450000Y-95000D02*
D03*
X-462500Y-80000D02*
D03*
X-475000Y-67500D02*
D03*
X-487500Y-55000D02*
D03*
X-500000Y-42500D02*
D03*
X-512500Y-30000D02*
D03*
X-525000Y-17500D02*
D03*
X-1255000Y-180000D02*
D03*
X-1051800Y-180000D02*
D03*
X-950200Y-180000D02*
D03*
X-975600D02*
D03*
X-1102600D02*
D03*
X-1128000Y-180000D02*
D03*
X-1229600D02*
D03*
X-1001000Y-180000D02*
D03*
X-1026400D02*
D03*
X-1204200D02*
D03*
X-1077200Y-180000D02*
D03*
X-577800Y182500D02*
D03*
X-450800Y182500D02*
D03*
X-628600D02*
D03*
X-654000D02*
D03*
X-501600Y182500D02*
D03*
X-425400Y182500D02*
D03*
X-476200Y182500D02*
D03*
X-527000Y182500D02*
D03*
X-552400Y182500D02*
D03*
X-679400D02*
D03*
X-704800D02*
D03*
X-603200Y182500D02*
D03*
X-400000Y182500D02*
D03*
D25*
X-137000Y-172500D02*
D03*
X-153000D02*
D03*
X-137000Y-207500D02*
D03*
X-153000D02*
D03*
X-137000Y-192500D02*
D03*
X-153000D02*
D03*
X-137000Y-157916D02*
D03*
X-153000D02*
D03*
X-137000Y-124375D02*
D03*
X-153000D02*
D03*
X-137000Y-90833D02*
D03*
X-153000D02*
D03*
X-137000Y-57292D02*
D03*
X-153000D02*
D03*
X-137000Y-26250D02*
D03*
X-153000D02*
D03*
X-137000Y4792D02*
D03*
X-153000D02*
D03*
X-137000Y23333D02*
D03*
X-153000D02*
D03*
X-137000Y56875D02*
D03*
X-153000D02*
D03*
X-137000Y90416D02*
D03*
X-153000D02*
D03*
X-137000Y123958D02*
D03*
X-153000D02*
D03*
X-137000Y155000D02*
D03*
X-153000D02*
D03*
X-137000Y202500D02*
D03*
X-153000D02*
D03*
X-137000Y187500D02*
D03*
X-153000D02*
D03*
X-137000Y170416D02*
D03*
X-153000D02*
D03*
X-137000Y139375D02*
D03*
X-153000D02*
D03*
X-137000Y105833D02*
D03*
X-153000D02*
D03*
X-137000Y72291D02*
D03*
X-153000D02*
D03*
X-137000Y38750D02*
D03*
X-153000D02*
D03*
X-137000Y-10000D02*
D03*
X-153000D02*
D03*
X-137000Y-40834D02*
D03*
X-153000D02*
D03*
X-137000Y-71875D02*
D03*
X-153000D02*
D03*
X-137000Y-105417D02*
D03*
X-153000D02*
D03*
X-137000Y-138958D02*
D03*
X-153000D02*
D03*
M02*
